<svg xmlns="http://www.w3.org/2000/svg" width="16" height="16" viewBox="0 0 16 16" fill="none">
  <path d="M11.0868 8.75399C11.0488 8.79265 10.9068 8.95799 10.7741 9.09399C9.64039 10.1934 8.3342 11.0996 6.90747 11.7767C6.65762 11.8854 6.39443 11.9605 6.1248 12C5.91598 12.0009 5.71007 11.951 5.5248 11.8547C5.28841 11.7167 5.10384 11.505 4.99947 11.252C4.92902 11.0189 4.87159 10.7821 4.82747 10.5427C4.70641 9.7025 4.65246 8.85404 4.66614 8.00532C4.65872 7.1833 4.70616 6.3617 4.80814 5.54599C4.85997 5.24546 4.936 4.94961 5.03547 4.66132C5.13287 4.46487 5.28265 4.29914 5.46829 4.18244C5.65393 4.06574 5.86821 4.0026 6.08747 3.99999L6.12547 3.99999C6.43048 4.0486 6.72701 4.14041 7.00614 4.27266C8.39879 4.94622 9.67434 5.8389 10.7841 6.91665C10.8991 7.03268 11.0065 7.15605 11.1055 7.28599C11.2553 7.49197 11.335 7.74063 11.3328 7.99532C11.3358 8.26829 11.2494 8.53475 11.0868 8.75399Z" fill="#566E71"/>
</svg>