<svg xmlns="http://www.w3.org/2000/svg" width="16" height="16" viewBox="0 0 16 16" fill="none">
  <path
    d="M11.0878 8.75399C11.0498 8.79265 10.9078 8.95799 10.7751 9.09399C9.64136 10.1934 8.33518 11.0996 6.90845 11.7767C6.65859 11.8854 6.3954 11.9605 6.12578 12C5.91696 12.0009 5.71105 11.951 5.52578 11.8547C5.28938 11.7167 5.10482 11.505 5.00045 11.252C4.92999 11.0189 4.87257 10.7821 4.82845 10.5427C4.70739 9.7025 4.65344 8.85404 4.66711 8.00532C4.6597 7.1833 4.70714 6.3617 4.80911 5.54599C4.86095 5.24546 4.93697 4.94961 5.03645 4.66132C5.13384 4.46487 5.28363 4.29914 5.46927 4.18244C5.65491 4.06574 5.86919 4.0026 6.08845 3.99999L6.12645 3.99999C6.43146 4.0486 6.72799 4.14041 7.00711 4.27266C8.39977 4.94622 9.67532 5.8389 10.7851 6.91665C10.9001 7.03268 11.0074 7.15605 11.1064 7.28599C11.2563 7.49197 11.336 7.74063 11.3338 7.99532C11.3368 8.26829 11.2504 8.53475 11.0878 8.75399Z"
    fill="white" />
</svg>