<svg xmlns="http://www.w3.org/2000/svg" width="13" height="18" viewBox="0 0 13 18" fill="none">
  <path d="M11.9729 6.12875L6.93288 0.368733C6.83149 0.252907 6.70652 0.160087 6.56634 0.0964932C6.42616 0.0328994 6.274 0 6.12007 0C5.96614 0 5.81398 0.0328994 5.6738 0.0964932C5.53362 0.160087 5.40865 0.252907 5.30726 0.368733L0.267246 6.12875C0.130604 6.2849 0.0418369 6.4771 0.0115601 6.68238C-0.0187167 6.88765 0.0107793 7.0973 0.0965198 7.28625C0.18226 7.4752 0.320615 7.63545 0.495037 7.74783C0.669459 7.86022 0.872563 7.91998 1.08006 7.91997H2.88006V16.92C2.88006 17.5164 3.36362 18 3.96006 18H8.28008C8.87653 18 9.36008 17.5164 9.36008 16.92V7.91997H11.1601C11.3676 7.91998 11.5707 7.86022 11.7451 7.74783C11.9195 7.63545 12.0579 7.4752 12.1436 7.28625C12.2294 7.0973 12.2589 6.88765 12.2286 6.68238C12.1983 6.4771 12.1095 6.2849 11.9729 6.12875Z" fill="#00BB07"/>
</svg>