<svg xmlns="http://www.w3.org/2000/svg" width="25" height="25"><path d="m15.477 3.797 1.117-.512v18.43l-8.817-3.988h-4.68c-.8 0-1.464-.356-1.984-1.067q-.631-.843-.918-2.183A9.5 9.5 0 0 1 0 12.507a9.6 9.6 0 0 1 .195-1.972q.287-1.335.918-2.18.782-1.065 1.985-1.066h4.68ZM7.16 8.852H3.098q-.945 0-1.368 2.003a8.4 8.4 0 0 0 0 3.31q.424 1.984 1.368 1.983H7.16Zm7.852-3.13-6.29 2.844v7.868l6.29 2.859Zm4.183 3.462-.78-1.356 4.437-2.57.78 1.351Zm-.015 6.648 4.453 2.559-.781 1.351-4.442-2.555Zm.695-4.105H25v1.562h-5.125Zm0 0" style="stroke:none;fill-rule:nonzero;fill:#000;fill-opacity:1"/></svg>