<svg xmlns="http://www.w3.org/2000/svg" width="18" height="20" viewBox="0 0 18 20" fill="none">
  <path opacity="0.4" d="M16.6435 7.48829C16.6435 7.55629 16.1105 14.2973 15.8065 17.1343C15.7827 17.9067 15.4535 18.6382 14.8911 19.1681C14.3286 19.6981 13.579 19.9834 12.8065 19.9613C11.5135 19.9903 10.2465 20.0003 9.00048 20.0003C7.67748 20.0003 6.38448 19.9903 5.12848 19.9613C4.36846 19.9643 3.63729 19.6705 3.09062 19.1425C2.54394 18.6145 2.22493 17.894 2.20148 17.1343C1.88848 14.2873 1.36548 7.55629 1.35448 7.48829C1.34442 7.28453 1.41317 7.08472 1.54648 6.93029C1.61262 6.85709 1.69328 6.79848 1.78333 6.75819C1.87338 6.7179 1.97083 6.69682 2.06948 6.69629H15.9395C16.0379 6.698 16.135 6.71962 16.2249 6.75983C16.3148 6.80005 16.3956 6.85803 16.4625 6.93029C16.5287 7.0063 16.5789 7.09492 16.61 7.19081C16.6411 7.28669 16.6525 7.38788 16.6435 7.48829Z" fill="#FF0000"/>
  <path d="M18.0001 3.977C18.0015 3.88202 17.9842 3.78768 17.9492 3.6994C17.9141 3.61111 17.8619 3.53062 17.7957 3.46252C17.7295 3.39443 17.6505 3.34008 17.5632 3.30258C17.4759 3.26508 17.3821 3.24517 17.2871 3.244H14.3711C14.0793 3.24115 13.7973 3.13879 13.5716 2.95386C13.346 2.76893 13.1902 2.5125 13.1301 2.227L12.9671 1.5C12.8601 1.07544 12.6158 0.698146 12.2722 0.426852C11.9286 0.155558 11.5049 0.00548698 11.0671 0L6.93608 0C6.48999 0.00567265 6.05878 0.161227 5.7118 0.441642C5.36481 0.722057 5.12224 1.11103 5.02308 1.546L4.87008 2.228C4.80947 2.51298 4.65366 2.76885 4.4283 2.9535C4.20293 3.13816 3.92142 3.24061 3.63008 3.244H0.714084C0.619013 3.24504 0.525083 3.26485 0.437687 3.30229C0.350292 3.33973 0.271151 3.39407 0.20481 3.46217C0.138468 3.53028 0.086232 3.61082 0.0510995 3.69917C0.015967 3.78752 -0.0013698 3.88193 8.44685e-05 3.977V4.357C-0.00100657 4.54846 0.0732704 4.73267 0.206868 4.86982C0.340466 5.00698 0.522659 5.08606 0.714084 5.09H17.2871C17.4783 5.0858 17.6603 5.0066 17.7937 4.86948C17.927 4.73235 18.0012 4.54829 18.0001 4.357V3.977Z" fill="#FF0000"/>
</svg>