<svg xmlns="http://www.w3.org/2000/svg" width="28" height="28" viewBox="0 0 28 28" fill="none">
  <path d="M26.3093 4.09863H24.6191V21.9014H26.3093C27.2427 21.9014 27.9994 21.1447 27.9994 20.2113V5.78877C27.9994 4.85531 27.2427 4.09863 26.3093 4.09863Z" fill="#C0E0E5"/>
  <path d="M26.3098 20.2113V11.7042L24.6197 8.74651L26.3098 5.78877C26.3098 4.85531 25.5531 4.09863 24.6197 4.09863H1.69014C0.756731 4.09863 0 4.85531 0 5.78877V20.2113C0 21.1447 0.756731 21.9014 1.69014 21.9014H24.6197C25.5531 21.9014 26.3098 21.1447 26.3098 20.2113Z" fill="#59CCDC"/>
  <path d="M23.7749 5.78918L22.4509 7.08839L21.127 5.78918H18.5918V11.7047H21.127L22.4509 10.4055L23.7749 11.7047H26.3101V5.78918H23.7749Z" fill="#1D818F"/>
  <path d="M15.2123 20.2117L11.832 13.0004L15.2123 5.78918H16.9024V20.2117H15.2123Z" fill="#64B8C4"/>
  <path d="M1.69141 5.78918H15.2125V20.2117H1.69141V5.78918Z" fill="white"/>
  <path d="M12.6198 15.9301H10.9297L13.5212 18.5217H15.2114C15.2114 17.0904 14.0511 15.9301 12.6198 15.9301Z" fill="#a0b46f"/>
  <path d="M10.9282 15.9301H5.97045C4.53919 15.9301 3.37891 17.0904 3.37891 18.5217H13.5197C13.5197 17.0904 12.3595 15.9301 10.9282 15.9301Z" fill="#62CDDC"/>
  <path d="M9.29492 7.47858V14.2391C11.1618 14.2391 12.6752 12.7257 12.6752 10.8589C12.6752 8.99198 11.1618 7.47858 9.29492 7.47858Z" fill="#a0b46f"/>
  <path d="M10.9845 10.8589C10.9845 8.99198 10.2278 7.47858 9.29434 7.47858C7.42747 7.47858 5.91406 8.99198 5.91406 10.8589C5.91406 12.7257 7.42747 14.2391 9.29434 14.2391C10.2278 14.2391 10.9845 12.7257 10.9845 10.8589Z" fill="#62CDDC"/>
  <path d="M26.3088 17.1984H18.5905C18.3571 17.1984 18.168 17.0093 18.168 16.7759C18.168 16.5425 18.3571 16.3533 18.5905 16.3533H26.3088C26.5422 16.3533 26.7313 16.5425 26.7313 16.7759C26.7313 17.0093 26.5422 17.1984 26.3088 17.1984ZM26.3088 18.8885H18.5905C18.3571 18.8885 18.168 18.6994 18.168 18.466C18.168 18.2326 18.3571 18.0435 18.5905 18.0435H26.3088C26.5422 18.0435 26.7313 18.2326 26.7313 18.466C26.7313 18.6994 26.5422 18.8885 26.3088 18.8885ZM26.3088 20.5787H18.5905C18.3571 20.5787 18.168 20.3895 18.168 20.1561C18.168 19.9227 18.3571 19.7336 18.5905 19.7336H26.3088C26.5422 19.7336 26.7313 19.9227 26.7313 20.1561C26.7313 20.3895 26.5422 20.5787 26.3088 20.5787Z" fill="#A1E9F3"/>
  <path d="M23.7729 5.78918H21.125V7.47932L21.787 8.74693L21.125 10.0145V11.7047H23.7729V10.0145L23.1109 8.74693L23.7729 7.47932V5.78918Z" fill="#A9A9A9"/>
  <path d="M21.125 7.47858H23.7729V10.0138H21.125V7.47858Z" fill="#8F8F8F"/>
</svg>