<svg xmlns="http://www.w3.org/2000/svg" width="24" height="24" viewBox="0 0 24 24" fill="none">
  <g clip-path="url(#clip0_3702_3128)">
    <path d="M5.97096 5.66492C9.04484 5.66492 12 8.0055 12 11.9989H0.707193C0.287881 11.9989 -0.0381104 11.6361 0.00360036 11.2189C0.357837 7.67928 3.13449 5.66492 5.97096 5.66492Z" fill="#FFDA2D"/>
    <path d="M18.0291 18.333C14.9552 18.333 12 15.9924 12 11.999H23.2928C23.7121 11.999 24.0381 12.3618 23.9964 12.779C23.6422 16.3186 20.8656 18.333 18.0291 18.333Z" fill="#4175DF"/>
    <path d="M5.66602 18.0291C5.66602 14.9552 8.0066 12 12 12V23.2928C12 23.7121 11.6372 24.0381 11.22 23.9964C7.68038 23.6422 5.66602 20.8656 5.66602 18.0291Z" fill="#59C36A"/>
    <path d="M18.334 5.97096C18.334 9.04484 15.9934 12 12 12V0.707193C12 0.287881 12.3628 -0.0381104 12.78 0.00360036C16.3197 0.357837 18.334 3.13449 18.334 5.97096Z" fill="#F03800"/>
  </g>
  <defs>
    <clipPath id="clip0_3702_3128">
      <rect width="24" height="24" fill="white"/>
    </clipPath>
  </defs>
</svg>