<svg xmlns="http://www.w3.org/2000/svg" width="117" height="45" viewBox="0 0 117 45" fill="none">
  <path d="M9.95756 34.0614C9.95499 34.0605 9.95218 34.0603 9.94954 34.0611C9.94689 34.0618 9.94455 34.0634 9.94283 34.0655C9.9411 34.0676 9.9401 34.0703 9.93995 34.073C9.9398 34.0758 9.94051 34.0785 9.94199 34.0808C10.8293 35.3821 11.9225 36.4759 13.2216 37.3625C13.2239 37.3643 13.2256 37.3668 13.2262 37.3697C13.2268 37.3725 13.2264 37.3755 13.2251 37.3781C13.2238 37.3808 13.2216 37.3828 13.2189 37.3839C13.2162 37.3851 13.2132 37.3853 13.2104 37.3844C11.6364 36.7826 10.0663 36.1749 8.50022 35.561C8.00157 35.3656 7.61917 35.2037 7.35303 35.0755C0.897152 31.9599 -1.76093 24.2435 1.2154 17.7604C3.89653 11.9212 10.5941 8.93901 16.7255 10.8106C16.9945 10.8929 17.3858 11.0322 17.8994 11.2284C19.2866 11.7592 20.6729 12.2943 22.0584 12.8339C22.0634 12.8359 22.0687 12.8368 22.0741 12.8367C22.0795 12.8366 22.0848 12.8354 22.0897 12.8332C22.0946 12.8309 22.0991 12.8278 22.1028 12.8238C22.1065 12.8198 22.1094 12.8152 22.1114 12.8101C22.6374 11.4266 23.166 10.0431 23.697 8.65964C23.8884 8.16062 24.0483 7.77519 24.1766 7.50334C28.335 -1.30426 40.2559 -2.67353 46.2216 5.07923C48.7533 8.369 49.566 12.7668 48.3702 16.7914C48.2855 17.0774 48.1475 17.4708 47.9561 17.9715C45.0161 25.6739 42.0719 33.3749 39.1236 41.0744C38.9206 41.6044 38.7541 41.9864 38.6241 42.2207C37.4888 44.2665 35.1465 45.3476 32.8589 44.8998C32.5679 44.8425 32.1728 44.7177 31.6738 44.5252C27.658 42.9768 23.6416 41.4252 19.6246 39.8705C19.6225 39.87 19.6207 39.8687 19.6196 39.8669C19.6186 39.8651 19.6183 39.8629 19.6189 39.8609C19.6194 39.8588 19.6208 39.8569 19.6227 39.8557C19.6245 39.8544 19.6268 39.8539 19.6289 39.8542C30.0545 41.2786 39.5428 33.311 40.7584 22.9763C41.5033 16.6467 38.7817 9.76271 32.8066 6.92519C32.8017 6.92281 32.7961 6.92215 32.7907 6.92331C32.7853 6.92447 32.7805 6.92739 32.7769 6.93161C32.7733 6.93583 32.7713 6.94111 32.771 6.94663C32.7708 6.95215 32.7723 6.95761 32.7755 6.96214C37.0422 13.3024 37.168 21.3258 32.8888 27.6923C28.3013 34.5168 19.8494 37.5109 12.0458 34.8588C11.3366 34.6179 10.6406 34.3521 9.95756 34.0614ZM30.9276 25.5094C30.9276 24.7893 30.7866 24.0763 30.5126 23.411C30.2387 22.7457 29.8371 22.1412 29.3308 21.6321C28.8246 21.1229 28.2235 20.719 27.5621 20.4434C26.9006 20.1679 26.1917 20.026 25.4757 20.026C24.0298 20.026 22.643 20.6037 21.6206 21.6321C20.5982 22.6604 20.0238 24.0551 20.0238 25.5094C20.0238 26.9637 20.5982 28.3584 21.6206 29.3867C22.643 30.4151 24.0298 30.9928 25.4757 30.9928C26.1917 30.9928 26.9006 30.8509 27.5621 30.5754C28.2235 30.2998 28.8246 29.8959 29.3308 29.3867C29.8371 28.8775 30.2387 28.2731 30.5126 27.6078C30.7866 26.9425 30.9276 26.2295 30.9276 25.5094Z" fill="white"/>
  <path d="M101.275 16.8315C100.759 17.4798 100.026 18.358 99.0983 18.0304C98.9829 17.9899 98.7828 17.8569 98.498 17.6314C98.3107 17.4831 98.0496 17.332 97.7145 17.1779C94.9175 15.8938 92.6624 18.7069 92.9626 21.2982C93.1326 22.7702 94.0811 24.1032 95.4587 24.6976C95.5625 24.7423 95.679 24.7646 95.8081 24.7646C97.1878 24.7659 98.5677 24.7663 99.9478 24.7659C100.304 24.7659 100.543 24.7855 100.665 24.8248C101.546 25.1079 101.601 26.4033 101.539 27.1455C101.538 27.154 101.535 27.162 101.528 27.1678C101.522 27.1736 101.514 27.1769 101.505 27.1768C96.7618 27.1785 92.0193 27.1783 87.2777 27.1762C83.7913 27.1743 82.1608 24.8905 82.1621 21.5983C82.1633 18.4588 82.1671 15.319 82.1733 12.1787C82.1733 11.8818 82.1135 11.2704 82.1914 10.8489C82.4143 9.64183 84.3244 9.82724 85.1901 9.84415C85.1984 9.84431 85.2063 9.84775 85.2122 9.85372C85.218 9.8597 85.2213 9.86773 85.2213 9.87609C85.2217 13.7392 85.2206 17.6009 85.2181 21.4611C85.2169 23.515 86.0054 24.7314 88.1571 24.7577C89.176 24.7699 90.2119 24.7711 91.2648 24.7615C91.2943 24.7615 91.3001 24.7496 91.2823 24.7258C90.2431 23.3269 89.8299 21.7373 90.0429 19.9571C90.3767 17.171 92.6337 14.8032 95.4394 14.4894C97.2704 14.2848 98.8573 14.7661 100.2 15.9332C100.579 16.2621 100.909 16.5032 101.27 16.7876C101.273 16.7901 101.276 16.7933 101.278 16.7969C101.28 16.8004 101.281 16.8044 101.282 16.8085C101.282 16.8126 101.282 16.8167 101.281 16.8207C101.28 16.8246 101.278 16.8283 101.275 16.8315Z" fill="white"/>
  <path d="M64.3096 25.1036C64.3074 25.0996 64.3042 25.0962 64.3003 25.094C64.2963 25.0917 64.2918 25.0907 64.2873 25.091C64.2827 25.0912 64.2784 25.0928 64.2747 25.0955C64.271 25.0982 64.2682 25.1018 64.2666 25.1061C63.7179 26.5725 62.4897 27.7883 60.9421 28.1347C60.1769 28.3059 59.4009 28.3865 58.6141 28.3764C58.5074 28.3752 58.4036 28.3514 58.3027 28.305C57.7804 28.0662 57.2743 27.8298 56.7843 27.596C56.7759 27.5919 56.7666 27.5899 56.7572 27.5903C56.7478 27.5906 56.7387 27.5931 56.7305 27.5977C56.7223 27.6023 56.7154 27.6088 56.7102 27.6167C56.7051 27.6246 56.7019 27.6336 56.7009 27.6429C56.4904 29.6449 55.8296 31.462 54.3909 32.8914C54.3836 32.8984 54.3741 32.9027 54.3641 32.9034C54.354 32.9041 54.3441 32.9012 54.3361 32.8952C53.7463 32.4505 52.7972 31.8003 52.989 30.9127C53.0451 30.6508 53.2506 30.3865 53.4026 30.1428C53.5097 29.9712 53.5825 29.7432 53.6168 29.5465C53.8256 28.3301 53.9321 27.1997 53.9363 26.1553C53.9429 24.33 53.9452 22.5045 53.9431 20.6788C53.9382 16.737 57.3112 15.1366 60.7602 15.8249C62.818 16.2359 64.4167 17.8832 64.634 20.0148C64.7125 20.7834 64.7424 21.5526 64.7922 22.3231C64.7976 22.4087 64.8319 22.5761 64.895 22.8254C65.2313 24.159 66.315 24.7566 67.6153 24.7597C70.535 24.7655 73.4544 24.7672 76.3737 24.7647C76.3821 24.7647 76.3902 24.7613 76.3962 24.7554C76.4021 24.7494 76.4055 24.7412 76.4055 24.7328C76.4005 22.3732 75.3118 20.8943 72.878 20.8417C72.0156 20.8229 71.1532 20.8151 70.2909 20.8185C70.2866 20.8186 70.2824 20.8178 70.2785 20.8162C70.2746 20.8147 70.271 20.8123 70.268 20.8094C70.265 20.8064 70.2626 20.8028 70.261 20.7989C70.2593 20.795 70.2585 20.7908 70.2585 20.7865V18.9788C70.2585 18.9586 70.2653 18.9391 70.2778 18.9237L77.2867 10.3322C77.2928 10.3248 77.3014 10.32 77.3109 10.3187C77.3204 10.3174 77.33 10.3198 77.3378 10.3253C78.0652 10.8277 78.982 11.6075 78.6101 12.5972C78.5445 12.7717 78.3913 13.0056 78.1505 13.2987C76.7596 14.9925 75.3698 16.6881 73.9809 18.3856C73.9782 18.3888 73.9765 18.3927 73.9759 18.3969C73.9754 18.4011 73.9759 18.4053 73.9776 18.4091C73.9793 18.413 73.982 18.4163 73.9855 18.4186C73.9889 18.421 73.9929 18.4224 73.9971 18.4226C74.7399 18.4718 75.4603 18.6236 76.1582 18.8779C78.5198 19.7392 79.4403 21.9654 79.4783 24.3237C79.4933 25.2646 79.4966 26.2071 79.4883 27.1512C79.4883 27.1547 79.4876 27.1581 79.4862 27.1613C79.4849 27.1645 79.4829 27.1674 79.4804 27.1698C79.478 27.1723 79.475 27.1742 79.4718 27.1755C79.4685 27.1769 79.465 27.1775 79.4615 27.1775C75.7015 27.1767 71.9384 27.1769 68.1721 27.1782C67.5875 27.1786 67.1734 27.1579 66.9296 27.1162C65.7476 26.9128 64.8742 26.2419 64.3096 25.1036ZM56.7993 24.7071C57.6043 25.0817 58.3992 25.4577 59.184 25.8352C59.2753 25.8791 59.3675 25.8983 59.4605 25.8928C60.9539 25.8076 61.7804 24.5029 61.8813 23.1211C61.9481 22.2036 61.9014 21.2806 61.7411 20.3518C61.573 19.3766 61.1744 18.5623 60.1698 18.2497C59.6396 18.0843 59.0735 18.0945 58.4715 18.2804C57.2782 18.6493 56.7887 19.8451 56.7887 21.0233C56.7891 22.2489 56.7899 23.4727 56.7912 24.6946C56.7912 24.6972 56.792 24.6998 56.7934 24.702C56.7948 24.7042 56.7969 24.706 56.7993 24.7071Z" fill="white"/>
  <path d="M114.754 14.113C115.688 14.1179 116.45 13.3768 116.455 12.4576C116.46 11.5385 115.706 10.7894 114.771 10.7844C113.836 10.7795 113.074 11.5206 113.069 12.4398C113.065 13.359 113.819 14.1081 114.754 14.113Z" fill="white"/>
  <path d="M107.641 24.7622C108.653 24.7722 109.666 24.7693 110.679 24.7534C110.762 24.7522 110.921 24.7286 111.156 24.6827C112.635 24.392 113.228 23.1324 113.226 21.728C113.224 20.5345 113.229 19.3413 113.24 18.1482C113.243 17.7966 113.277 17.5467 113.341 17.3984C113.76 16.43 115.452 16.5829 116.282 16.6079C116.291 16.6083 116.299 16.6117 116.304 16.6177C116.31 16.6236 116.313 16.6316 116.314 16.6399C116.317 18.2438 116.316 19.8457 116.312 21.4455C116.307 23.78 115.418 26.2179 113 26.9458C112.395 27.1281 111.785 27.175 111.077 27.1757C109.935 27.1773 108.794 27.1786 107.652 27.1794C107.644 27.1794 107.636 27.1827 107.63 27.1886C107.624 27.1944 107.62 27.2024 107.62 27.2108C107.563 28.9653 107.2 30.8858 105.63 31.9018C104.188 32.8351 102.525 32.8589 100.87 32.8294C100.861 32.8295 100.853 32.8263 100.847 32.8205C100.84 32.8147 100.836 32.8067 100.835 32.7981C100.743 31.8905 100.918 30.4579 102.146 30.4817C102.55 30.4893 102.907 30.3882 103.216 30.1786C104.266 29.4682 104.527 28.3633 104.527 27.1569C104.529 24.1233 104.519 21.0897 104.553 18.0561C104.556 17.7576 104.588 17.5379 104.649 17.3972C105.069 16.425 106.739 16.6023 107.58 16.5891C107.586 16.5891 107.591 16.5901 107.597 16.5922C107.602 16.5943 107.606 16.5975 107.61 16.6014C107.614 16.6054 107.617 16.6101 107.619 16.6153C107.622 16.6205 107.623 16.6261 107.623 16.6317L107.607 24.7284C107.607 24.7374 107.611 24.746 107.617 24.7523C107.623 24.7587 107.632 24.7622 107.641 24.7622Z" fill="white"/>
  <path d="M94.0356 39.5705C94.0271 39.5792 94.0219 39.5907 94.0211 39.603C94.0203 39.6153 94.0239 39.6275 94.0312 39.6375C94.8911 40.7988 95.7472 41.9601 96.5996 43.1215C96.7147 43.2776 96.7556 43.439 96.7223 43.6056C96.7183 43.6254 96.7072 43.643 96.6912 43.6551C96.3038 43.9433 95.3827 43.843 95.0072 43.8355C94.9973 43.8353 94.9875 43.8329 94.9787 43.8283C94.9698 43.8238 94.9621 43.8172 94.9561 43.8092L92.7016 40.7863C92.6986 40.7823 92.6949 40.7789 92.6906 40.7764C92.6863 40.7738 92.6816 40.7722 92.6767 40.7716C92.6718 40.7709 92.6669 40.7713 92.6621 40.7726C92.6574 40.774 92.653 40.7763 92.6493 40.7794L92.2065 41.1421C92.1983 41.1487 92.1917 41.1571 92.1872 41.1667C92.1826 41.1762 92.1803 41.1866 92.1803 41.1972C92.1807 41.768 92.1809 42.3378 92.1809 42.9066C92.1809 43.1363 92.1531 43.3046 92.0975 43.4115C91.8396 43.9076 90.8039 43.8781 90.297 43.8236C90.2885 43.8227 90.2808 43.8187 90.2751 43.8123C90.2695 43.8059 90.2664 43.7977 90.2665 43.7892C90.2656 40.7508 90.2654 37.7126 90.2658 34.6747C90.2658 34.4425 90.2947 34.2727 90.3524 34.1654C90.6165 33.6756 91.6515 33.7031 92.1504 33.7545C92.1587 33.7551 92.1665 33.7589 92.1722 33.7651C92.1778 33.7712 92.1809 33.7793 92.1809 33.7877V39.3149C92.1808 39.3187 92.1818 39.3224 92.1839 39.3256C92.1859 39.3287 92.1889 39.3312 92.1924 39.3325C92.1959 39.3339 92.1997 39.3342 92.2033 39.3332C92.207 39.3323 92.2102 39.3303 92.2127 39.3274L94.8278 36.4467C94.8347 36.4392 94.8431 36.4331 94.8525 36.4288C94.8619 36.4245 94.8721 36.422 94.8826 36.4216C95.1784 36.4154 96.3076 36.3101 96.5834 36.5801C96.5904 36.587 96.5958 36.5954 96.5994 36.6046C96.6031 36.6139 96.6048 36.6239 96.6046 36.634C96.6017 36.773 96.5637 36.8822 96.4907 36.9616C95.6823 37.8394 94.8639 38.709 94.0356 39.5705Z" fill="white"/>
  <path d="M66.3125 39.3407C66.3692 38.6886 66.2758 37.9364 65.5372 37.729C64.7219 37.4998 63.7653 37.7453 63.5778 38.6924C63.5759 38.702 63.5716 38.711 63.5655 38.7186C63.5593 38.7261 63.5513 38.732 63.5423 38.7356C62.9127 38.9937 62.3783 38.0892 62.1666 37.6363C62.1626 37.6274 62.1607 37.6177 62.1611 37.608C62.1615 37.5983 62.1643 37.5889 62.1691 37.5806C63.277 35.6845 67.5251 35.739 68.1149 38.15C68.1614 38.3404 68.1853 38.6722 68.1865 39.1453C68.189 40.4331 68.1886 41.7212 68.1853 43.0094C68.1828 43.9497 67.0138 43.8858 66.3866 43.8294C66.3769 43.8286 66.3679 43.8242 66.3613 43.817C66.3547 43.8098 66.3511 43.8003 66.3511 43.7905V42.9155C66.3512 42.9107 66.3498 42.906 66.3471 42.902C66.3444 42.898 66.3406 42.8949 66.3361 42.8931C66.3317 42.8914 66.3268 42.891 66.3222 42.8921C66.3175 42.8932 66.3133 42.8957 66.31 42.8992C65.8977 43.3471 65.4089 43.7166 64.816 43.8651C63.8232 44.1138 62.62 43.8676 61.9679 43.0433C61.4672 42.4106 61.3688 41.4585 61.7593 40.7432C62.1921 39.9489 63.254 39.5844 64.1141 39.5086C64.5546 39.4697 65.276 39.4249 66.2783 39.3739C66.2871 39.3734 66.2954 39.3697 66.3016 39.3636C66.3079 39.3575 66.3118 39.3494 66.3125 39.3407ZM63.533 41.1673C63.1543 41.7811 63.6046 42.467 64.2542 42.5823C65.0283 42.7188 65.8878 42.3912 66.206 41.6333C66.335 41.3257 66.3368 40.9317 66.3163 40.5891C66.3156 40.5784 66.3108 40.5684 66.3029 40.5612C66.295 40.5541 66.2846 40.5504 66.2739 40.5509C65.7582 40.5772 65.2534 40.6068 64.7593 40.6398C64.3028 40.6705 63.7802 40.7657 63.533 41.1673Z" fill="white"/>
  <path d="M78.819 37.9863C78.4671 37.6193 77.7434 37.5973 77.2975 37.7195C76.8059 37.8548 76.5092 38.1792 76.4075 38.6929C76.4056 38.7023 76.4014 38.7111 76.3953 38.7185C76.3893 38.726 76.3815 38.7318 76.3726 38.7355C75.7411 38.9942 75.2186 38.0947 74.995 37.6449C74.9895 37.6336 74.9869 37.6211 74.9876 37.6084C74.9883 37.5957 74.9921 37.5832 74.9988 37.5723C76.2418 35.5735 81.005 35.7702 81.0143 38.6597C81.0189 40.0377 81.0199 41.4158 81.0174 42.7938C81.0166 43.0698 80.9944 43.2607 80.9508 43.3663C80.7253 43.9088 79.7332 43.8762 79.2157 43.8292C79.2056 43.8282 79.1962 43.8234 79.1894 43.8159C79.1826 43.8083 79.1789 43.7986 79.1789 43.7885L79.1852 42.9297C79.1852 42.9234 79.1833 42.9171 79.1797 42.9118C79.1761 42.9066 79.1711 42.9025 79.1652 42.9001C79.1593 42.8978 79.1528 42.8972 79.1466 42.8986C79.1404 42.9 79.1347 42.9032 79.1304 42.9078C78.2967 43.8177 77.3182 44.1401 76.1951 43.875C75.0785 43.6113 74.3093 42.8251 74.3598 41.6181C74.4196 40.1762 75.7922 39.588 77.0328 39.499C77.7258 39.4498 78.42 39.4086 79.1154 39.3756C79.1238 39.3753 79.1318 39.3718 79.1377 39.3657C79.1437 39.3597 79.147 39.3515 79.1472 39.3431C79.1603 38.847 79.1814 38.3653 78.819 37.9863ZM76.2967 41.9413C76.4972 42.6892 77.5447 42.6999 78.1065 42.4932C79.0164 42.1587 79.1752 41.474 79.1472 40.5821C79.147 40.5779 79.1461 40.5739 79.1444 40.5702C79.1427 40.5664 79.1403 40.5631 79.1374 40.5603C79.1344 40.5575 79.131 40.5553 79.1272 40.5539C79.1234 40.5525 79.1194 40.5518 79.1154 40.552C78.601 40.5766 78.0868 40.6017 77.5728 40.6272C76.8254 40.6647 76.0469 41.0124 76.2967 41.9413Z" fill="white"/>
  <path d="M86.932 39.3406C86.9453 39.0187 86.9405 38.7852 86.9177 38.6403C86.7713 37.7208 85.8664 37.5216 85.0823 37.7202C84.5924 37.8438 84.2957 38.168 84.1923 38.693C84.1904 38.7024 84.1862 38.7112 84.1802 38.7186C84.1741 38.726 84.1663 38.7318 84.1575 38.7355C83.5253 38.9949 83.0047 38.0935 82.7798 37.6456C82.7729 37.6318 82.7697 37.6163 82.7707 37.6008C82.7717 37.5853 82.7768 37.5703 82.7854 37.5573C83.6356 36.3083 85.3526 36.0722 86.7184 36.3678C87.6601 36.572 88.4796 37.1602 88.7263 38.1367C88.7753 38.3301 88.8002 38.66 88.801 39.1264C88.8035 40.3195 88.8043 41.5125 88.8035 42.7056C88.8031 43.0338 88.7786 43.2545 88.73 43.3677C88.4915 43.9195 87.5143 43.8694 87.0018 43.8306C86.9915 43.8299 86.9819 43.8253 86.9749 43.8176C86.968 43.8099 86.9642 43.7997 86.9644 43.7892L86.9688 42.9298C86.9688 42.9235 86.9669 42.9173 86.9634 42.912C86.9599 42.9068 86.9548 42.9027 86.9489 42.9004C86.9431 42.8981 86.9366 42.8976 86.9305 42.8991C86.9244 42.9005 86.9188 42.9038 86.9146 42.9085C86.0809 43.8184 85.102 44.1404 83.9781 43.8744C82.8315 43.6026 82.0568 42.7795 82.1502 41.5367C82.2542 40.1505 83.6007 39.5912 84.802 39.5047C85.5004 39.4546 86.1996 39.411 86.8996 39.3738C86.9081 39.3735 86.9162 39.3699 86.9222 39.3638C86.9282 39.3576 86.9317 39.3493 86.932 39.3406ZM84.5859 40.7995C83.7227 41.1596 83.8878 42.351 84.7908 42.5615C85.6304 42.7563 86.5614 42.3805 86.8554 41.5349C86.9544 41.2505 86.9413 40.8953 86.932 40.5815C86.9318 40.5774 86.9309 40.5734 86.9291 40.5697C86.9274 40.566 86.925 40.5627 86.922 40.5599C86.919 40.5572 86.9154 40.5551 86.9116 40.5537C86.9077 40.5524 86.9037 40.5518 86.8996 40.5521C86.3802 40.5771 85.861 40.6028 85.342 40.6291C85.0788 40.6425 84.8268 40.6993 84.5859 40.7995Z" fill="white"/>
  <path d="M100.438 43.9064C97.9563 43.4616 97.1933 40.7932 97.8442 38.6785C98.3704 36.9666 99.8321 36.1736 101.568 36.2626C103.283 36.3503 104.524 37.3794 104.872 39.1101C105.476 42.1093 103.581 44.4701 100.438 43.9064ZM99.7076 41.2674C100.181 42.9029 102.095 43.0495 102.783 41.5555C103.325 40.3786 103.186 37.754 101.381 37.6826C99.5176 37.6093 99.3414 40.0027 99.7076 41.2674Z" fill="white"/>
  <path d="M55.4535 37.3864C56.2426 36.4386 57.1183 36.1186 58.3613 36.3353C59.8822 36.6009 60.401 37.8386 60.3711 39.2348C60.3368 40.8133 60.373 42.2496 60.3406 43.1817C60.3144 43.9452 58.9754 43.855 58.4896 43.8306C58.4812 43.8301 58.4733 43.8265 58.4675 43.8204C58.4617 43.8144 58.4585 43.8064 58.4585 43.798C58.4585 42.3415 58.4573 40.8858 58.4548 39.4309C58.4544 39.0404 58.423 38.7613 58.3607 38.5934C58.1328 37.982 57.5617 37.7478 56.9165 37.7879C56.024 37.8424 55.4398 38.5095 55.438 39.4052C55.4355 40.6292 55.4847 41.8819 55.4199 43.1021C55.3744 43.9584 54.1861 43.8701 53.625 43.8325C53.613 43.8317 53.6019 43.8263 53.5938 43.8174C53.5856 43.8086 53.5812 43.7969 53.5814 43.7849C53.6038 41.6748 53.6032 39.5998 53.5795 37.5599C53.5754 37.2287 53.6011 37.002 53.6568 36.8796C53.9077 36.329 54.8725 36.3904 55.3912 36.4217C55.3986 36.422 55.4056 36.4252 55.4107 36.4306C55.4158 36.436 55.4187 36.4431 55.4186 36.4505L55.4274 37.377C55.4275 37.38 55.4285 37.3829 55.4302 37.3853C55.432 37.3877 55.4345 37.3896 55.4373 37.3906C55.4401 37.3916 55.4431 37.3917 55.446 37.391C55.4489 37.3902 55.4515 37.3886 55.4535 37.3864Z" fill="white"/>
  <path d="M108.063 37.2567C108.063 37.2607 108.064 37.2645 108.067 37.2678C108.069 37.271 108.072 37.2735 108.076 37.2748C108.08 37.2762 108.084 37.2764 108.088 37.2753C108.092 37.2743 108.095 37.2722 108.098 37.2692C108.748 36.4641 109.554 36.1432 110.516 36.3064C111.3 36.4392 111.85 36.8564 112.157 37.5824C112.158 37.5854 112.16 37.588 112.163 37.5899C112.166 37.5919 112.169 37.5932 112.172 37.5936C112.175 37.5941 112.178 37.5937 112.181 37.5925C112.184 37.5913 112.187 37.5893 112.189 37.5868C112.541 37.1483 112.728 36.8169 113.263 36.557C114.661 35.8786 116.5 36.406 116.91 38.0071C116.968 38.2363 116.998 38.5806 116.998 39.04C117 40.294 117 41.5482 116.999 42.8027C116.999 43.0983 116.968 43.305 116.906 43.4228C116.633 43.9364 115.624 43.8832 115.135 43.8456C115.126 43.8451 115.118 43.8413 115.113 43.8351C115.107 43.8288 115.104 43.8204 115.104 43.8118C115.097 42.3402 115.097 40.8688 115.103 39.3976C115.105 39.0281 115.076 38.7543 115.018 38.5764C114.631 37.3882 112.945 37.5711 112.591 38.6917C112.542 38.8437 112.516 39.0949 112.512 39.4452C112.496 40.599 112.493 41.7539 112.502 42.9098C112.504 43.1282 112.482 43.2856 112.436 43.3821C112.168 43.9433 111.19 43.8462 110.697 43.8375C110.688 43.8373 110.679 43.8337 110.673 43.8273C110.667 43.821 110.664 43.8125 110.664 43.8036C110.664 42.2005 110.662 40.6049 110.66 39.0168C110.658 37.489 108.575 37.3512 108.153 38.7124C108.085 38.9316 108.064 39.2511 108.064 39.4928C108.062 40.6963 108.061 41.8998 108.062 43.1033C108.064 43.9552 106.758 43.8569 106.258 43.8306C106.25 43.8301 106.242 43.8263 106.236 43.8201C106.23 43.8138 106.226 43.8054 106.226 43.7967C106.225 41.6566 106.224 39.5169 106.225 37.3776C106.225 37.1374 106.247 36.97 106.29 36.8752C106.548 36.3083 107.544 36.4117 108.032 36.4179C108.04 36.4179 108.048 36.4211 108.054 36.4267C108.059 36.4324 108.062 36.44 108.062 36.448L108.063 37.2567Z" fill="white"/>
  <path d="M71.489 37.1208C71.4891 37.1254 71.4905 37.1299 71.493 37.1337C71.4956 37.1375 71.4992 37.1405 71.5034 37.1423C71.5077 37.1441 71.5123 37.1446 71.5168 37.1438C71.5213 37.143 71.5255 37.1409 71.5288 37.1377C72.1871 36.4894 72.7975 36.21 73.7342 36.4537C73.7398 36.4554 73.7448 36.4587 73.7484 36.4633C73.7521 36.4679 73.7543 36.4735 73.7547 36.4794C73.7871 36.9974 73.8712 37.9514 73.0721 37.9464C72.6013 37.9432 71.598 37.984 71.5394 38.6172C71.4342 39.7516 71.4846 41.0589 71.4902 42.8873C71.4911 43.1015 71.4637 43.2619 71.408 43.3684C71.1377 43.8895 70.1954 43.8388 69.6854 43.7987C69.6768 43.7982 69.6687 43.7944 69.6628 43.7881C69.6569 43.7819 69.6536 43.7735 69.6536 43.7649C69.6511 41.6093 69.6507 39.4539 69.6524 37.2987C69.6524 37.1141 69.6636 36.9865 69.686 36.916C69.8753 36.3096 70.8556 36.3604 71.4597 36.3898C71.4676 36.3901 71.475 36.3935 71.4805 36.3992C71.4859 36.405 71.489 36.4126 71.489 36.4205V37.1208Z" fill="white"/>
</svg>