<svg width="190" height="131" viewBox="0 0 190 131" fill="none" xmlns="http://www.w3.org/2000/svg">
  <path d="M16.1704 55.2552C16.1662 55.2536 16.1617 55.2534 16.1574 55.2546C16.1531 55.2558 16.1493 55.2583 16.1465 55.2618C16.1437 55.2653 16.142 55.2696 16.1418 55.274C16.1416 55.2785 16.1427 55.2829 16.1451 55.2867C17.586 57.3976 19.3613 59.1721 21.471 60.6102C21.4748 60.6131 21.4774 60.6173 21.4784 60.6219C21.4795 60.6266 21.4788 60.6314 21.4767 60.6357C21.4745 60.6399 21.4709 60.6432 21.4666 60.6451C21.4622 60.6469 21.4573 60.6472 21.4528 60.6458C18.8967 59.6696 16.347 58.6836 13.8038 57.6878C12.994 57.3708 12.373 57.1083 11.9408 56.9003C1.45691 51.8461 -2.85963 39.3283 1.97373 28.8113C6.32769 19.3389 17.204 14.5011 27.161 17.5373C27.5979 17.6707 28.2334 17.8967 29.0674 18.215C31.3201 19.076 33.5714 19.9442 35.8214 20.8194C35.8295 20.8226 35.8381 20.8242 35.8468 20.824C35.8555 20.8238 35.8641 20.8218 35.8721 20.8182C35.8801 20.8146 35.8874 20.8095 35.8934 20.8031C35.8995 20.7966 35.9042 20.7891 35.9074 20.7808C36.7616 18.5365 37.62 16.2922 38.4823 14.0479C38.7932 13.2383 39.0527 12.6131 39.2611 12.1721C46.014 -2.1158 65.3728 -4.33707 75.0607 8.23964C79.172 13.5764 80.4918 20.7107 78.5499 27.2393C78.4124 27.7034 78.1882 28.3415 77.8774 29.1537C73.103 41.6488 68.3219 54.1415 63.5341 66.6319C63.2044 67.4915 62.934 68.1113 62.723 68.4914C60.8792 71.8101 57.0754 73.5639 53.3607 72.8374C52.888 72.7446 52.2465 72.542 51.436 72.2297C44.9147 69.7179 38.3923 67.2009 31.869 64.6788C31.8655 64.678 31.8627 64.6759 31.861 64.673C31.8592 64.6701 31.8588 64.6666 31.8597 64.6632C31.8606 64.6598 31.8628 64.6568 31.8658 64.6548C31.8689 64.6528 31.8725 64.6519 31.876 64.6524C48.8064 66.9631 64.2147 54.0379 66.1889 37.2727C67.3985 27.0046 62.9788 15.8373 53.2757 11.2342C53.2676 11.2303 53.2585 11.2293 53.2498 11.2312C53.2411 11.233 53.2332 11.2378 53.2275 11.2446C53.2217 11.2515 53.2183 11.26 53.2179 11.269C53.2175 11.2779 53.22 11.2868 53.2251 11.2941C60.1541 21.5795 60.3584 34.5951 53.4092 44.9231C45.9594 55.9939 32.2341 60.8511 19.5615 56.5487C18.4099 56.1579 17.2795 55.7267 16.1704 55.2552ZM50.2244 41.3819C50.2244 40.2138 49.9954 39.0571 49.5504 37.9778C49.1055 36.8986 48.4534 35.918 47.6312 35.092C46.8091 34.266 45.8331 33.6108 44.7589 33.1638C43.6848 32.7167 42.5335 32.4867 41.3708 32.4867C39.0227 32.4867 36.7708 33.4238 35.1104 35.092C33.45 36.7602 32.5172 39.0227 32.5172 41.3819C32.5172 43.7411 33.45 46.0036 35.1104 47.6718C36.7708 49.34 39.0227 50.2772 41.3708 50.2772C42.5335 50.2772 43.6848 50.0471 44.7589 49.6C45.8331 49.153 46.8091 48.4978 47.6312 47.6718C48.4534 46.8458 49.1055 45.8652 49.5504 44.786C49.9954 43.7067 50.2244 42.55 50.2244 41.3819Z" fill="#a0b46f"/>
  <path d="M164.463 27.3043C163.625 28.356 162.435 29.7807 160.928 29.2492C160.741 29.1835 160.416 28.9677 159.953 28.6019C159.649 28.3615 159.225 28.1162 158.681 27.8663C154.139 25.7832 150.476 30.3466 150.964 34.5504C151.24 36.9383 152.78 39.1006 155.017 40.065C155.186 40.1374 155.375 40.1737 155.585 40.1737C157.825 40.1757 160.066 40.1764 162.307 40.1757C162.887 40.1757 163.275 40.2076 163.472 40.2712C164.903 40.7305 164.992 42.8319 164.892 44.036C164.891 44.0498 164.884 44.0628 164.874 44.0722C164.864 44.0816 164.851 44.0869 164.837 44.0868C157.134 44.0895 149.432 44.0892 141.732 44.0858C136.07 44.0828 133.423 40.3779 133.425 35.0371C133.427 29.9443 133.433 24.8507 133.443 19.7565C133.443 19.2748 133.346 18.2831 133.472 17.5992C133.834 15.6411 136.936 15.9419 138.342 15.9693C138.355 15.9696 138.368 15.9752 138.378 15.9849C138.387 15.9946 138.393 16.0076 138.393 16.0212C138.393 22.288 138.391 28.5525 138.387 34.8146C138.385 38.1465 139.666 40.1198 143.16 40.1625C144.815 40.1821 146.497 40.1842 148.207 40.1686C148.255 40.1686 148.264 40.1493 148.235 40.1107C146.548 37.8413 145.877 35.2627 146.223 32.3748C146.765 27.8551 150.43 24.0141 154.986 23.505C157.96 23.1731 160.537 23.9538 162.717 25.8472C163.333 26.3807 163.869 26.7719 164.455 27.2332C164.46 27.2373 164.464 27.2424 164.468 27.2482C164.471 27.254 164.473 27.2604 164.474 27.267C164.474 27.2737 164.474 27.2804 164.472 27.2868C164.47 27.2932 164.467 27.2992 164.463 27.3043Z" fill="#a0b46f"/>
  <path d="M104.435 40.7236C104.432 40.717 104.427 40.7116 104.42 40.708C104.414 40.7044 104.407 40.7027 104.399 40.7031C104.392 40.7035 104.385 40.7061 104.379 40.7104C104.373 40.7148 104.368 40.7207 104.366 40.7276C103.475 43.1064 101.48 45.0787 98.9669 45.6406C97.7242 45.9184 96.464 46.0491 95.1863 46.0329C95.0131 46.0308 94.8445 45.9922 94.6807 45.917C93.8324 45.5296 93.0105 45.1461 92.2149 44.7668C92.2012 44.7602 92.1861 44.757 92.1709 44.7575C92.1557 44.758 92.1408 44.7621 92.1275 44.7696C92.1142 44.7771 92.1029 44.7876 92.0946 44.8004C92.0862 44.8132 92.081 44.8278 92.0794 44.843C91.7375 48.0905 90.6645 51.0384 88.3282 53.3572C88.3163 53.3686 88.3009 53.3754 88.2846 53.3766C88.2683 53.3777 88.2522 53.373 88.2392 53.3633C87.2814 52.6418 85.7401 51.5871 86.0516 50.1472C86.1426 49.7225 86.4764 49.2937 86.7232 48.8984C86.8971 48.62 87.0154 48.2501 87.0711 47.931C87.4102 45.9577 87.5832 44.1239 87.5899 42.4297C87.6007 39.4686 87.6044 36.5073 87.601 33.5456C87.5929 27.1511 93.0705 24.5548 98.6715 25.6716C102.013 26.3381 104.609 29.0106 104.962 32.4685C105.09 33.7153 105.138 34.9631 105.219 36.2129C105.228 36.3518 105.284 36.6235 105.386 37.0279C105.932 39.1912 107.692 40.1606 109.804 40.1657C114.545 40.1752 119.286 40.1779 124.027 40.1738C124.04 40.1738 124.054 40.1684 124.063 40.1587C124.073 40.1489 124.078 40.1358 124.078 40.122C124.07 36.2942 122.302 33.8951 118.35 33.8098C116.949 33.7793 115.549 33.7668 114.149 33.7722C114.142 33.7723 114.135 33.7711 114.129 33.7685C114.122 33.766 114.116 33.7622 114.111 33.7574C114.107 33.7526 114.103 33.7468 114.1 33.7404C114.097 33.7341 114.096 33.7273 114.096 33.7204V30.7878C114.096 30.755 114.107 30.7234 114.127 30.6984L125.509 16.7611C125.519 16.7491 125.533 16.7413 125.549 16.7392C125.564 16.7371 125.58 16.7409 125.592 16.7499C126.774 17.5648 128.262 18.8299 127.659 20.4354C127.552 20.7186 127.303 21.0979 126.912 21.5735C124.653 24.3211 122.396 27.0718 120.141 29.8255C120.137 29.8308 120.134 29.8371 120.133 29.8438C120.132 29.8506 120.133 29.8575 120.136 29.8637C120.138 29.8699 120.143 29.8753 120.148 29.8791C120.154 29.883 120.161 29.8852 120.167 29.8855C121.374 29.9654 122.543 30.2117 123.677 30.6242C127.512 32.0214 129.007 35.6327 129.068 39.4585C129.093 40.9847 129.098 42.5137 129.085 44.0453C129.085 44.0509 129.083 44.0565 129.081 44.0616C129.079 44.0668 129.076 44.0715 129.072 44.0755C129.068 44.0795 129.063 44.0826 129.058 44.0847C129.052 44.0869 129.047 44.088 129.041 44.088C122.935 44.0866 116.824 44.087 110.708 44.089C109.759 44.0897 109.086 44.0562 108.69 43.9884C106.771 43.6585 105.352 42.5702 104.435 40.7236ZM92.2392 40.0804C93.5466 40.688 94.8374 41.298 96.1117 41.9104C96.2601 41.9815 96.4098 42.0127 96.5608 42.0039C98.9861 41.8657 100.328 39.7491 100.492 37.5075C100.601 36.0192 100.525 34.5218 100.264 33.0152C99.9914 31.433 99.3441 30.1121 97.7128 29.605C96.8517 29.3368 95.9324 29.3534 94.9547 29.6548C93.0169 30.2533 92.222 32.1931 92.222 34.1045C92.2227 36.0927 92.224 38.0779 92.226 40.06C92.2261 40.0643 92.2273 40.0685 92.2296 40.0721C92.232 40.0757 92.2353 40.0786 92.2392 40.0804Z" fill="#a0b46f"/>
  <path d="M186.353 22.8945C187.871 22.9025 189.108 21.7002 189.116 20.2091C189.123 18.718 187.899 17.5028 186.381 17.4948C184.863 17.4868 183.626 18.6891 183.618 20.1802C183.61 21.6713 184.834 22.8865 186.353 22.8945Z" fill="#a0b46f"/>
  <path d="M174.8 40.1698C176.445 40.186 178.089 40.1813 179.734 40.1555C179.87 40.1535 180.128 40.1152 180.508 40.0407C182.91 39.5692 183.874 37.5258 183.87 35.2476C183.867 33.3115 183.874 31.3758 183.893 29.4404C183.899 28.87 183.953 28.4646 184.057 28.2241C184.737 26.6531 187.486 26.9011 188.834 26.9417C188.847 26.9422 188.86 26.9479 188.869 26.9575C188.879 26.9672 188.884 26.9801 188.884 26.9935C188.889 29.5955 188.889 32.1941 188.882 34.7893C188.874 38.5765 187.43 42.5313 183.503 43.712C182.521 44.0077 181.53 44.0839 180.381 44.0849C178.527 44.0877 176.672 44.0897 174.818 44.091C174.805 44.091 174.792 44.0964 174.782 44.1059C174.772 44.1154 174.767 44.1283 174.767 44.1418C174.675 46.988 174.084 50.1035 171.534 51.7517C169.194 53.2657 166.493 53.3043 163.804 53.2566C163.791 53.2566 163.777 53.2515 163.767 53.2421C163.757 53.2327 163.75 53.2198 163.749 53.2058C163.599 51.7334 163.882 49.4095 165.877 49.4481C166.533 49.4603 167.113 49.2964 167.615 48.9563C169.32 47.804 169.743 46.0115 169.744 44.0545C169.747 39.1333 169.73 34.2122 169.786 29.291C169.791 28.8067 169.843 28.4503 169.941 28.2221C170.624 26.645 173.337 26.9326 174.702 26.9112C174.711 26.9111 174.72 26.9128 174.728 26.9162C174.737 26.9196 174.744 26.9247 174.751 26.9312C174.757 26.9376 174.762 26.9453 174.766 26.9537C174.769 26.9622 174.771 26.9712 174.771 26.9803L174.745 40.1149C174.745 40.1295 174.751 40.1434 174.761 40.1537C174.772 40.164 174.786 40.1698 174.8 40.1698Z" fill="#a0b46f"/>
  <path d="M152.708 64.1922C152.694 64.2063 152.686 64.2251 152.685 64.245C152.683 64.2649 152.689 64.2848 152.701 64.3009C154.097 66.1848 155.488 68.0688 156.872 69.9527C157.059 70.206 157.125 70.4679 157.071 70.7381C157.065 70.7702 157.047 70.7988 157.021 70.8184C156.392 71.2858 154.896 71.1233 154.286 71.1111C154.27 71.1107 154.254 71.1067 154.24 71.0993C154.225 71.092 154.213 71.0814 154.203 71.0684L150.542 66.1645C150.537 66.158 150.531 66.1525 150.524 66.1484C150.517 66.1443 150.509 66.1417 150.501 66.1406C150.493 66.1396 150.485 66.1401 150.478 66.1423C150.47 66.1445 150.463 66.1483 150.457 66.1533L149.738 66.7417C149.724 66.7525 149.714 66.7661 149.706 66.7816C149.699 66.797 149.695 66.814 149.695 66.8311C149.696 67.7571 149.696 68.6815 149.696 69.6041C149.696 69.9767 149.651 70.2497 149.561 70.4231C149.142 71.2279 147.46 71.1802 146.637 71.0918C146.623 71.0903 146.611 71.0837 146.601 71.0734C146.592 71.0631 146.587 71.0497 146.587 71.0359C146.586 66.1069 146.586 61.1783 146.586 56.2501C146.586 55.8734 146.633 55.5981 146.727 55.424C147.156 54.6294 148.837 54.6741 149.647 54.7574C149.66 54.7584 149.673 54.7645 149.682 54.7745C149.691 54.7845 149.696 54.7976 149.696 54.8112V63.7776C149.696 63.7837 149.698 63.7898 149.701 63.7949C149.704 63.8 149.709 63.804 149.715 63.8062C149.721 63.8084 149.727 63.8088 149.733 63.8074C149.739 63.8059 149.744 63.8026 149.748 63.7979L153.995 59.1247C154.006 59.1125 154.019 59.1026 154.035 59.0956C154.05 59.0887 154.067 59.0847 154.084 59.0841C154.564 59.0739 156.398 58.9032 156.846 59.3412C156.857 59.3524 156.866 59.3659 156.872 59.3809C156.878 59.396 156.88 59.4122 156.88 59.4286C156.875 59.6541 156.814 59.8313 156.695 59.96C155.382 61.3839 154.053 62.7947 152.708 64.1922Z" fill="#a0b46f"/>
  <path d="M107.687 63.8193C107.779 62.7615 107.627 61.5411 106.428 61.2048C105.104 60.8329 103.55 61.2312 103.246 62.7676C103.243 62.7832 103.236 62.7978 103.226 62.8101C103.216 62.8223 103.203 62.8318 103.188 62.8377C102.166 63.2564 101.298 61.7891 100.954 61.0544C100.948 61.04 100.944 61.0242 100.945 61.0085C100.946 60.9927 100.95 60.9775 100.958 60.964C102.757 57.8881 109.656 57.9765 110.614 61.8876C110.689 62.1965 110.728 62.7348 110.73 63.5023C110.734 65.5915 110.733 67.681 110.728 69.7708C110.724 71.296 108.826 71.1924 107.807 71.1009C107.791 71.0997 107.777 71.0925 107.766 71.0808C107.755 71.0691 107.749 71.0538 107.75 71.0379V69.6184C107.75 69.6106 107.747 69.603 107.743 69.5965C107.739 69.59 107.732 69.585 107.725 69.5822C107.718 69.5793 107.71 69.5787 107.702 69.5805C107.695 69.5822 107.688 69.5862 107.683 69.592C107.013 70.3185 106.219 70.918 105.256 71.1589C103.644 71.5623 101.69 71.1629 100.631 69.8257C99.8183 68.7994 99.6585 67.2549 100.293 66.0944C100.996 64.806 102.72 64.2146 104.117 64.0916C104.832 64.0286 106.004 63.9558 107.631 63.8732C107.645 63.8723 107.659 63.8663 107.669 63.8564C107.679 63.8466 107.686 63.8334 107.687 63.8193ZM103.173 66.7824C102.558 67.7782 103.289 68.8908 104.344 69.0778C105.601 69.2993 106.997 68.7679 107.514 67.5384C107.723 67.0395 107.726 66.4003 107.693 65.8445C107.692 65.8271 107.684 65.8109 107.671 65.7993C107.658 65.7877 107.641 65.7817 107.624 65.7825C106.787 65.8252 105.967 65.8733 105.164 65.9268C104.423 65.9766 103.575 66.131 103.173 66.7824Z" fill="#a0b46f"/>
  <path d="M127.996 61.6223C127.425 61.0269 126.25 60.9913 125.525 61.1895C124.727 61.409 124.245 61.9353 124.08 62.7685C124.077 62.7838 124.07 62.7981 124.06 62.8102C124.051 62.8222 124.038 62.8316 124.024 62.8376C122.998 63.2573 122.149 61.7981 121.786 61.0685C121.777 61.0502 121.773 61.0298 121.774 61.0092C121.775 60.9886 121.782 60.9685 121.792 60.9507C123.811 57.7082 131.546 58.0273 131.561 62.7147C131.569 64.9502 131.57 67.1857 131.566 69.4212C131.565 69.869 131.529 70.1785 131.458 70.3499C131.092 71.2299 129.481 71.1771 128.64 71.1009C128.624 71.0991 128.609 71.0914 128.598 71.0792C128.587 71.067 128.581 71.0512 128.581 71.0348L128.591 69.6417C128.591 69.6313 128.588 69.6212 128.582 69.6126C128.576 69.6041 128.568 69.5975 128.558 69.5936C128.549 69.5898 128.538 69.5889 128.528 69.5912C128.518 69.5934 128.509 69.5986 128.502 69.6061C127.148 71.0822 125.559 71.6052 123.735 71.175C121.922 70.7472 120.673 69.472 120.755 67.5139C120.852 65.1747 123.081 64.2206 125.096 64.0763C126.221 63.9964 127.348 63.9296 128.478 63.8761C128.491 63.8756 128.504 63.8699 128.514 63.86C128.523 63.8502 128.529 63.8371 128.529 63.8233C128.55 63.0185 128.585 62.2371 127.996 61.6223ZM123.9 68.0382C124.226 69.2515 125.927 69.2688 126.839 68.9334C128.317 68.3908 128.575 67.2802 128.529 65.8332C128.529 65.8265 128.527 65.82 128.525 65.8139C128.522 65.8079 128.518 65.8024 128.513 65.7979C128.508 65.7934 128.503 65.7898 128.497 65.7875C128.491 65.7852 128.484 65.7842 128.478 65.7844C127.642 65.8244 126.807 65.865 125.972 65.9064C124.759 65.9673 123.495 66.5313 123.9 68.0382Z" fill="#a0b46f"/>
  <path d="M141.171 63.8193C141.193 63.297 141.185 62.9183 141.148 62.6832C140.91 61.1915 139.441 60.8684 138.167 61.1905C137.372 61.391 136.89 61.9171 136.722 62.7686C136.719 62.7839 136.712 62.7982 136.702 62.8102C136.693 62.8222 136.68 62.8317 136.666 62.8377C135.639 63.2584 134.794 61.7961 134.428 61.0696C134.417 61.0472 134.412 61.022 134.414 60.9969C134.415 60.9717 134.423 60.9473 134.438 60.9263C135.818 58.9001 138.606 58.5171 140.824 58.9967C142.354 59.3279 143.685 60.2821 144.085 61.8662C144.165 62.1799 144.205 62.7151 144.206 63.4717C144.21 65.4071 144.212 67.3425 144.21 69.2779C144.21 69.8104 144.17 70.1684 144.091 70.352C143.704 71.2472 142.117 71.1659 141.285 71.1029C141.268 71.1019 141.252 71.0943 141.241 71.0818C141.23 71.0693 141.224 71.0529 141.224 71.0358L141.231 69.6417C141.231 69.6314 141.228 69.6214 141.222 69.6128C141.216 69.6043 141.208 69.5978 141.199 69.594C141.189 69.5903 141.179 69.5895 141.169 69.5919C141.159 69.5942 141.15 69.5996 141.143 69.6072C139.789 71.0833 138.2 71.6056 136.374 71.174C134.512 70.733 133.254 69.3978 133.406 67.3818C133.575 65.1331 135.761 64.2257 137.712 64.0855C138.846 64.0042 139.982 63.9334 141.119 63.8731C141.132 63.8726 141.146 63.8668 141.155 63.8568C141.165 63.8468 141.171 63.8334 141.171 63.8193ZM137.361 66.1858C135.96 66.7701 136.228 68.7028 137.694 69.0442C139.057 69.3602 140.569 68.7506 141.047 67.3788C141.208 66.9175 141.186 66.3413 141.171 65.8322C141.171 65.8256 141.169 65.8191 141.167 65.8131C141.164 65.8071 141.16 65.8017 141.155 65.7972C141.15 65.7928 141.144 65.7893 141.138 65.7872C141.132 65.785 141.125 65.7841 141.119 65.7845C140.275 65.8251 139.432 65.8668 138.589 65.9094C138.162 65.9311 137.752 66.0233 137.361 66.1858Z" fill="#a0b46f"/>
  <path d="M163.105 71.2259C159.074 70.5044 157.835 66.1757 158.892 62.7452C159.747 59.9681 162.121 58.6817 164.939 58.826C167.725 58.9682 169.74 60.6377 170.306 63.4453C171.286 68.3106 168.208 72.1404 163.105 71.2259ZM161.918 66.9449C162.687 69.598 165.795 69.8358 166.912 67.4123C167.792 65.503 167.567 61.2454 164.636 61.1296C161.61 61.0107 161.324 64.8933 161.918 66.9449Z" fill="#a0b46f"/>
  <path d="M90.0527 60.6489C91.3341 59.1115 92.7561 58.5923 94.7748 58.9438C97.2446 59.3747 98.0871 61.3826 98.0385 63.6475C97.9829 66.2082 98.0416 68.5382 97.989 70.0502C97.9465 71.2889 95.772 71.1425 94.9832 71.1029C94.9695 71.1021 94.9566 71.0962 94.9472 71.0864C94.9378 71.0766 94.9326 71.0636 94.9326 71.0501C94.9326 68.6872 94.9306 66.3257 94.9265 63.9656C94.9259 63.3322 94.875 62.8793 94.7738 62.607C94.4037 61.6153 93.4762 61.2352 92.4284 61.3003C90.9791 61.3887 90.0305 62.4708 90.0274 63.9239C90.0234 65.9094 90.1033 67.9417 89.9981 69.9211C89.9243 71.3102 87.9946 71.1669 87.0833 71.106C87.0639 71.1047 87.0458 71.0959 87.0326 71.0816C87.0194 71.0672 87.0122 71.0483 87.0125 71.0287C87.0489 67.6057 87.0479 64.2396 87.0095 60.9304C87.0027 60.3932 87.0446 60.0253 87.1349 59.8269C87.5425 58.9337 89.1091 59.0333 89.9516 59.0841C89.9636 59.0846 89.9749 59.0897 89.9832 59.0985C89.9915 59.1072 89.9961 59.1188 89.9961 59.1308L90.0102 60.6337C90.0104 60.6386 90.012 60.6433 90.0149 60.6472C90.0178 60.6511 90.0218 60.6541 90.0263 60.6558C90.0309 60.6574 90.0359 60.6576 90.0406 60.6564C90.0453 60.6552 90.0495 60.6526 90.0527 60.6489Z" fill="#a0b46f"/>
  <path d="M175.487 60.4385C175.487 60.445 175.49 60.4513 175.493 60.4566C175.497 60.4618 175.503 60.4658 175.509 60.468C175.515 60.4702 175.521 60.4705 175.528 60.4689C175.534 60.4672 175.54 60.4638 175.544 60.4589C176.599 59.1528 177.908 58.6322 179.471 58.8971C180.743 59.1125 181.637 59.7892 182.136 60.9669C182.138 60.9718 182.141 60.976 182.145 60.9792C182.15 60.9824 182.155 60.9845 182.16 60.9852C182.165 60.9859 182.17 60.9852 182.175 60.9833C182.18 60.9813 182.184 60.9782 182.188 60.974C182.76 60.2628 183.063 59.7252 183.932 59.3035C186.202 58.203 189.188 59.0586 189.854 61.6559C189.949 62.0278 189.997 62.5863 189.997 63.3315C190 65.3658 190.001 67.4004 189.999 69.4354C189.999 69.915 189.949 70.2503 189.848 70.4414C189.404 71.2746 187.765 71.1882 186.971 71.1273C186.958 71.1265 186.945 71.1204 186.935 71.1102C186.926 71.1 186.921 71.0864 186.921 71.0724C186.911 68.6852 186.91 66.2983 186.92 63.9117C186.922 63.3122 186.877 62.8681 186.782 62.5795C186.154 60.6519 183.415 60.9486 182.84 62.7665C182.762 63.0131 182.719 63.4206 182.711 63.9889C182.686 65.8606 182.681 67.7341 182.696 69.6092C182.699 69.9635 182.663 70.2188 182.588 70.3753C182.154 71.2858 180.565 71.1283 179.764 71.1141C179.75 71.1138 179.736 71.1079 179.726 71.0976C179.716 71.0874 179.711 71.0736 179.711 71.0592C179.711 68.4586 179.709 65.8701 179.705 63.2939C179.702 60.8155 176.32 60.592 175.634 62.8C175.524 63.1557 175.489 63.6739 175.489 64.0661C175.486 66.0185 175.485 67.9708 175.486 69.9232C175.488 71.3051 173.368 71.1456 172.556 71.1029C172.542 71.1021 172.529 71.096 172.52 71.0858C172.51 71.0757 172.505 71.0621 172.505 71.048C172.502 67.5762 172.501 64.1051 172.503 60.6347C172.503 60.2451 172.538 59.9735 172.608 59.8197C173.028 58.9001 174.645 59.0678 175.438 59.0779C175.451 59.0779 175.463 59.0831 175.472 59.0922C175.481 59.1014 175.486 59.1138 175.486 59.1267L175.487 60.4385Z" fill="#a0b46f"/>
  <path d="M116.094 60.2181C116.094 60.2256 116.096 60.2329 116.1 60.2391C116.104 60.2453 116.11 60.2501 116.117 60.253C116.124 60.2559 116.131 60.2567 116.139 60.2554C116.146 60.2541 116.153 60.2507 116.158 60.2456C117.227 59.1939 118.218 58.7407 119.74 59.136C119.749 59.1386 119.757 59.1441 119.763 59.1515C119.769 59.159 119.772 59.1681 119.773 59.1776C119.826 60.018 119.962 61.5655 118.664 61.5574C117.9 61.5523 116.271 61.6184 116.175 62.6457C116.005 64.4859 116.086 66.6066 116.096 69.5727C116.097 69.9202 116.052 70.1803 115.962 70.3531C115.523 71.1985 113.993 71.1162 113.165 71.0511C113.151 71.0504 113.138 71.0442 113.128 71.034C113.118 71.0238 113.113 71.0103 113.113 70.9963C113.109 67.4994 113.108 64.0029 113.111 60.5067C113.111 60.2073 113.129 60.0003 113.166 59.8859C113.473 58.9022 115.065 58.9845 116.046 59.0323C116.059 59.0328 116.071 59.0383 116.08 59.0476C116.089 59.0569 116.094 59.0692 116.094 59.0821V60.2181Z" fill="#a0b46f"/>
  <path d="M7.74039 89.34H5.88039V87.6H7.74039V89.34ZM4.92039 89.34H3.06039V87.6H4.92039V89.34ZM11.1004 99H8.98539C7.78539 99 6.94539 98.385 6.46539 97.155C6.09039 97.74 5.37039 98.055 4.33539 98.055C2.53539 98.055 1.38039 96.495 1.38039 94.425C1.38039 92.19 2.50539 90.75 4.48539 90.75C4.48539 90.735 5.82039 90.735 8.49039 90.735V95.46C8.49039 96.45 9.00039 96.99 10.0204 96.99H11.1004V99ZM6.33039 94.26V92.28H4.95039C4.09539 92.28 3.46539 93.225 3.46539 94.395C3.46539 95.445 4.06539 96.315 4.90539 96.315C5.79039 96.315 6.33039 95.49 6.33039 94.26ZM17.552 99H10.802V96.99H12.182C12.887 96.99 13.232 96.51 13.232 95.55V92.205H15.347V95.475C15.347 96.03 15.272 96.525 15.107 96.99H17.552V99ZM15.137 101.49H13.277V99.75H15.137V101.49ZM12.317 101.49H10.457V99.75H12.317V101.49ZM32.7413 99H17.2913V96.99H18.8813C19.5713 96.99 19.9463 96.615 19.9463 95.565V92.205H22.0613V95.475C22.0613 96.03 21.9713 96.54 21.8063 96.99H23.1413C23.8463 96.99 24.2063 96.54 24.2063 95.64V92.205H26.3063V95.475C26.3063 96.03 26.2163 96.54 26.0513 96.99H27.3863C28.0913 96.99 28.4513 96.54 28.4513 95.64V92.205H30.5663V95.46C30.5663 96.015 30.4763 96.525 30.2963 96.99H32.7413V99ZM38.2595 89.595H36.3995V87.87H38.2595V89.595ZM42.3245 99H41.1095C39.6545 99 38.4095 98.82 37.3595 98.445C36.3095 98.82 35.0645 99 33.6095 99H32.2445V96.99H33.6095C34.2695 96.99 34.6745 96.945 34.8395 96.87C34.1945 96.135 33.8645 95.31 33.8645 94.41C33.8645 94.035 33.9245 93.645 34.0445 93.27C34.5245 91.815 35.7845 90.9 37.3595 90.9C38.9645 90.9 40.2095 91.815 40.6745 93.27C40.7945 93.645 40.8545 94.035 40.8545 94.41C40.8545 95.31 40.5245 96.135 39.8795 96.87C40.0595 96.945 40.4645 96.99 41.1095 96.99H42.3245V99ZM38.0945 95.985C38.6795 95.565 38.9645 94.995 38.9645 94.26C38.9645 93.315 38.3645 92.535 37.3595 92.535C36.8645 92.535 36.4745 92.715 36.1595 93.06C35.9045 93.39 35.7695 93.795 35.7695 94.26C35.7695 94.995 36.0545 95.565 36.6395 95.985C36.8795 96.165 37.1195 96.315 37.3595 96.435C37.5995 96.315 37.8395 96.165 38.0945 95.985ZM46.3142 91.065H44.4392V89.34H46.3142V91.065ZM48.6842 99H41.9192V96.99H43.2992C44.0042 96.99 44.3642 96.51 44.3642 95.55V92.205H46.4792V95.475C46.4792 96.03 46.3892 96.525 46.2242 96.99H48.6842V99ZM52.8345 96.105C52.8345 96.9 52.6095 97.56 52.1745 98.085C51.6795 98.7 50.9895 99 50.1045 99H48.1245V96.99H49.6695C50.3745 96.99 50.7345 96.495 50.7345 95.52V89.34H52.8345V96.105ZM56.5463 99H54.4463V89.325H56.5463V99ZM67.3004 89.34H65.4404V87.6H67.3004V89.34ZM64.4804 89.34H62.6204V87.6H64.4804V89.34ZM70.6604 99H68.5454C67.3454 99 66.5054 98.385 66.0254 97.155C65.6504 97.74 64.9304 98.055 63.8954 98.055C62.0954 98.055 60.9404 96.495 60.9404 94.425C60.9404 92.19 62.0654 90.75 64.0454 90.75C64.0454 90.735 65.3804 90.735 68.0504 90.735V95.46C68.0504 96.45 68.5604 96.99 69.5804 96.99H70.6604V99ZM65.8904 94.26V92.28H64.5104C63.6554 92.28 63.0254 93.225 63.0254 94.395C63.0254 95.445 63.6254 96.315 64.4654 96.315C65.3504 96.315 65.8904 95.49 65.8904 94.26ZM82.497 99H70.257V96.99H78.777C78.732 96.195 78.447 95.52 77.922 94.95C77.337 94.305 76.557 93.975 75.612 93.975C74.712 93.975 73.692 94.44 73.107 95.055C72.897 94.77 72.552 94.305 72.057 93.63C73.077 92.565 74.307 92.04 75.762 92.04C76.647 92.04 77.427 92.205 78.102 92.52C79.707 93.285 80.652 94.77 80.907 96.99H82.497V99ZM97.4376 99H81.9126V96.99H83.8026C84.4926 96.99 84.8676 96.63 84.8676 95.55V92.925H86.9676V94.86C88.2876 93.18 90.0276 92.175 91.7076 92.175C94.1676 92.175 95.6076 93.915 95.8026 96.99H97.4376V99ZM93.6126 96.99L93.6276 96.72C93.6276 95.175 92.8626 94.005 91.5426 94.005C89.9976 94.005 88.6176 95.01 87.4626 96.99H93.6126ZM101.61 96.105C101.61 96.9 101.385 97.56 100.95 98.085C100.455 98.7 99.7647 99 98.8797 99H96.8997V96.99H98.4447C99.1497 96.99 99.5097 96.495 99.5097 95.52V89.34H101.61V96.105ZM105.321 99H103.221V89.325H105.321V99ZM122.931 99H122.826C121.611 99 120.711 98.7 120.126 98.115C119.661 100.14 117.531 101.49 115.086 101.49C112.086 101.49 109.716 99.285 109.716 96.375V94.575H111.816V96.18C111.816 98.19 113.001 99.54 115.131 99.54C116.751 99.54 118.296 98.52 118.296 97.125C118.296 96.33 117.621 95.805 116.901 95.805C116.781 95.805 116.661 95.82 116.541 95.85V94.02C116.541 94.005 116.841 94.005 117.456 94.005C118.971 94.005 120.096 94.695 120.816 96.075C121.176 96.765 121.701 96.99 122.601 96.99H122.931V99ZM117.651 104.61H115.791V102.885H117.651V104.61ZM114.831 104.61H112.956V102.885H114.831V104.61ZM128.963 91.05H127.103V89.325H128.963V91.05ZM131.618 95.58C131.618 96.6 131.303 97.425 130.673 98.055C130.058 98.685 129.218 99 128.183 99H122.693V96.99H124.943C124.778 96.555 124.703 96.09 124.703 95.595C124.703 93.51 126.008 92.19 128.093 92.19C129.143 92.19 129.998 92.49 130.643 93.09C131.288 93.675 131.618 94.515 131.618 95.58ZM129.533 95.64C129.533 94.455 129.083 93.87 128.198 93.87H128.048C127.628 93.87 127.298 94.05 127.058 94.425C126.863 94.74 126.758 95.13 126.758 95.565C126.758 96.06 126.863 96.45 127.088 96.765C127.343 97.125 127.703 97.305 128.168 97.305C128.603 97.305 128.948 97.14 129.203 96.795C129.428 96.48 129.533 96.105 129.533 95.64ZM144.18 93.675H140.265V92.55H141.12C141.06 92.34 141.03 92.145 141.03 91.98C141.03 90.975 141.735 90.24 142.68 90.24C143.355 90.24 143.85 90.585 144.15 91.26L143.175 91.725C143.07 91.425 142.89 91.275 142.665 91.275C142.32 91.275 142.155 91.485 142.155 91.92C142.155 92.25 142.26 92.46 142.485 92.535H144.18V93.675ZM150.99 99H140.775C137.46 99 135.81 97.59 135.81 94.785V92.205H137.88V94.785C137.88 96.39 138.645 96.99 140.82 96.99H144.69C146.37 96.99 146.685 96.645 146.685 95.445V89.34H148.785V95.475C148.785 96.03 148.695 96.525 148.53 96.99H150.99V99ZM163.142 99H150.767V96.99H159.017C158.912 96.18 158.582 95.505 158.057 94.98C157.487 94.41 156.797 94.125 155.987 94.125H152.207L155.177 89.34H157.682L155.807 92.19H156.932C157.667 92.265 158.327 92.46 158.882 92.79C160.217 93.585 160.997 94.98 161.222 96.99H163.142V99ZM167.325 96.105C167.325 96.9 167.1 97.56 166.665 98.085C166.17 98.7 165.48 99 164.61 99H162.825V96.99H164.16C164.865 96.99 165.225 96.495 165.225 95.52V92.205H167.325V96.105ZM167.19 101.49H165.315V99.75H167.19V101.49ZM164.355 101.49H162.495V99.75H164.355V101.49ZM175.054 99H172.729C172.384 100.65 171.034 101.475 168.649 101.475V99.78C170.029 99.78 170.719 99.12 170.719 97.8V92.205H172.834V96.99H175.054V99ZM187.909 95.46C187.909 97.515 186.544 99 184.804 99H178.039V99.015L178.024 99H174.334V96.99H176.224C176.914 96.99 177.289 96.63 177.289 95.55V92.205H179.404V95.475C179.404 96.03 179.314 96.54 179.149 96.99H180.484C181.189 96.99 181.549 96.54 181.549 95.64V92.205H183.649V95.475C183.649 96.03 183.559 96.54 183.394 96.99H184.729C185.434 96.99 185.794 96.54 185.794 95.64V92.205H187.909V95.46ZM182.089 91.065H180.214V89.34H182.089V91.065ZM183.469 88.59H181.609V86.865H183.469V88.59ZM184.909 91.065H183.049V89.34H184.909V91.065Z" fill="#a0b46f"/>
  <path d="M4.49839 126V121.324L0.718391 116.13H2.06239L5.10039 120.316L8.12439 116.13H9.42639L5.64639 121.352V126H4.49839ZM12.0248 126.126C11.3621 126.126 10.7881 125.981 10.3028 125.692C9.81748 125.403 9.43948 124.997 9.16881 124.474C8.90748 123.942 8.77681 123.317 8.77681 122.598C8.77681 121.879 8.90748 121.259 9.16881 120.736C9.43948 120.204 9.81748 119.793 10.3028 119.504C10.7881 119.215 11.3621 119.07 12.0248 119.07C12.6781 119.07 13.2475 119.215 13.7328 119.504C14.2275 119.793 14.6055 120.204 14.8668 120.736C15.1375 121.259 15.2728 121.879 15.2728 122.598C15.2728 123.317 15.1375 123.942 14.8668 124.474C14.6055 124.997 14.2275 125.403 13.7328 125.692C13.2475 125.981 12.6781 126.126 12.0248 126.126ZM12.0248 125.216C12.6595 125.216 13.1681 124.992 13.5508 124.544C13.9335 124.087 14.1248 123.438 14.1248 122.598C14.1248 121.749 13.9335 121.1 13.5508 120.652C13.1681 120.204 12.6595 119.98 12.0248 119.98C11.3808 119.98 10.8675 120.204 10.4848 120.652C10.1115 121.1 9.92481 121.749 9.92481 122.598C9.92481 123.438 10.1115 124.087 10.4848 124.544C10.8675 124.992 11.3808 125.216 12.0248 125.216ZM19.3841 126.126C17.7508 126.126 16.9341 125.225 16.9341 123.424V119.196H18.0681V123.41C18.0681 124.017 18.1894 124.465 18.4321 124.754C18.6841 125.043 19.0761 125.188 19.6081 125.188C20.1868 125.188 20.6581 124.997 21.0221 124.614C21.3861 124.222 21.5681 123.704 21.5681 123.06V119.196H22.7021V126H21.5961V124.852C21.3814 125.263 21.0781 125.58 20.6861 125.804C20.3034 126.019 19.8694 126.126 19.3841 126.126ZM24.8238 126V119.196H25.9298V120.414C26.2938 119.593 27.0404 119.14 28.1698 119.056L28.5758 119.014L28.6598 119.994L27.9458 120.078C27.3018 120.134 26.8118 120.339 26.4758 120.694C26.1398 121.039 25.9718 121.515 25.9718 122.122V126H24.8238ZM33.591 126V116.13H37.497C38.561 116.13 39.373 116.387 39.933 116.9C40.5024 117.413 40.787 118.146 40.787 119.098C40.787 120.041 40.5024 120.773 39.933 121.296C39.373 121.809 38.561 122.066 37.497 122.066H34.739V126H33.591ZM34.739 121.1H37.357C38.8877 121.1 39.653 120.433 39.653 119.098C39.653 117.754 38.8877 117.082 37.357 117.082H34.739V121.1ZM44.0966 126.126C43.63 126.126 43.21 126.037 42.8366 125.86C42.4726 125.673 42.1833 125.421 41.9686 125.104C41.754 124.787 41.6466 124.432 41.6466 124.04C41.6466 123.545 41.7726 123.153 42.0246 122.864C42.286 122.575 42.7106 122.369 43.2986 122.248C43.896 122.117 44.708 122.052 45.7346 122.052H46.1826V121.618C46.1826 121.039 46.0613 120.624 45.8186 120.372C45.5853 120.111 45.2073 119.98 44.6846 119.98C44.274 119.98 43.8773 120.041 43.4946 120.162C43.112 120.274 42.72 120.461 42.3186 120.722L41.9266 119.896C42.2813 119.644 42.7106 119.443 43.2146 119.294C43.728 119.145 44.218 119.07 44.6846 119.07C45.562 119.07 46.2106 119.285 46.6306 119.714C47.06 120.143 47.2746 120.811 47.2746 121.716V126H46.2106V124.824C46.0333 125.225 45.758 125.543 45.3846 125.776C45.0206 126.009 44.5913 126.126 44.0966 126.126ZM44.2786 125.272C44.8386 125.272 45.296 125.081 45.6506 124.698C46.0053 124.306 46.1826 123.811 46.1826 123.214V122.794H45.7486C44.9926 122.794 44.3953 122.831 43.9566 122.906C43.5273 122.971 43.224 123.093 43.0466 123.27C42.8786 123.438 42.7946 123.671 42.7946 123.97C42.7946 124.353 42.9253 124.665 43.1866 124.908C43.4573 125.151 43.8213 125.272 44.2786 125.272ZM49.3785 126V119.196H50.4845V120.414C50.8485 119.593 51.5951 119.14 52.7245 119.056L53.1305 119.014L53.2145 119.994L52.5005 120.078C51.8565 120.134 51.3665 120.339 51.0305 120.694C50.6945 121.039 50.5265 121.515 50.5265 122.122V126H49.3785ZM57.4952 126.126C56.6925 126.126 56.0905 125.916 55.6892 125.496C55.2878 125.067 55.0872 124.451 55.0872 123.648V120.078H53.7572V119.196H55.0872V117.11H56.2212V119.196H58.3772V120.078H56.2212V123.536C56.2212 124.068 56.3332 124.474 56.5572 124.754C56.7812 125.025 57.1452 125.16 57.6492 125.16C57.7985 125.16 57.9478 125.141 58.0972 125.104C58.2465 125.067 58.3818 125.029 58.5032 124.992L58.6992 125.86C58.5778 125.925 58.4005 125.986 58.1672 126.042C57.9338 126.098 57.7098 126.126 57.4952 126.126ZM59.6597 126V119.196H60.7657V120.358C60.9897 119.929 61.307 119.607 61.7177 119.392C62.1284 119.177 62.5904 119.07 63.1037 119.07C64.7184 119.07 65.5257 119.966 65.5257 121.758V126H64.3917V121.828C64.3917 121.193 64.2657 120.731 64.0137 120.442C63.771 120.143 63.379 119.994 62.8377 119.994C62.2124 119.994 61.713 120.19 61.3397 120.582C60.9757 120.965 60.7937 121.478 60.7937 122.122V126H59.6597ZM70.6827 126.126C69.6094 126.126 68.7601 125.813 68.1347 125.188C67.5094 124.553 67.1967 123.695 67.1967 122.612C67.1967 121.912 67.3367 121.296 67.6167 120.764C67.8967 120.223 68.2794 119.807 68.7647 119.518C69.2594 119.219 69.8287 119.07 70.4727 119.07C71.3967 119.07 72.1201 119.369 72.6427 119.966C73.1654 120.554 73.4267 121.366 73.4267 122.402V122.836H68.3027C68.3401 123.611 68.5641 124.203 68.9747 124.614C69.3854 125.015 69.9547 125.216 70.6827 125.216C71.0934 125.216 71.4854 125.155 71.8587 125.034C72.2321 124.903 72.5867 124.693 72.9227 124.404L73.3147 125.202C73.0067 125.491 72.6147 125.72 72.1387 125.888C71.6627 126.047 71.1774 126.126 70.6827 126.126ZM70.5007 119.91C69.8567 119.91 69.3481 120.111 68.9747 120.512C68.6014 120.913 68.3821 121.441 68.3167 122.094H72.4467C72.4187 121.403 72.2367 120.867 71.9007 120.484C71.5741 120.101 71.1074 119.91 70.5007 119.91ZM75.0679 126V119.196H76.1739V120.414C76.5379 119.593 77.2846 119.14 78.4139 119.056L78.8199 119.014L78.9039 119.994L78.1899 120.078C77.5459 120.134 77.0559 120.339 76.7199 120.694C76.3839 121.039 76.2159 121.515 76.2159 122.122V126H75.0679ZM83.8352 126V116.13H84.9832V126H83.8352ZM87.2632 126V119.196H88.3692V120.358C88.5932 119.929 88.9106 119.607 89.3212 119.392C89.7319 119.177 90.1939 119.07 90.7072 119.07C92.3219 119.07 93.1292 119.966 93.1292 121.758V126H91.9952V121.828C91.9952 121.193 91.8692 120.731 91.6172 120.442C91.3746 120.143 90.9826 119.994 90.4412 119.994C89.8159 119.994 89.3166 120.19 88.9432 120.582C88.5792 120.965 88.3972 121.478 88.3972 122.122V126H87.2632ZM98.998 126V116.13H99.964L103.758 123.256L107.524 116.13H108.49V126H107.426V118.286L104.136 124.474H103.38L100.048 118.3V126H98.998ZM113.859 126.126C112.785 126.126 111.936 125.813 111.311 125.188C110.685 124.553 110.373 123.695 110.373 122.612C110.373 121.912 110.513 121.296 110.793 120.764C111.073 120.223 111.455 119.807 111.941 119.518C112.435 119.219 113.005 119.07 113.649 119.07C114.573 119.07 115.296 119.369 115.819 119.966C116.341 120.554 116.603 121.366 116.603 122.402V122.836H111.479C111.516 123.611 111.74 124.203 112.151 124.614C112.561 125.015 113.131 125.216 113.859 125.216C114.269 125.216 114.661 125.155 115.035 125.034C115.408 124.903 115.763 124.693 116.099 124.404L116.491 125.202C116.183 125.491 115.791 125.72 115.315 125.888C114.839 126.047 114.353 126.126 113.859 126.126ZM113.677 119.91C113.033 119.91 112.524 120.111 112.151 120.512C111.777 120.913 111.558 121.441 111.493 122.094H115.623C115.595 121.403 115.413 120.867 115.077 120.484C114.75 120.101 114.283 119.91 113.677 119.91ZM118.244 126V119.196H119.35V120.358C119.574 119.929 119.891 119.607 120.302 119.392C120.712 119.177 121.174 119.07 121.688 119.07C123.302 119.07 124.11 119.966 124.11 121.758V126H122.976V121.828C122.976 121.193 122.85 120.731 122.598 120.442C122.355 120.143 121.963 119.994 121.422 119.994C120.796 119.994 120.297 120.19 119.924 120.582C119.56 120.965 119.378 121.478 119.378 122.122V126H118.244ZM128.931 126.126C128.128 126.126 127.526 125.916 127.125 125.496C126.723 125.067 126.523 124.451 126.523 123.648V120.078H125.193V119.196H126.523V117.11H127.657V119.196H129.813V120.078H127.657V123.536C127.657 124.068 127.769 124.474 127.993 124.754C128.217 125.025 128.581 125.16 129.085 125.16C129.234 125.16 129.383 125.141 129.533 125.104C129.682 125.067 129.817 125.029 129.939 124.992L130.135 125.86C130.013 125.925 129.836 125.986 129.603 126.042C129.369 126.098 129.145 126.126 128.931 126.126ZM133.237 126.126C132.771 126.126 132.351 126.037 131.977 125.86C131.613 125.673 131.324 125.421 131.109 125.104C130.895 124.787 130.787 124.432 130.787 124.04C130.787 123.545 130.913 123.153 131.165 122.864C131.427 122.575 131.851 122.369 132.439 122.248C133.037 122.117 133.849 122.052 134.875 122.052H135.323V121.618C135.323 121.039 135.202 120.624 134.959 120.372C134.726 120.111 134.348 119.98 133.825 119.98C133.415 119.98 133.018 120.041 132.635 120.162C132.253 120.274 131.861 120.461 131.459 120.722L131.067 119.896C131.422 119.644 131.851 119.443 132.355 119.294C132.869 119.145 133.359 119.07 133.825 119.07C134.703 119.07 135.351 119.285 135.771 119.714C136.201 120.143 136.415 120.811 136.415 121.716V126H135.351V124.824C135.174 125.225 134.899 125.543 134.525 125.776C134.161 126.009 133.732 126.126 133.237 126.126ZM133.419 125.272C133.979 125.272 134.437 125.081 134.791 124.698C135.146 124.306 135.323 123.811 135.323 123.214V122.794H134.889C134.133 122.794 133.536 122.831 133.097 122.906C132.668 122.971 132.365 123.093 132.187 123.27C132.019 123.438 131.935 123.671 131.935 123.97C131.935 124.353 132.066 124.665 132.327 124.908C132.598 125.151 132.962 125.272 133.419 125.272ZM140.605 126.126C139.914 126.126 139.392 125.925 139.037 125.524C138.692 125.113 138.519 124.521 138.519 123.746V116.13H139.653V123.662C139.653 124.661 140.05 125.16 140.843 125.16C141.076 125.16 141.286 125.132 141.473 125.076L141.445 126.028C141.156 126.093 140.876 126.126 140.605 126.126ZM146.411 126V116.13H147.559V120.498H153.481V116.13H154.629V126H153.481V121.492H147.559V126H146.411ZM159.974 126.126C158.9 126.126 158.051 125.813 157.426 125.188C156.8 124.553 156.488 123.695 156.488 122.612C156.488 121.912 156.628 121.296 156.908 120.764C157.188 120.223 157.57 119.807 158.056 119.518C158.55 119.219 159.12 119.07 159.764 119.07C160.688 119.07 161.411 119.369 161.934 119.966C162.456 120.554 162.718 121.366 162.718 122.402V122.836H157.594C157.631 123.611 157.855 124.203 158.266 124.614C158.676 125.015 159.246 125.216 159.974 125.216C160.384 125.216 160.776 125.155 161.15 125.034C161.523 124.903 161.878 124.693 162.214 124.404L162.606 125.202C162.298 125.491 161.906 125.72 161.43 125.888C160.954 126.047 160.468 126.126 159.974 126.126ZM159.792 119.91C159.148 119.91 158.639 120.111 158.266 120.512C157.892 120.913 157.673 121.441 157.608 122.094H161.738C161.71 121.403 161.528 120.867 161.192 120.484C160.865 120.101 160.398 119.91 159.792 119.91ZM166.501 126.126C166.034 126.126 165.614 126.037 165.241 125.86C164.877 125.673 164.588 125.421 164.373 125.104C164.158 124.787 164.051 124.432 164.051 124.04C164.051 123.545 164.177 123.153 164.429 122.864C164.69 122.575 165.115 122.369 165.703 122.248C166.3 122.117 167.112 122.052 168.139 122.052H168.587V121.618C168.587 121.039 168.466 120.624 168.223 120.372C167.99 120.111 167.612 119.98 167.089 119.98C166.678 119.98 166.282 120.041 165.899 120.162C165.516 120.274 165.124 120.461 164.723 120.722L164.331 119.896C164.686 119.644 165.115 119.443 165.619 119.294C166.132 119.145 166.622 119.07 167.089 119.07C167.966 119.07 168.615 119.285 169.035 119.714C169.464 120.143 169.679 120.811 169.679 121.716V126H168.615V124.824C168.438 125.225 168.162 125.543 167.789 125.776C167.425 126.009 166.996 126.126 166.501 126.126ZM166.683 125.272C167.243 125.272 167.7 125.081 168.055 124.698C168.41 124.306 168.587 123.811 168.587 123.214V122.794H168.153C167.397 122.794 166.8 122.831 166.361 122.906C165.932 122.971 165.628 123.093 165.451 123.27C165.283 123.438 165.199 123.671 165.199 123.97C165.199 124.353 165.33 124.665 165.591 124.908C165.862 125.151 166.226 125.272 166.683 125.272ZM173.869 126.126C173.178 126.126 172.655 125.925 172.301 125.524C171.955 125.113 171.783 124.521 171.783 123.746V116.13H172.917V123.662C172.917 124.661 173.313 125.16 174.107 125.16C174.34 125.16 174.55 125.132 174.737 125.076L174.709 126.028C174.419 126.093 174.139 126.126 173.869 126.126ZM178.532 126.126C177.73 126.126 177.128 125.916 176.726 125.496C176.325 125.067 176.124 124.451 176.124 123.648V120.078H174.794V119.196H176.124V117.11H177.258V119.196H179.414V120.078H177.258V123.536C177.258 124.068 177.37 124.474 177.594 124.754C177.818 125.025 178.182 125.16 178.686 125.16C178.836 125.16 178.985 125.141 179.134 125.104C179.284 125.067 179.419 125.029 179.54 124.992L179.736 125.86C179.615 125.925 179.438 125.986 179.204 126.042C178.971 126.098 178.747 126.126 178.532 126.126ZM180.697 126V116.13H181.831V120.316C182.055 119.905 182.367 119.597 182.769 119.392C183.179 119.177 183.637 119.07 184.141 119.07C185.755 119.07 186.563 119.966 186.563 121.758V126H185.429V121.828C185.429 121.193 185.303 120.731 185.051 120.442C184.808 120.143 184.416 119.994 183.875 119.994C183.249 119.994 182.75 120.19 182.377 120.582C182.013 120.965 181.831 121.478 181.831 122.122V126H180.697Z" fill="#a0b46f"/>
</svg>