<svg xmlns="http://www.w3.org/2000/svg" width="22" height="22" viewBox="0 0 22 22" fill="none">
  <g clip-path="url(#clip0_3702_4793)">
    <path d="M20.0045 9.21094H3.17673C2.59828 9.21094 2.125 9.68422 2.125 10.2627V16.7414C2.125 19.8966 3.7026 22 7.38367 22H15.7976C19.4786 22 21.0562 19.8966 21.0562 16.7414V10.2627C21.0562 9.68422 20.5829 9.21094 20.0045 9.21094ZM8.65627 18.014C8.60369 18.056 8.5511 18.1086 8.49851 18.1402C8.43541 18.1822 8.37231 18.2138 8.3092 18.2348C8.2461 18.2664 8.18299 18.2874 8.11989 18.2979C8.04627 18.3084 7.98316 18.319 7.90954 18.319C7.77282 18.319 7.63609 18.2874 7.50988 18.2348C7.37316 18.1822 7.26798 18.1086 7.16281 18.014C6.9735 17.8141 6.85781 17.5407 6.85781 17.2672C6.85781 16.9938 6.9735 16.7203 7.16281 16.5205C7.26798 16.4258 7.37316 16.3522 7.50988 16.2996C7.69919 16.2155 7.90954 16.1945 8.11989 16.2365C8.18299 16.247 8.2461 16.2681 8.3092 16.2996C8.37231 16.3207 8.43541 16.3522 8.49851 16.3943L8.65627 16.5205C8.84559 16.7203 8.96128 16.9938 8.96128 17.2672C8.96128 17.5407 8.84559 17.8141 8.65627 18.014ZM8.65627 14.3329C8.45644 14.5222 8.18299 14.6379 7.90954 14.6379C7.63609 14.6379 7.36264 14.5222 7.16281 14.3329C6.9735 14.1331 6.85781 13.8596 6.85781 13.5862C6.85781 13.3127 6.9735 13.0393 7.16281 12.8394C7.4573 12.5449 7.92006 12.4503 8.3092 12.6186C8.44593 12.6711 8.56162 12.7448 8.65627 12.8394C8.84559 13.0393 8.96128 13.3127 8.96128 13.5862C8.96128 13.8596 8.84559 14.1331 8.65627 14.3329ZM12.3373 18.014C12.1375 18.2033 11.8641 18.319 11.5906 18.319C11.3172 18.319 11.0437 18.2033 10.8439 18.014C10.6546 17.8141 10.5389 17.5407 10.5389 17.2672C10.5389 16.9938 10.6546 16.7203 10.8439 16.5205C11.233 16.1314 11.9482 16.1314 12.3373 16.5205C12.5267 16.7203 12.6423 16.9938 12.6423 17.2672C12.6423 17.5407 12.5267 17.8141 12.3373 18.014ZM12.3373 14.3329L12.1796 14.4591C12.1165 14.5012 12.0534 14.5327 11.9903 14.5538C11.9272 14.5853 11.8641 14.6063 11.801 14.6169C11.7273 14.6274 11.6642 14.6379 11.5906 14.6379C11.3172 14.6379 11.0437 14.5222 10.8439 14.3329C10.6546 14.1331 10.5389 13.8596 10.5389 13.5862C10.5389 13.3127 10.6546 13.0393 10.8439 12.8394C10.9385 12.7448 11.0542 12.6711 11.191 12.6186C11.5801 12.4503 12.0429 12.5449 12.3373 12.8394C12.5267 13.0393 12.6423 13.3127 12.6423 13.5862C12.6423 13.8596 12.5267 14.1331 12.3373 14.3329ZM16.0184 18.014C15.8186 18.2033 15.5451 18.319 15.2717 18.319C14.9982 18.319 14.7248 18.2033 14.525 18.014C14.3356 17.8141 14.22 17.5407 14.22 17.2672C14.22 16.9938 14.3356 16.7203 14.525 16.5205C14.9141 16.1314 15.6293 16.1314 16.0184 16.5205C16.2077 16.7203 16.3234 16.9938 16.3234 17.2672C16.3234 17.5407 16.2077 17.8141 16.0184 18.014ZM16.0184 14.3329L15.8607 14.4591C15.7976 14.5012 15.7345 14.5327 15.6713 14.5538C15.6082 14.5853 15.5451 14.6063 15.482 14.6169C15.4084 14.6274 15.3348 14.6379 15.2717 14.6379C14.9982 14.6379 14.7248 14.5222 14.525 14.3329C14.3356 14.1331 14.22 13.8596 14.22 13.5862C14.22 13.3127 14.3356 13.0393 14.525 12.8394C14.6301 12.7448 14.7353 12.6711 14.872 12.6186C15.0613 12.5344 15.2717 12.5134 15.482 12.5555C15.5451 12.566 15.6082 12.587 15.6713 12.6186C15.7345 12.6396 15.7976 12.6711 15.8607 12.7132L16.0184 12.8394C16.2077 13.0393 16.3234 13.3127 16.3234 13.5862C16.3234 13.8596 16.2077 14.1331 16.0184 14.3329Z" fill="#a0b46f"/>
    <path d="M16.5345 2.60649V0.846262C16.5345 0.383639 16.1741 0 15.7395 0C15.3048 0 14.9444 0.383639 14.9444 0.846262V2.53879H8.05411V0.846262C8.05411 0.383639 7.6937 0 7.25908 0C6.82446 0 6.46404 0.383639 6.46404 0.846262V2.60649C3.60191 2.88858 2.21325 4.70522 2.00124 7.40197C1.98004 7.7292 2.23445 8 2.53126 8H20.4673C20.7747 8 21.0291 7.71791 20.9973 7.40197C20.7853 4.70522 19.3966 2.88858 16.5345 2.60649Z" fill="#ACE3EB"/>
  </g>
  <defs>
    <clipPath id="clip0_3702_4793">
      <rect width="22" height="22" fill="white"/>
    </clipPath>
  </defs>
</svg>