<svg xmlns="http://www.w3.org/2000/svg" width="20" height="20" viewBox="0 0 20 20" fill="none">
  <g clip-path="url(#clip0_3702_5492)">
    <path d="M13.9977 19.0812H5.09231C4.40919 19.1234 3.72454 19.0279 3.0791 18.8002C2.43366 18.5725 1.84061 18.2173 1.33525 17.7557C0.873719 17.2503 0.518542 16.6572 0.290838 16.0118C0.0631351 15.3664 -0.0324435 14.6818 0.00978702 13.9986V5.09232C-0.0325711 4.40927 0.0628563 3.72468 0.290395 3.07925C0.517933 2.43382 0.872936 1.84074 1.33429 1.33526C1.8398 0.873619 2.43301 0.518373 3.07861 0.290667C3.72422 0.0629607 4.40903 -0.0325539 5.09231 0.00980648H13.9977C14.6803 -0.0325988 15.3645 0.0628153 16.0094 0.290365C16.6544 0.517915 17.247 0.872947 17.7519 1.33431C18.213 1.84033 18.5681 2.43352 18.7964 3.07893C19.0247 3.72434 19.1215 4.40892 19.0812 5.09232V13.9986C19.1234 14.6818 19.0279 15.3664 18.8002 16.0118C18.5725 16.6573 18.2173 17.2503 17.7557 17.7557C17.2502 18.2173 16.6569 18.5725 16.0113 18.8002C15.3658 19.0279 14.681 19.1235 13.9977 19.0812ZM13.9786 10.4161C13.8274 10.4168 13.6793 10.459 13.5505 10.5381C13.4241 10.6154 13.3226 10.7274 13.2584 10.8609C13.1941 10.9944 13.1697 11.1435 13.1881 11.2905V14.4182C13.2063 14.615 13.2977 14.7977 13.4443 14.9302C13.5909 15.0626 13.782 15.1352 13.9796 15.1334C14.1761 15.1315 14.3652 15.0578 14.511 14.926C14.6569 14.7942 14.7494 14.6136 14.771 14.4182V11.2905C14.7847 11.1429 14.7571 10.9943 14.6912 10.8615C14.6254 10.7286 14.5239 10.6167 14.3982 10.5381C14.2727 10.4586 14.1272 10.4162 13.9786 10.4161ZM9.5941 3.82407C9.44551 3.82422 9.30002 3.86655 9.17453 3.94613C9.04906 4.02526 8.94779 4.13742 8.88186 4.2703C8.81592 4.40319 8.78785 4.55167 8.80073 4.69945V14.4182C8.82243 14.6137 8.91507 14.7945 9.0611 14.9263C9.20714 15.0581 9.39644 15.1318 9.59315 15.1334C9.79067 15.135 9.98159 15.0623 10.1281 14.9299C10.2747 14.7975 10.3662 14.6149 10.3846 14.4182V4.70136C10.4022 4.55442 10.3776 4.4055 10.3136 4.27208C10.2496 4.13865 10.1489 4.02624 10.0232 3.94804C9.89416 3.86836 9.74577 3.82549 9.5941 3.82407ZM5.14952 6.95368C5.00092 6.95377 4.85541 6.9961 4.72995 7.07574C4.60452 7.1548 4.5034 7.267 4.43776 7.39995C4.37213 7.5329 4.34455 7.68141 4.35806 7.82906V14.4182C4.37846 14.6138 4.47059 14.7949 4.61667 14.9265C4.76274 15.0581 4.95241 15.131 5.14904 15.131C5.34568 15.131 5.53534 15.0581 5.68142 14.9265C5.8275 14.7949 5.91963 14.6138 5.94003 14.4182V7.82906C5.95342 7.68153 5.92589 7.53316 5.86045 7.40026C5.795 7.26736 5.69419 7.15507 5.56909 7.07574C5.44357 6.99625 5.2981 6.95393 5.14952 6.95368Z" fill="#a0b46f"/>
  </g>
  <defs>
    <clipPath id="clip0_3702_5492">
      <rect width="20" height="20" fill="white"/>
    </clipPath>
  </defs>
</svg>