<svg xmlns="http://www.w3.org/2000/svg" width="20" height="20" viewBox="0 0 20 20" fill="none">
  <g clip-path="url(#clip0_3702_2078)">
    <path d="M6.96324 18.4644C7.79212 18.4644 8.46389 17.7922 8.46324 16.9633L8.46104 14.1236C8.46104 12.0273 7.38722 10.7982 5.96491 10.3352C5.56794 10.2151 5.2123 9.89946 4.88151 9.56853C4.28054 8.94265 3.63806 8.08664 2.80581 8.09727L2.80504 8.09409C2.53355 8.09765 2.26211 8.19576 2.02674 8.43113C1.47478 8.9831 1.69779 9.82641 2.17381 10.3024L3.72011 11.8486C3.8644 11.9929 3.94546 12.1886 3.94546 12.3927C3.94546 12.5968 3.8644 12.7925 3.72011 12.9368L1.62974 10.8465C1.26644 10.4833 1.01958 9.99219 0.952294 9.49933C0.868516 8.88532 1.05675 8.31277 1.48243 7.8871C1.80124 7.56829 2.19238 7.38832 2.61901 7.34283L2.30679 6.08178C2.28313 1.40192 0.000192373 1.97365 0.000192373 3.07455L0 11.2903C0 11.8005 0.197663 12.2815 0.556823 12.6444C3.58941 15.7051 3.88135 15.5554 3.87249 16.9629C3.86728 17.7914 4.51903 18.4644 5.34746 18.4644H6.96324ZM19.9998 3.0746C19.9998 1.97375 17.7169 1.40197 17.6932 6.08187L17.381 7.34292C17.8076 7.38842 18.1988 7.56834 18.5176 7.8872C18.9432 8.31287 19.1315 8.88542 19.0477 9.49943C18.9805 9.99228 18.7336 10.4834 18.3703 10.8466L16.2799 12.9369C16.1356 12.7925 16.0545 12.5969 16.0545 12.3928C16.0545 12.1888 16.1356 11.993 16.2799 11.8487L17.8262 10.3025C18.3022 9.82651 18.5252 8.98314 17.9733 8.43123C17.7379 8.19586 17.4664 8.09775 17.195 8.09419L17.1942 8.09736C16.3619 8.08673 15.7195 8.94275 15.1185 9.56863C14.7877 9.89956 14.432 10.2151 14.0351 10.3353C12.6128 10.7982 11.539 12.0274 11.539 14.1237L11.5368 16.9633C11.5361 17.7922 12.2079 18.4645 13.0368 18.4645H14.6525C15.481 18.4645 16.1327 17.7914 16.1275 16.963C16.1187 15.5555 16.4106 15.7051 19.4432 12.6444C19.8024 12.2815 20 11.8005 20 11.2903L19.9998 3.0746Z" fill="#a0b46f"/>
    <path d="M14.3177 2.74751C13.7815 2.24253 13.0949 2 12.403 2C11.6241 2 10.8381 2.30732 10.2518 2.89386L9.99987 3.14577L9.74796 2.89376C9.16166 2.30746 8.37562 2 7.59675 2C6.90469 2 6.2184 2.24253 5.68202 2.74751C4.50243 3.85818 4.48137 5.71539 5.61887 6.85289L9.29281 10.5268C9.68334 10.9173 10.3165 10.9173 10.707 10.5268L14.3809 6.85289C15.5184 5.71535 15.4974 3.85813 14.3177 2.74751Z" fill="#ACE3EB"/>
  </g>
  <defs>
    <clipPath id="clip0_3702_2078">
      <rect width="20" height="20" fill="white"/>
    </clipPath>
  </defs>
</svg>