<svg xmlns="http://www.w3.org/2000/svg" width="22" height="22" viewBox="0 0 22 22" fill="none">
  <path fill-rule="evenodd" clip-rule="evenodd" d="M16.4694 3.44004C16.4695 3.25253 16.4131 3.06934 16.3077 2.91427C16.2023 2.7592 16.0527 2.63941 15.8783 2.57048C15.7039 2.50154 15.5128 2.48663 15.3299 2.5277C15.1469 2.56877 14.9805 2.6639 14.8524 2.80075C14.0273 3.68093 13.0305 4.38253 11.9235 4.86218C10.8165 5.34183 9.62295 5.58934 8.41653 5.58941H5.2885C4.41648 5.58987 3.58031 5.93649 2.96369 6.5531C2.34708 7.16971 2.00046 8.00589 2 8.87791V9.75485C2.00046 10.6269 2.34708 11.463 2.96369 12.0797C3.58031 12.6963 4.41648 13.0429 5.2885 13.0433H8.41653C9.62295 13.0434 10.8165 13.2909 11.9235 13.7706C13.0305 14.2502 14.0273 14.9518 14.8524 15.832C14.9805 15.9689 15.1469 16.064 15.3299 16.1051C15.5128 16.1461 15.7039 16.1312 15.8783 16.0623C16.0527 15.9933 16.2023 15.8736 16.3077 15.7185C16.4131 15.5634 16.4695 15.3802 16.4694 15.1927V3.44004Z" fill="white"/>
  <path fill-rule="evenodd" clip-rule="evenodd" d="M4.80273 13.8922L5.39554 17.4736C5.45476 17.8323 5.63941 18.1584 5.91661 18.3937C6.19381 18.629 6.54554 18.7582 6.90913 18.7583H8.96379C9.15082 18.7588 9.33485 18.7113 9.49831 18.6205C9.66179 18.5296 9.79924 18.3984 9.89757 18.2393C9.99589 18.0802 10.0518 17.8985 10.06 17.7117C10.0681 17.5248 10.0283 17.339 9.9442 17.1719L9.42856 16.1398C9.42106 16.1253 9.41518 16.11 9.41103 16.0942L8.87785 13.9334C8.72439 13.9247 4.96321 13.9106 4.80273 13.8922Z" fill="#C3EEF5"/>
  <path fill-rule="evenodd" clip-rule="evenodd" d="M20.4048 8.8608H19.2143C19.0564 8.8608 18.905 8.92814 18.7934 9.04802C18.6818 9.16789 18.6191 9.33047 18.6191 9.5C18.6191 9.66953 18.6818 9.83211 18.7934 9.95198C18.905 10.0719 19.0564 10.1392 19.2143 10.1392H20.4048C20.5626 10.1392 20.714 10.0719 20.8257 9.95198C20.9373 9.83211 21 9.66953 21 9.5C21 9.33047 20.9373 9.16789 20.8257 9.04802C20.714 8.92814 20.5626 8.8608 20.4048 8.8608ZM18.1738 12.9091L19.0159 13.8133C19.1277 13.9329 19.2791 14 19.4369 14C19.5947 14 19.7461 13.9329 19.8579 13.8133C19.9693 13.6932 20.0318 13.5307 20.0318 13.3612C20.0318 13.1918 19.9693 13.0292 19.8579 12.9091L19.0159 12.0048C18.904 11.8853 18.7527 11.8182 18.5948 11.8182C18.437 11.8182 18.2857 11.8853 18.1738 12.0048C18.0625 12.1249 18 12.2875 18 12.457C18 12.6264 18.0625 12.789 18.1738 12.9091ZM19.0159 6.99518L19.8579 6.09092C19.9693 5.97081 20.0318 5.80825 20.0318 5.63879C20.0318 5.46933 19.9693 5.30677 19.8579 5.18666C19.7461 5.06711 19.5947 5 19.4369 5C19.2791 5 19.1277 5.06711 19.0159 5.18666L18.1738 6.09092C18.0625 6.21102 18 6.37359 18 6.54305C18 6.71251 18.0625 6.87507 18.1738 6.99518C18.2857 7.11472 18.437 7.18184 18.5948 7.18184C18.7527 7.18184 18.904 7.11472 19.0159 6.99518Z" fill="#C3EEF5"/>
</svg>