<svg xmlns="http://www.w3.org/2000/svg" width="23" height="23" viewBox="0 0 23 23" fill="none">
  <path d="M12.6624 20.9992H11.3419C11.0813 21.007 10.8219 20.9599 10.5788 20.8606C10.3357 20.7613 10.1138 20.6118 9.92623 20.4209C9.73862 20.23 9.58903 20.0015 9.48623 19.7488C9.38344 19.496 9.3295 19.2242 9.32759 18.9492C9.30816 18.4624 9.11218 18.0021 8.78017 17.6634C8.44815 17.3247 8.00547 17.1335 7.54361 17.1293C7.24381 17.1141 6.94659 17.1942 6.69048 17.3593C6.37904 17.5531 6.02454 17.6566 5.66294 17.6593C5.31527 17.6577 4.97394 17.561 4.67225 17.3787C4.37055 17.1965 4.11879 16.9348 3.94152 16.6193L3.27797 15.4194C3.09962 15.1114 3.0036 14.7582 3.0001 14.3973C2.99659 14.0364 3.08574 13.6813 3.25807 13.3695C3.44293 13.0367 3.7108 12.7638 4.03252 12.5805C4.28864 12.4315 4.5001 12.2098 4.64298 11.9405C4.7574 11.737 4.83225 11.5115 4.86318 11.2772C4.8941 11.0428 4.88047 10.8043 4.82308 10.5756C4.76587 10.3386 4.66438 10.1161 4.52455 9.92099C4.38473 9.72592 4.20939 9.56228 4.00882 9.43964C3.78307 9.30612 3.58494 9.12626 3.42614 8.91067C3.26733 8.69508 3.15106 8.44813 3.08418 8.18437C3.0173 7.92062 3.00117 7.64541 3.03673 7.37497C3.07229 7.10454 3.15883 6.84435 3.29125 6.60976L3.94152 5.42981C4.21097 4.94999 4.64859 4.60129 5.15979 4.45908C5.67099 4.31688 6.21471 4.39259 6.67342 4.66984C6.9358 4.81794 7.22897 4.89491 7.52654 4.89384C7.84134 4.89502 8.15126 4.81176 8.42718 4.65189C8.7031 4.49201 8.93596 4.26077 9.10388 3.97987C9.26099 3.71712 9.33898 3.41033 9.32759 3.09991C9.31035 2.72534 9.40519 2.35454 9.59869 2.03996C9.7805 1.73057 10.0322 1.47361 10.3314 1.29211C10.6305 1.1106 10.9676 1.01024 11.3125 1L12.6785 1C13.0262 1.00403 13.3672 1.10167 13.6691 1.28366C13.971 1.46566 14.2239 1.72598 14.4037 2.03996C14.594 2.35563 14.6852 2.72648 14.6644 3.09991C14.6531 3.41018 14.7307 3.71683 14.8871 3.97987C15.0561 4.26159 15.2902 4.49331 15.5675 4.6532C15.8448 4.8131 16.1561 4.89591 16.472 4.89384C16.7695 4.89359 17.0623 4.8167 17.3252 4.66984C17.7823 4.39255 18.3248 4.31682 18.8346 4.45913C19.3444 4.60144 19.7803 4.95028 20.0476 5.42981L20.696 6.60976C20.831 6.84366 20.9196 7.10398 20.9566 7.37502C20.9936 7.64606 20.9781 7.9222 20.9112 8.18676C20.8442 8.45132 20.7271 8.69883 20.5669 8.91433C20.4068 9.12984 20.2069 9.30888 19.9793 9.44064C19.7794 9.56375 19.6048 9.72787 19.4659 9.92332C19.327 10.1188 19.2267 10.3416 19.1708 10.5786C19.1146 10.8075 19.1024 11.0459 19.135 11.2798C19.1675 11.5137 19.2442 11.7384 19.3604 11.9405C19.4972 12.2112 19.7061 12.4337 19.9613 12.5805C20.2816 12.7698 20.5515 13.0412 20.7462 13.3695C20.9157 13.6822 21.0032 14.0369 20.9999 14.3971C20.9966 14.7574 20.9025 15.1102 20.7273 15.4194L20.0495 16.6193C19.9165 16.859 19.7398 17.0685 19.5296 17.2357C19.3194 17.4028 19.0798 17.5243 18.8247 17.5931C18.5697 17.6619 18.3042 17.6767 18.0437 17.6366C17.7833 17.5964 17.5329 17.5022 17.3072 17.3593C17.0501 17.1965 16.7536 17.1165 16.454 17.1293C15.9907 17.1312 15.5459 17.3214 15.212 17.6603C14.8782 17.9993 14.681 18.4609 14.6615 18.9492C14.6602 19.223 14.6072 19.4938 14.5056 19.7458C14.4039 19.9977 14.2557 20.2258 14.0696 20.4166C13.8835 20.6075 13.6632 20.7573 13.4216 20.8573C13.1799 20.9573 12.9219 21.0055 12.6624 20.9992ZM12.0102 8.1797C11.2903 8.17168 10.5967 8.46503 10.0814 8.99547C9.56617 9.5259 9.27123 10.2502 9.26123 11.0096C9.2603 11.383 9.33113 11.7527 9.46945 12.0965C9.60778 12.4402 9.81072 12.7508 10.066 13.0095C10.5882 13.5408 11.2867 13.8354 12.0121 13.8305C12.5459 13.8401 13.0703 13.6811 13.5177 13.3738C13.9651 13.0665 14.3151 12.625 14.5227 12.1061C14.7303 11.5872 14.7859 11.0146 14.6824 10.4621C14.5789 9.90954 14.3211 9.40232 13.9421 9.00566C13.4272 8.47135 12.7324 8.1743 12.0102 8.1797Z" fill="white"/>
</svg>