<svg xmlns="http://www.w3.org/2000/svg" width="22" height="22" viewBox="0 0 22 22" fill="none">
  <path d="M15.4646 18.9913H7.53458C6.92627 19.029 6.31661 18.9439 5.74186 18.7411C5.16711 18.5383 4.63902 18.222 4.18901 17.811C3.77803 17.361 3.46175 16.8329 3.25898 16.2581C3.05622 15.6834 2.97111 15.0738 3.00872 14.4655V6.53459C2.971 5.92635 3.05597 5.31674 3.25859 4.742C3.46121 4.16726 3.77733 3.63913 4.18816 3.18902C4.6383 2.77794 5.16654 2.4616 5.74143 2.25883C6.31633 2.05607 6.92614 1.97101 7.53458 2.00873H15.4646C16.0725 1.97097 16.6817 2.05594 17.256 2.25856C17.8304 2.46119 18.358 2.77734 18.8076 3.18817C19.2182 3.63877 19.5345 4.16699 19.7378 4.74171C19.9411 5.31644 20.0273 5.92603 19.9913 6.53459V14.4655C20.029 15.0738 19.9439 15.6834 19.7411 16.2582C19.5383 16.8329 19.222 17.361 18.811 17.811C18.3609 18.2221 17.8326 18.5384 17.2577 18.7411C16.6828 18.9439 16.073 19.029 15.4646 18.9913ZM15.4476 11.2753C15.313 11.2759 15.1811 11.3135 15.0664 11.384C14.9538 11.4527 14.8635 11.5525 14.8062 11.6714C14.749 11.7902 14.7273 11.923 14.7437 12.0539V14.8391C14.7599 15.0143 14.8413 15.177 14.9719 15.295C15.1024 15.4129 15.2725 15.4775 15.4485 15.4759C15.6235 15.4743 15.7919 15.4086 15.9217 15.2912C16.0516 15.1739 16.1339 15.013 16.1532 14.8391V12.0539C16.1654 11.9225 16.1408 11.7902 16.0822 11.6719C16.0236 11.5536 15.9332 11.4539 15.8212 11.384C15.7095 11.3131 15.5799 11.2754 15.4476 11.2753ZM11.5433 5.40525C11.411 5.40538 11.2814 5.44307 11.1697 5.51394C11.058 5.5844 10.9678 5.68427 10.9091 5.8026C10.8504 5.92093 10.8254 6.05315 10.8368 6.18475V14.8391C10.8562 15.0132 10.9387 15.1742 11.0687 15.2915C11.1987 15.4089 11.3673 15.4745 11.5425 15.4759C11.7184 15.4773 11.8884 15.4127 12.0189 15.2947C12.1494 15.1768 12.2309 15.0142 12.2473 14.8391V6.18645C12.263 6.0556 12.241 5.923 12.184 5.80418C12.127 5.68537 12.0373 5.58527 11.9254 5.51563C11.8105 5.44468 11.6784 5.40651 11.5433 5.40525ZM7.58553 8.19209C7.4532 8.19217 7.32363 8.22987 7.21191 8.30078C7.10021 8.37118 7.01017 8.47109 6.95172 8.58948C6.89328 8.70787 6.86871 8.84011 6.88075 8.97159V14.8391C6.89891 15.0132 6.98095 15.1745 7.11103 15.2917C7.24111 15.4089 7.41 15.4738 7.5851 15.4738C7.7602 15.4738 7.92909 15.4089 8.05917 15.2917C8.18925 15.1745 8.27129 15.0132 8.28945 14.8391V8.97159C8.30138 8.84022 8.27686 8.7081 8.21859 8.58976C8.16031 8.47141 8.07054 8.37142 7.95914 8.30078C7.84737 8.22999 7.71783 8.19231 7.58553 8.19209Z" fill="white"/>
</svg>