<svg xmlns="http://www.w3.org/2000/svg" width="83" height="84" viewBox="0 0 83 84" fill="none">
  <circle cx="41" cy="42" r="39" stroke="#E9F2F3" stroke-width="4"/>
  <path d="M41.9316 81.1364C62.0381 81.1364 80.1362 63.1431 80.1362 42.0433C80.1362 20.9436 62.0381 2.86365 41.9316 2.86365" stroke="#a0b46f" stroke-width="4"/>
  <circle cx="41" cy="42" r="23" fill="#E3FAFF"/>
  <path fill-rule="evenodd" clip-rule="evenodd" d="M48.0654 47.9338C48.0654 46.6783 47.3192 45.4722 45.9383 44.5309C44.2014 43.3464 41.4067 42.5495 38.2471 42.5495C35.0874 42.5495 32.2927 43.3464 30.5558 44.5309C29.1749 45.4722 28.4287 46.6783 28.4287 47.9338V49.2868C28.429 49.7739 28.6227 50.2409 28.9671 50.5854C29.3115 50.9298 29.7786 51.1234 30.2657 51.1238H46.2284C46.4697 51.1241 46.7088 51.0768 46.9318 50.9846C47.1548 50.8924 47.3575 50.7571 47.5281 50.5865C47.6987 50.4158 47.834 50.2132 47.9262 49.9902C48.0184 49.7671 48.0657 49.5281 48.0654 49.2868V47.9338Z" fill="#a0b46f"/>
  <path fill-rule="evenodd" clip-rule="evenodd" d="M44.9697 42.5698C45.5981 42.8434 46.1631 43.15 46.6521 43.4845C48.4385 44.7019 49.3316 46.3083 49.3316 47.9338V49.2868C49.3316 49.9519 49.1188 50.5942 48.7298 51.1238H53.829C54.0704 51.1241 54.3094 51.0768 54.5324 50.9846C54.7554 50.8924 54.9581 50.7571 55.1287 50.5865C55.2994 50.4158 55.4347 50.2132 55.5269 49.9902C55.6191 49.7671 55.6664 49.5281 55.666 49.2868V47.9338C55.666 46.6783 54.9198 45.4722 53.5389 44.5309C51.802 43.3464 49.0073 42.5495 45.8477 42.5495C45.5512 42.5495 45.2586 42.5558 44.9697 42.5698Z" fill="#ABE8F1"/>
  <path d="M38.2466 41.5056C41.2202 41.5056 43.6308 39.095 43.6308 36.1213C43.6308 33.1477 41.2202 30.7371 38.2466 30.7371C35.2729 30.7371 32.8623 33.1477 32.8623 36.1213C32.8623 39.095 35.2729 41.5056 38.2466 41.5056Z" fill="#a0b46f"/>
  <path fill-rule="evenodd" clip-rule="evenodd" d="M43.0508 31.5213C44.1948 32.7159 44.8992 34.3375 44.8992 36.1213C44.8992 37.9051 44.1948 39.5254 43.0508 40.7201C43.8673 41.2159 44.8009 41.4857 45.756 41.5018C46.7111 41.5179 47.6532 41.2798 48.486 40.8118C49.3187 40.3438 50.012 39.6628 50.4948 38.8385C50.9776 38.0143 51.2326 37.0765 51.2336 36.1213C51.2328 35.166 50.978 34.228 50.4953 33.4036C50.0126 32.5793 49.3193 31.8981 48.4865 31.4299C47.6538 30.9618 46.7115 30.7235 45.7563 30.7396C44.8011 30.7556 43.8673 31.0254 43.0508 31.5213Z" fill="#ABE8F1"/>
</svg>