<svg xmlns="http://www.w3.org/2000/svg" width="38" height="38" viewBox="0 0 38 38" fill="none">
  <path
    d="M26.9517 22.6975L25.8684 20.8992C25.614 20.4007 25.4664 19.8546 25.435 19.2958V16.555C25.4339 15.346 25.0903 14.1621 24.4443 13.1402C23.7982 12.1183 22.8759 11.3003 21.7842 10.7808C21.5056 10.2861 21.0992 9.87533 20.6075 9.59138C20.1159 9.30743 19.5569 9.16075 18.9892 9.16668C18.4172 9.16604 17.8554 9.31838 17.362 9.60791C16.8687 9.89744 16.4617 10.3136 16.1834 10.8133C15.1123 11.3431 14.2103 12.1611 13.5787 13.1754C12.9472 14.1897 12.6111 15.3601 12.6084 16.555V19.2958C12.5783 19.8514 12.4306 20.3942 12.175 20.8883L11.0809 22.6975C10.8628 23.0293 10.7259 23.4078 10.6812 23.8023C10.6364 24.1968 10.6851 24.5963 10.8232 24.9685C10.9613 25.3408 11.1851 25.6753 11.4764 25.9451C11.7677 26.2149 12.1183 26.4124 12.5 26.5217C14.6012 27.2301 16.8044 27.5887 19.0217 27.5833C21.238 27.587 23.4404 27.2322 25.5434 26.5325C25.9159 26.4087 26.2557 26.2025 26.5376 25.9293C26.8194 25.656 27.0361 25.3228 27.1714 24.9543C27.3067 24.5858 27.3572 24.1915 27.3192 23.8008C27.2812 23.4101 27.1556 23.033 26.9517 22.6975Z"
    fill="#a0b46f" />
  <path
    d="M22.0661 28.6775C21.8383 29.3081 21.4219 29.8534 20.8733 30.2391C20.3248 30.6248 19.6709 30.8322 19.0003 30.8333C18.5726 30.8336 18.1491 30.7485 17.7547 30.5829C17.3603 30.4173 17.003 30.1747 16.7036 29.8691C16.3579 29.5351 16.0978 29.1226 15.9453 28.6666C16.0861 28.6883 16.227 28.6991 16.3786 28.7208C16.6278 28.7533 16.8878 28.7858 17.1478 28.8075C17.7653 28.8616 18.3936 28.8941 19.022 28.8941C19.6503 28.8941 20.257 28.8616 20.8636 28.8075C21.0911 28.7858 21.3186 28.775 21.5353 28.7425L22.0661 28.6775Z"
    fill="#a0b46f" />
</svg>