<svg xmlns="http://www.w3.org/2000/svg" width="16" height="16" viewBox="0 0 16 16" fill="none">
  <path d="M7.24601 11.0874C7.20734 11.0494 7.04201 10.9074 6.90601 10.7747C5.80664 9.64094 4.90042 8.33475 4.22334 6.90802C4.11458 6.65817 4.03948 6.39498 4.00001 6.12535C3.99913 5.91653 4.049 5.71062 4.14534 5.52535C4.28327 5.28896 4.495 5.10439 4.74801 5.00002C4.98108 4.92957 5.21789 4.87214 5.45735 4.82802C6.2975 4.70696 7.14596 4.65301 7.99468 4.66669C8.8167 4.65927 9.6383 4.70671 10.454 4.80869C10.7545 4.86052 11.0504 4.93655 11.3387 5.03602C11.5351 5.13342 11.7009 5.2832 11.8176 5.46884C11.9343 5.65448 11.9974 5.86876 12 6.08802V6.12602C11.9514 6.43103 11.8596 6.72756 11.7273 7.00669C11.0538 8.39934 10.1611 9.67489 9.08334 10.7847C8.96732 10.8997 8.84395 11.007 8.71401 11.106C8.50803 11.2558 8.25937 11.3355 8.00468 11.3334C7.73171 11.3364 7.46525 11.25 7.24601 11.0874Z" fill="#3E3E3E"/>
</svg>