<svg xmlns="http://www.w3.org/2000/svg" width="16" height="16" viewBox="0 0 16 16" fill="none">
  <path d="M8.75399 4.91265C8.79266 4.95065 8.95799 5.09265 9.09399 5.22531C10.1934 6.35906 11.0996 7.66525 11.7767 9.09198C11.8854 9.34183 11.9605 9.60502 12 9.87465C12.0009 10.0835 11.951 10.2894 11.8547 10.4746C11.7167 10.711 11.505 10.8956 11.252 11C11.0189 11.0704 10.7821 11.1279 10.5427 11.172C9.7025 11.293 8.85404 11.347 8.00532 11.3333C7.1833 11.3407 6.3617 11.2933 5.54599 11.1913C5.24546 11.1395 4.94961 11.0635 4.66132 10.964C4.46487 10.8666 4.29914 10.7168 4.18244 10.5312C4.06574 10.3455 4.0026 10.1312 3.99999 9.91198L3.99999 9.87398C4.0486 9.56897 4.14041 9.27243 4.27266 8.99331C4.94622 7.60065 5.8389 6.32511 6.91666 5.21531C7.03268 5.10032 7.15605 4.99298 7.28599 4.89398C7.49197 4.74416 7.74063 4.66447 7.99532 4.66665C8.26829 4.66361 8.53475 4.75001 8.75399 4.91265Z" fill="#B7B7B7"/>
</svg>