<svg xmlns="http://www.w3.org/2000/svg" width="20" height="20" viewBox="0 0 20 20" fill="none">
  <path d="M1.66756 9.68333C1.66756 9.51757 1.73341 9.3586 1.85062 9.24139C1.96783 9.12418 2.1268 9.05833 2.29256 9.05833H10.8342V7.29583C10.8342 5.39416 13.0176 4.32 14.5234 5.47916L17.6259 7.86833C17.9039 8.08239 18.1291 8.35743 18.284 8.67226C18.439 8.98708 18.5195 9.33328 18.5195 9.68417C18.5195 10.035 18.439 10.3812 18.284 10.6961C18.1291 11.0109 17.9039 11.2859 17.6259 11.5L14.5242 13.8875C13.0176 15.0458 10.8342 13.9708 10.8342 12.0692V10.3083H2.29256C2.1268 10.3083 1.96783 10.2425 1.85062 10.1253C1.73341 10.0081 1.66756 9.84909 1.66756 9.68333Z" fill="black"/>
</svg>