<?xml version="1.0" encoding="UTF-8"?>
<svg xmlns="http://www.w3.org/2000/svg" xmlns:xlink="http://www.w3.org/1999/xlink" width="25px" height="25px" viewBox="0 0 25 25" version="1.1">
<defs>
<filter id="alpha" filterUnits="objectBoundingBox" x="0%" y="0%" width="100%" height="100%">
  <feColorMatrix type="matrix" in="SourceGraphic" values="0 0 0 0 1 0 0 0 0 1 0 0 0 0 1 0 0 0 1 0"/>
</filter>
<mask id="mask0">
  <g filter="url(#alpha)">
<rect x="0" y="0" width="25" height="25" style="fill:rgb(0%,0%,0%);fill-opacity:0.141176;stroke:none;"/>
  </g>
</mask>
<clipPath id="clip1">
  <rect x="0" y="0" width="25" height="25"/>
</clipPath>
<g id="surface5" clip-path="url(#clip1)">
<path style=" stroke:none;fill-rule:nonzero;fill:rgb(9.019608%,16.078432%,17.647059%);fill-opacity:1;" d="M 21.25 6.25 L 16.929688 1.929688 C 15.449219 2.203125 14.375 3.496094 14.375 5 L 14.375 6.25 C 14.375 7.976562 15.773438 9.375 17.5 9.375 L 21.25 9.375 Z M 21.25 6.25 "/>
</g>
</defs>
<g id="surface1">
<path style=" stroke:none;fill-rule:nonzero;fill:rgb(85.09804%,89.411765%,90.980393%);fill-opacity:1;" d="M 5.625 24.375 C 4.246094 24.375 3.125 23.253906 3.125 21.875 L 3.125 3.125 C 3.125 1.746094 4.246094 0.625 5.625 0.625 L 14.746094 0.625 L 21.875 7.757812 L 21.875 21.875 C 21.875 23.253906 20.753906 24.375 19.375 24.375 Z M 5.625 24.375 "/>
<use xlink:href="#surface5" mask="url(#mask0)"/>
<path style=" stroke:none;fill-rule:nonzero;fill:rgb(47.450981%,82.745099%,82.745099%);fill-opacity:1;" d="M 17.5 7.5 C 16.121094 7.5 15 6.378906 15 5 L 15 0.882812 L 21.597656 7.5 Z M 17.5 7.5 "/>
<path style=" stroke:none;fill-rule:nonzero;fill:rgb(100%,100%,100%);fill-opacity:1;" d="M 9.375 20 C 8.683594 20 8.125 19.441406 8.125 18.75 C 8.125 18.058594 8.683594 17.5 9.375 17.5 C 10.066406 17.5 10.625 18.058594 10.625 18.75 C 10.625 19.441406 10.066406 20 9.375 20 M 14.375 19.375 C 13.683594 19.375 13.125 18.816406 13.125 18.125 C 13.125 17.433594 13.683594 16.875 14.375 16.875 C 15.066406 16.875 15.625 17.433594 15.625 18.125 C 15.625 18.816406 15.066406 19.375 14.375 19.375 "/>
<path style=" stroke:none;fill-rule:nonzero;fill:rgb(7.843138%,12.156863%,21.960784%);fill-opacity:1;" d="M 15.007812 0 L 5.625 0 C 3.898438 0 2.5 1.398438 2.5 3.125 L 2.5 21.875 C 2.5 23.601562 3.898438 25 5.625 25 L 19.375 25 C 21.101562 25 22.5 23.601562 22.5 21.875 L 22.5 7.5 Z M 20.09375 6.875 L 17.5 6.875 C 16.464844 6.875 15.625 6.035156 15.625 5 L 15.625 2.398438 Z M 21.25 21.875 C 21.25 22.910156 20.410156 23.75 19.375 23.75 L 5.625 23.75 C 4.589844 23.75 3.75 22.910156 3.75 21.875 L 3.75 3.125 C 3.75 2.089844 4.589844 1.25 5.625 1.25 L 14.375 1.25 L 14.375 5 C 14.375 6.726562 15.773438 8.125 17.5 8.125 L 21.25 8.125 Z M 21.25 21.875 "/>
<path style=" stroke:none;fill-rule:nonzero;fill:rgb(7.843138%,12.156863%,21.960784%);fill-opacity:1;" d="M 16.25 12.464844 C 16.25 12.453125 16.25 12.4375 16.246094 12.429688 L 16.246094 12.421875 C 16.246094 12.421875 16.246094 12.410156 16.242188 12.40625 C 16.242188 12.390625 16.238281 12.378906 16.234375 12.363281 C 16.234375 12.351562 16.230469 12.351562 16.230469 12.34375 C 16.226562 12.335938 16.222656 12.316406 16.21875 12.304688 C 16.214844 12.292969 16.214844 12.289062 16.210938 12.285156 C 16.210938 12.277344 16.203125 12.257812 16.195312 12.246094 C 16.191406 12.234375 16.191406 12.234375 16.1875 12.226562 C 16.183594 12.222656 16.175781 12.203125 16.167969 12.191406 L 16.160156 12.175781 C 16.152344 12.164062 16.144531 12.152344 16.136719 12.140625 L 16.125 12.125 C 16.117188 12.113281 16.109375 12.105469 16.101562 12.09375 L 16.085938 12.078125 C 16.078125 12.070312 16.066406 12.058594 16.058594 12.050781 L 16.042969 12.035156 C 16.03125 12.027344 16.023438 12.019531 16.015625 12.011719 L 15.992188 11.996094 L 15.96875 11.976562 C 15.957031 11.972656 15.949219 11.964844 15.9375 11.957031 L 15.917969 11.949219 C 15.90625 11.941406 15.890625 11.933594 15.878906 11.929688 L 15.867188 11.921875 C 15.847656 11.917969 15.832031 11.910156 15.8125 11.90625 C 15.753906 11.886719 15.691406 11.875 15.628906 11.875 L 15.550781 11.875 L 10.546875 12.503906 L 10.53125 12.507812 C 10.515625 12.507812 10.503906 12.511719 10.488281 12.515625 L 10.46875 12.519531 C 10.453125 12.523438 10.441406 12.527344 10.429688 12.53125 L 10.40625 12.539062 L 10.375 12.550781 L 10.347656 12.566406 L 10.320312 12.578125 L 10.292969 12.59375 L 10.269531 12.609375 L 10.246094 12.628906 L 10.21875 12.648438 L 10.199219 12.667969 C 10.191406 12.675781 10.183594 12.679688 10.175781 12.6875 L 10.160156 12.707031 C 10.152344 12.71875 10.144531 12.726562 10.136719 12.734375 L 10.121094 12.753906 C 10.113281 12.765625 10.109375 12.773438 10.101562 12.785156 L 10.089844 12.804688 C 10.082031 12.8125 10.078125 12.824219 10.070312 12.835938 C 10.066406 12.847656 10.0625 12.851562 10.0625 12.855469 C 10.058594 12.863281 10.050781 12.878906 10.046875 12.890625 C 10.039062 12.902344 10.039062 12.90625 10.039062 12.914062 C 10.035156 12.921875 10.03125 12.9375 10.027344 12.949219 C 10.023438 12.960938 10.023438 12.964844 10.019531 12.972656 C 10.015625 12.980469 10.015625 12.996094 10.011719 13.007812 C 10.011719 13.015625 10.007812 13.027344 10.007812 13.035156 C 10.007812 13.046875 10.003906 13.058594 10.003906 13.066406 C 10.003906 13.078125 10.003906 13.089844 10.003906 13.101562 L 10.003906 16.980469 C 9.234375 16.707031 8.375 16.964844 7.882812 17.613281 C 7.386719 18.265625 7.371094 19.160156 7.84375 19.828125 C 8.3125 20.496094 9.160156 20.78125 9.941406 20.535156 C 10.71875 20.289062 11.25 19.566406 11.25 18.75 L 11.25 15.550781 L 15 15.082031 L 15 16.359375 C 14.230469 16.085938 13.371094 16.34375 12.878906 16.992188 C 12.386719 17.644531 12.371094 18.539062 12.84375 19.207031 C 13.316406 19.875 14.164062 20.160156 14.941406 19.914062 C 15.722656 19.664062 16.25 18.941406 16.25 18.125 L 16.25 12.492188 C 16.25 12.492188 16.25 12.472656 16.25 12.464844 M 9.375 19.375 C 9.03125 19.375 8.75 19.09375 8.75 18.75 C 8.75 18.40625 9.03125 18.125 9.375 18.125 C 9.71875 18.125 10 18.40625 10 18.75 C 10 19.09375 9.71875 19.375 9.375 19.375 M 11.25 14.292969 L 11.25 13.675781 L 15 13.207031 L 15 13.824219 Z M 14.375 18.75 C 14.03125 18.75 13.75 18.46875 13.75 18.125 C 13.75 17.78125 14.03125 17.5 14.375 17.5 C 14.71875 17.5 15 17.78125 15 18.125 C 15 18.46875 14.71875 18.75 14.375 18.75 "/>
</g>
</svg>
