<svg xmlns="http://www.w3.org/2000/svg" width="24" height="24" viewBox="0 0 24 24" fill="none">
  <path d="M11.9897 20C7.86067 20 4.14767 17.115 2.05867 12.281C2.01996 12.1908 2 12.0937 2 11.9955C2 11.8973 2.01996 11.8002 2.05867 11.71C4.14567 6.882 7.85767 4 11.9897 4H11.9997C14.0874 4.01915 16.108 4.73976 17.7367 6.046C19.5895 7.55189 21.0338 9.49965 21.9367 11.71C21.9753 11.8002 21.9952 11.8973 21.9952 11.9955C21.9952 12.0937 21.9753 12.1908 21.9367 12.281C19.8507 17.115 16.1347 20 11.9997 20H11.9897ZM8.09967 12C8.09551 12.7722 8.3207 13.5283 8.7467 14.1724C9.17271 14.8165 9.78034 15.3197 10.4926 15.6181C11.2049 15.9165 11.9897 15.9967 12.7476 15.8486C13.5055 15.7005 14.2023 15.3307 14.7499 14.7862C15.2974 14.2416 15.6709 13.5467 15.8231 12.7896C15.9753 12.0325 15.8993 11.2473 15.6048 10.5334C15.3102 9.81957 14.8104 9.20923 14.1686 8.77976C13.5268 8.35028 12.7719 8.12101 11.9997 8.121C10.9681 8.11834 9.97781 8.5255 9.24644 9.25293C8.51508 9.98035 8.10258 10.9685 8.09967 12ZM9.56167 12C9.56273 11.8405 9.57914 11.6814 9.61067 11.525H9.65967C10.1767 11.5254 10.6738 11.3256 11.0467 10.9674C11.4196 10.6093 11.6392 10.1206 11.6597 9.604C11.7719 9.58428 11.8857 9.57424 11.9997 9.574C12.477 9.57775 12.9425 9.72263 13.3377 9.99039C13.7328 10.2582 14.0399 10.6368 14.2203 11.0788C14.4007 11.5207 14.4463 12.0061 14.3514 12.4739C14.2565 12.9417 14.0253 13.3709 13.6869 13.7076C13.3486 14.0443 12.9182 14.2734 12.4499 14.366C11.9817 14.4586 11.4965 14.4106 11.0555 14.228C10.6144 14.0454 10.2373 13.7365 9.97145 13.34C9.70564 12.9436 9.56306 12.4773 9.56167 12Z" fill="#595959"/>
</svg>