<svg xmlns="http://www.w3.org/2000/svg" width="18" height="18" viewBox="0 0 18 18" fill="none">
  <path d="M8.128 17.568C7.57572 17.568 7.128 17.1203 7.128 16.568V11.26C7.128 10.7077 6.68028 10.26 6.128 10.26H0.999999C0.447714 10.26 0 9.81228 0 9.26V8.092C0 7.53971 0.447715 7.092 1 7.092H6.128C6.68029 7.092 7.128 6.64428 7.128 6.092V1C7.128 0.447716 7.57572 0 8.128 0H9.44C9.99228 0 10.44 0.447715 10.44 1V6.092C10.44 6.64428 10.8877 7.092 11.44 7.092H16.568C17.1203 7.092 17.568 7.53971 17.568 8.092V9.26C17.568 9.81228 17.1203 10.26 16.568 10.26H11.44C10.8877 10.26 10.44 10.7077 10.44 11.26V16.568C10.44 17.1203 9.99229 17.568 9.44 17.568H8.128Z" fill="white"/>
</svg>