<svg xmlns="http://www.w3.org/2000/svg" width="24" height="24" viewBox="0 0 24 24" fill="none">
  <path d="M14.2796 21C14.0082 21 13.7478 20.8922 13.5559 20.7002C13.3639 20.5083 13.2561 20.248 13.2561 19.9765C13.2561 19.7051 13.3639 19.4447 13.5559 19.2528C13.7478 19.0608 14.0082 18.953 14.2796 18.953H19.9896C20.2611 18.953 20.5214 19.0608 20.7133 19.2528C20.9053 19.4447 21.0131 19.7051 21.0131 19.9765C21.0131 20.248 20.9053 20.5083 20.7133 20.7002C20.5214 20.8922 20.2611 21 19.9896 21H14.2796ZM3.84762 20.576L3.04762 17.125C2.97532 16.8142 2.97373 16.4911 3.04296 16.1795C3.11219 15.868 3.25047 15.576 3.44762 15.325L9.68362 7.26801C9.73428 7.20695 9.80625 7.1674 9.88496 7.15737C9.96368 7.14735 10.0433 7.16759 10.1076 7.21402L12.7296 9.30001C12.8192 9.37312 12.9229 9.42708 13.0342 9.45855C13.1454 9.49003 13.262 9.49835 13.3766 9.48301C13.6224 9.45101 13.8457 9.32376 13.9985 9.12867C14.1513 8.93358 14.2214 8.68627 14.1936 8.44001C14.1614 8.19645 14.045 7.97182 13.8646 7.80501L11.3186 5.76301C11.2411 5.70123 11.191 5.61149 11.179 5.51311C11.1671 5.41472 11.1942 5.31558 11.2546 5.23701L12.2406 3.95701C12.4643 3.67908 12.7431 3.45047 13.0595 3.28558C13.3758 3.1207 13.7229 3.02311 14.0788 2.99897C14.4348 2.97482 14.7919 3.02465 15.1276 3.1453C15.4633 3.26596 15.7705 3.45483 16.0296 3.70001L17.5046 4.87201C18.0806 5.30323 18.4863 5.92351 18.6506 6.62401C18.7293 6.97911 18.7263 7.34745 18.6417 7.70121C18.5572 8.05496 18.3934 8.38487 18.1626 8.66601L9.37662 20.028C9.18313 20.2782 8.93575 20.4816 8.65287 20.623C8.36998 20.7645 8.05886 20.8403 7.74262 20.845L4.24262 20.887C4.15114 20.8882 4.06203 20.8579 3.99015 20.8013C3.91827 20.7447 3.86796 20.6652 3.84762 20.576Z" fill="#5FB9C6"/>
</svg>