<svg xmlns="http://www.w3.org/2000/svg" width="24" height="24" viewBox="0 0 24 24" fill="none">
  <path d="M8.13207 21.961C7.37111 21.9655 6.63853 21.6724 6.09072 21.1442C5.54291 20.616 5.22328 19.8946 5.20007 19.134C4.88707 16.287 4.36407 9.557 4.35407 9.489C4.34342 9.28533 4.41185 9.08542 4.54507 8.931C4.6114 8.85825 4.69216 8.80013 4.78222 8.76036C4.87227 8.72058 4.96963 8.70003 5.06807 8.7H18.9391C19.0376 8.70137 19.1348 8.72283 19.2247 8.76306C19.3146 8.8033 19.3954 8.86146 19.4621 8.934C19.5284 9.00992 19.5787 9.09852 19.6098 9.19444C19.6409 9.29035 19.6522 9.39158 19.6431 9.492C19.6431 9.56 19.1101 16.301 18.8061 19.137C18.7823 19.9094 18.4531 20.6409 17.8906 21.1709C17.3282 21.7008 16.5785 21.9861 15.8061 21.964C14.5151 21.99 13.2491 22 12.0001 22C10.6811 22 9.38707 21.99 8.13207 21.961ZM3.71407 7.091C3.52255 7.0868 3.34036 7.0075 3.20679 6.87018C3.07322 6.73287 2.99897 6.54856 3.00007 6.357V5.977C2.99875 5.88192 3.01617 5.78751 3.05134 5.69917C3.0865 5.61082 3.13873 5.53027 3.20503 5.46211C3.27134 5.39395 3.35042 5.33951 3.43776 5.30192C3.5251 5.26433 3.61899 5.2443 3.71407 5.243H6.63007C6.92149 5.24007 7.20321 5.13793 7.4288 4.95342C7.6544 4.76891 7.81039 4.51305 7.87107 4.228L8.02307 3.546C8.12234 3.11128 8.36482 2.72253 8.71156 2.44216C9.0583 2.16179 9.4892 2.00607 9.93507 2H14.0641C14.5018 2.00582 14.9253 2.15602 15.2689 2.42726C15.6124 2.6985 15.8568 3.07561 15.9641 3.5L16.1271 4.23C16.1872 4.5154 16.343 4.7717 16.5687 4.95647C16.7944 5.14123 17.0764 5.24338 17.3681 5.246H20.2841C20.3791 5.24691 20.473 5.26656 20.5605 5.3038C20.6479 5.34104 20.7271 5.39516 20.7936 5.46306C20.8601 5.53095 20.9126 5.61129 20.948 5.69948C20.9834 5.78766 21.0011 5.88197 21.0001 5.977V6.357C21.0012 6.54839 20.9271 6.73256 20.7937 6.86984C20.6604 7.00713 20.4784 7.08655 20.2871 7.091H3.71407Z" fill="#FF0000"/>
</svg>