<svg xmlns="http://www.w3.org/2000/svg" width="13" height="18" viewBox="0 0 13 18" fill="none">
  <path d="M1.0271 11.8712L6.06712 17.6313C6.16851 17.7471 6.29348 17.8399 6.43366 17.9035C6.57384 17.9671 6.726 18 6.87993 18C7.03386 18 7.18602 17.9671 7.3262 17.9035C7.46638 17.8399 7.59135 17.7471 7.69274 17.6313L12.7328 11.8713C12.8694 11.7151 12.9582 11.5229 12.9884 11.3176C13.0187 11.1124 12.9892 10.9027 12.9035 10.7138C12.8177 10.5248 12.6794 10.3646 12.505 10.2522C12.3305 10.1398 12.1274 10.08 11.9199 10.08L10.1199 10.08L10.1199 1.08C10.1199 0.483553 9.63639 -2.94057e-07 9.03994 -3.462e-07L4.71992 -7.23867e-07C4.12347 -7.76011e-07 3.63992 0.483552 3.63992 1.08L3.63992 10.08L1.83992 10.08C1.63242 10.08 1.42932 10.1398 1.2549 10.2522C1.08047 10.3646 0.942119 10.5248 0.856378 10.7138C0.770638 10.9027 0.741142 11.1123 0.771419 11.3176C0.801695 11.5229 0.890463 11.7151 1.0271 11.8712Z" fill="#FF0000"/>
</svg>