<svg xmlns="http://www.w3.org/2000/svg" width="26" height="26" viewBox="0 0 26 26" fill="none">
  <path d="M23.8333 12.5883C23.8333 12.3728 23.7477 12.1662 23.5954 12.0138C23.443 11.8614 23.2363 11.7758 23.0208 11.7758H11.9167V9.48455C11.9167 7.01238 9.07834 5.61597 7.12076 7.12288L3.08751 10.2288C2.72607 10.5071 2.43336 10.8646 2.23195 11.2739C2.03053 11.6832 1.92578 12.1332 1.92578 12.5894C1.92578 13.0455 2.03053 13.4956 2.23195 13.9049C2.43336 14.3141 2.72607 14.6717 3.08751 14.95L7.11968 18.0537C9.07834 19.5596 11.9167 18.1621 11.9167 15.6899V13.4008H23.0208C23.2363 13.4008 23.443 13.3152 23.5954 13.1628C23.7477 13.0105 23.8333 12.8038 23.8333 12.5883Z" fill="#3E3E3E"/>
</svg>