<svg xmlns="http://www.w3.org/2000/svg" width="14" height="14" viewBox="0 0 14 14" fill="none">
  <path d="M6.34026 9.70144C6.30643 9.66819 6.16176 9.54394 6.04276 9.42786C5.08081 8.43583 4.28787 7.29292 3.69543 6.04452C3.60026 5.8259 3.53455 5.59561 3.50001 5.35969C3.49924 5.17697 3.54288 4.9968 3.62718 4.83469C3.74786 4.62784 3.93313 4.46635 4.15451 4.37502C4.35845 4.31338 4.56566 4.26313 4.77518 4.22452C5.51031 4.1186 6.25271 4.07139 6.99534 4.08336C7.71461 4.07687 8.43352 4.11838 9.14726 4.20761C9.41022 4.25296 9.66909 4.31948 9.92134 4.40652C10.0932 4.49175 10.2383 4.62281 10.3404 4.78525C10.4425 4.94768 10.4977 5.13517 10.5 5.32702V5.36027C10.4575 5.62716 10.3771 5.88663 10.2614 6.13086C9.67206 7.34943 8.89096 8.46554 7.94793 9.43661C7.8464 9.53723 7.73845 9.63115 7.62476 9.71777C7.44453 9.84887 7.22695 9.9186 7.00409 9.91669C6.76525 9.91935 6.5321 9.84375 6.34026 9.70144Z" fill="#498D96"/>
</svg>