<svg id="Layer_1" data-name="Layer 1" xmlns="http://www.w3.org/2000/svg" viewBox="0 0 512 512"><title>volume-sound-speaker-outline</title><path d="M317,77.79l22.8-10.48V444.69L159.27,363.06H63.46q-24.66,0-40.67-21.88Q9.86,323.93,4,296.51a199.16,199.16,0,0,1-4-40.36A196.35,196.35,0,0,1,4,215.8q5.85-27.42,18.79-44.67,16-21.86,40.67-21.87h95.81ZM146.64,181.3H63.46q-19.41,0-28,41a171.31,171.31,0,0,0,0,67.78q8.62,40.67,28,40.67h83.18Zm160.81-64.08L178.67,175.44V336.56l128.78,58.53Zm85.64,70.86-16-27.73,90.88-52.68,16,27.73Zm-.31,136.16L484,376.61l-16,27.73L377.07,352ZM407,240.13H512v32H407Z"/></svg>