<svg xmlns="http://www.w3.org/2000/svg" width="28" height="28" viewBox="0 0 28 28" fill="none">
	<g clip-path="url(#clip0_3702_4693)">
		<path d="M27.7536 23.3005L15.4691 2.92781C15.3165 2.67466 15.101 2.46525 14.8436 2.31989C14.5862 2.17453 14.2956 2.09814 14 2.09814C13.7043 2.09814 13.4137 2.17453 13.1563 2.31989C12.8989 2.46525 12.6834 2.67466 12.5308 2.92781L0.246427 23.3005C0.089493 23.5607 0.00451081 23.858 0.000174672 24.1619C-0.00416147 24.4658 0.0723041 24.7653 0.221749 25.03C0.371193 25.2946 0.588252 25.5148 0.85072 25.668C1.11319 25.8212 1.41164 25.9019 1.71555 25.9019H26.2844C26.5883 25.9019 26.8867 25.8211 27.1492 25.6679C27.4117 25.5147 27.6287 25.2946 27.7782 25.0299C27.9276 24.7653 28.0041 24.4658 27.9998 24.1619C27.9954 23.858 27.9105 23.5608 27.7536 23.3005ZM14.0091 9.14523C14.7147 9.14523 15.3116 9.54324 15.3116 10.2487C15.3116 12.4014 15.0584 15.4948 15.0584 17.6475C15.0584 18.2083 14.4433 18.4434 14.0091 18.4434C13.4303 18.4434 12.9419 18.2083 12.9419 17.6475C12.9419 15.4948 12.6887 12.4014 12.6887 10.2487C12.6887 9.54324 13.2675 9.14523 14.0091 9.14523ZM14.0272 22.4775C13.2313 22.4775 12.6343 21.8263 12.6343 21.0847C12.6343 20.3249 13.2313 19.6918 14.0272 19.6918C14.7689 19.6918 15.4021 20.3249 15.4021 21.0847C15.4021 21.8263 14.7689 22.4775 14.0272 22.4775Z" fill="#FF0000"/>
	</g>
	<defs>
		<clipPath id="clip0_3702_4693">
			<rect width="28" height="28" fill="white"/>
		</clipPath>
	</defs>
</svg>