<svg xmlns="http://www.w3.org/2000/svg" width="28" height="28" viewBox="0 0 28 28" fill="none">
  <path d="M9.48741 25.6211C8.59963 25.6264 7.74495 25.2845 7.10584 24.6682C6.46673 24.052 6.09383 23.2104 6.06675 22.323C5.70158 19.0015 5.09141 11.1498 5.07975 11.0705C5.06732 10.8329 5.14716 10.5996 5.30258 10.4195C5.37996 10.3346 5.47419 10.2668 5.57925 10.2204C5.68431 10.174 5.7979 10.15 5.91275 10.15H22.0956C22.2105 10.1516 22.3239 10.1766 22.4288 10.2236C22.5337 10.2705 22.628 10.3384 22.7057 10.423C22.7832 10.5116 22.8418 10.6149 22.8781 10.7268C22.9144 10.8387 22.9276 10.9568 22.9169 11.074C22.9169 11.1533 22.2951 19.0178 21.9404 22.3265C21.9127 23.2276 21.5286 24.081 20.8724 24.6993C20.2163 25.3176 19.3416 25.6504 18.4404 25.6246C16.9342 25.655 15.4572 25.6666 14.0001 25.6666C12.4612 25.6666 10.9516 25.655 9.48741 25.6211ZM4.33308 8.27281C4.10965 8.26792 3.89709 8.17539 3.74126 8.0152C3.58542 7.855 3.4988 7.63996 3.50008 7.41648V6.97315C3.49854 6.86222 3.51886 6.75208 3.55989 6.64901C3.60092 6.54594 3.66185 6.45196 3.73921 6.37244C3.81656 6.29292 3.90882 6.22941 4.01072 6.18555C4.11262 6.14169 4.22216 6.11833 4.33308 6.11681H7.73508C8.07507 6.11339 8.40375 5.99423 8.66694 5.77897C8.93013 5.56371 9.11212 5.2652 9.18291 4.93265L9.36025 4.13698C9.47607 3.62981 9.75895 3.17626 10.1635 2.84917C10.568 2.52207 11.0707 2.3404 11.5909 2.33331H16.4081C16.9187 2.34011 17.4128 2.51534 17.8137 2.83179C18.2145 3.14823 18.4996 3.58819 18.6247 4.08331L18.8149 4.93498C18.8851 5.26795 19.0669 5.56697 19.3302 5.78253C19.5935 5.99809 19.9225 6.11726 20.2627 6.12031H23.6647C23.7756 6.12138 23.8852 6.14429 23.9872 6.18775C24.0892 6.2312 24.1816 6.29433 24.2592 6.37354C24.3368 6.45275 24.398 6.54648 24.4393 6.64937C24.4807 6.75225 24.5013 6.86228 24.5001 6.97315V7.41648C24.5014 7.63977 24.4149 7.85463 24.2593 8.01479C24.1037 8.17496 23.8915 8.26762 23.6682 8.27281H4.33308Z" fill="#FF0000"/>
</svg>