<svg xmlns="http://www.w3.org/2000/svg" width="28" height="27" viewBox="0 0 28 27" fill="none">
  <path d="M23.4196 2.60608C25.0669 2.78352 26.2585 4.26279 26.0811 5.91011L24.2445 22.9599C24.0671 24.6072 22.5878 25.7988 20.9405 25.6213L6.77317 24.0953L9.25229 1.08002L23.4196 2.60608Z" fill="#132F3B"/>
  <path d="M18.8281 23.2119L4.61552 24.2107C2.96275 24.3269 1.52875 23.0812 1.41259 21.4284L0.210563 4.32439C0.0944098 2.67161 1.34009 1.23761 2.99287 1.12146L14.2128 0.332945C15.8656 0.216792 17.2996 1.46247 17.4158 3.11525L18.8281 23.2119Z" fill="#388CB2"/>
  <path d="M13.1855 23.6071L18.829 23.2103L17.4157 3.11262C17.2994 1.45984 15.8654 0.21422 14.2126 0.330453L13.1855 0.40268V23.6071Z" fill="#265D77"/>
  <path d="M4.48047 24C4.48047 25.6568 5.82361 27 7.48047 27H17.1605C18.8173 27 20.1605 25.6568 20.1605 24V7.59997C20.1605 5.94312 18.8173 4.59998 17.1605 4.59998H7.48047C5.82362 4.59998 4.48047 5.94312 4.48047 7.59998V24Z" fill="#B7E4F8"/>
  <path d="M12.3203 4.59998H17.1603C18.8172 4.59998 20.1603 5.94312 20.1603 7.59998V24C20.1603 25.6568 18.8172 27 17.1603 27H12.3203V4.59998Z" fill="#6FC8F1"/>
  <path d="M7.35938 16.1812H17.846V17.7891H7.35938V16.1812ZM7.35938 19.0411H17.846V20.6489H7.35938V19.0411ZM7.35938 21.9009H17.846V23.5088H7.35938V21.9009Z" fill="#265D77"/>
  <path d="M13.1855 16.1812H17.8477V17.7891H13.1855V16.1812ZM13.1855 21.901H17.8477V23.5089H13.1855V21.901ZM13.1855 19.0411H17.8477V20.649H13.1855V19.0411Z" fill="#132F3B"/>
  <path d="M7.19727 11.5507C7.19727 9.99509 8.39105 8.90259 10.019 8.90259C11.0102 8.90259 11.7916 9.26438 12.2908 9.9155L11.2128 10.8777C10.9161 10.5015 10.5617 10.2844 10.1058 10.2844C9.39683 10.2844 8.9193 10.7764 8.9193 11.5506C8.9193 12.3247 9.39683 12.8167 10.1058 12.8167C10.5617 12.8167 10.9162 12.5996 11.2128 12.2234L12.2908 13.1856C11.7916 13.8367 11.0102 14.1985 10.019 14.1985C8.39105 14.1987 7.19727 13.1062 7.19727 11.5507ZM18.1949 9.01833L16.0533 14.083H14.3747L12.233 9.01833H14.0707L15.279 11.9775L16.5163 9.01833H18.1949Z" fill="#265D77"/>
  <path d="M16.5181 9.01868L15.2808 11.9779L14.0725 9.01868H13.1855V11.2672L14.3764 14.0834H16.055L18.1966 9.01868H16.5181Z" fill="#132F3B"/>
</svg>