<svg xmlns="http://www.w3.org/2000/svg" width="24" height="24" viewBox="0 0 24 24" fill="none">
  <g clip-path="url(#clip0_3702_3140)">
    <path fill-rule="evenodd" clip-rule="evenodd" d="M1.57155 8.81859C1.41344 8.81859 1.28516 8.69031 1.28516 8.53219V4.04878C1.28516 3.89066 1.41344 3.76288 1.57155 3.76288C1.72917 3.76288 1.85745 3.89066 1.85745 4.04878V8.53219C1.85745 8.69031 1.72917 8.81859 1.57155 8.81859Z" fill="#FFC738"/>
    <path fill-rule="evenodd" clip-rule="evenodd" d="M14.1734 24.2985C14.1316 24.2985 14.0903 24.2896 14.0515 24.2712L12.8284 23.6949L11.6201 24.2707C11.5316 24.313 11.4272 24.307 11.3442 24.2543C11.2612 24.2021 11.2109 24.1106 11.2109 24.0126V21.2516C11.2109 21.0935 11.3392 20.9657 11.4968 20.9657H14.1734C14.3315 20.9657 14.4593 21.0935 14.4593 21.2516V24.0126C14.4593 24.1106 14.4095 24.2016 14.3265 24.2543C14.2803 24.2836 14.2271 24.2985 14.1734 24.2985Z" fill="#E93459"/>
    <path fill-rule="evenodd" clip-rule="evenodd" d="M16.1051 14.3599H9.1779C7.07566 14.3599 5.36523 12.6494 5.36523 10.5472V5.56904C5.36523 5.47656 5.41048 5.38905 5.48606 5.33584C5.56213 5.28214 5.65909 5.26872 5.7466 5.29955C9.12321 6.49436 12.1319 7.49874 12.6167 7.59421L19.5379 5.19662C19.6254 5.16629 19.7224 5.18022 19.7975 5.23391C19.8731 5.28761 19.9178 5.37463 19.9178 5.46711V10.5472C19.9178 12.6494 18.2074 14.3599 16.1051 14.3599Z" fill="#414547"/>
    <path fill-rule="evenodd" clip-rule="evenodd" d="M5.38761 10.9597C5.37269 10.8239 5.36523 10.6867 5.36523 10.5475V10.3874H19.9178V10.5475C19.9178 10.6867 19.9103 10.8239 19.8954 10.9597H5.38761Z" fill="#FFCD00"/>
    <path fill-rule="evenodd" clip-rule="evenodd" d="M12.6487 8.17327H12.6482C12.2976 8.17327 8.99063 7.03961 7.05098 6.36389C5.27442 5.74486 1.81329 4.51623 1.42944 4.29696C1.33447 4.24276 1.27878 4.13934 1.28574 4.03045C1.2927 3.92156 1.36082 3.82609 1.46126 3.78433C2.32145 3.42633 11.9312 0 12.6487 0C13.3676 0.000994436 22.9093 3.40147 23.8266 3.79029C23.9355 3.83604 24.0046 3.94493 24.0006 4.06326C23.9967 4.1816 23.9201 4.28502 23.8087 4.32381L12.7421 8.15736C12.7123 8.1678 12.6805 8.17327 12.6487 8.17327Z" fill="#2C3033"/>
    <path fill-rule="evenodd" clip-rule="evenodd" d="M2.85614 11.0432C2.85614 11.0432 2.85565 11.0432 2.85515 11.0432H0.286025C0.183598 11.0432 0.0891263 10.9885 0.0384101 10.9C-0.0128034 10.8115 -0.0128034 10.7026 0.0384101 10.6141L1.32272 8.38905C1.37394 8.30054 1.46841 8.24585 1.57084 8.24585C1.67277 8.24585 1.76724 8.30054 1.81845 8.38905L3.09232 10.5952C3.12414 10.6414 3.14254 10.6971 3.14254 10.7573C3.14254 10.9149 3.01426 11.0432 2.85614 11.0432Z" fill="#FF5959"/>
    <path fill-rule="evenodd" clip-rule="evenodd" d="M19.0753 21.654H5.09449C4.93638 21.654 4.80859 21.5257 4.80859 21.3676C4.80859 21.2303 5.04328 17.5584 5.20836 16.6142H5.09449C4.93638 16.6142 4.80859 16.4864 4.80859 16.3283C4.80859 16.1701 4.93638 16.0424 5.09449 16.0424H19.0753H19.0847C20.6276 16.0473 21.8811 17.3043 21.8811 18.8482C21.8811 20.395 20.6226 21.654 19.0753 21.654Z" fill="#FFE4AF"/>
    <path fill-rule="evenodd" clip-rule="evenodd" d="M13.6968 21.6544H12.313C13.3701 21.1621 14.105 20.0896 14.105 18.8486C14.105 17.6075 13.3701 16.5345 12.3125 16.0428H13.6973C14.4366 16.7503 14.8975 17.7468 14.8975 18.8486C14.8975 19.9504 14.4361 20.9463 13.6968 21.6544Z" fill="white"/>
    <path fill-rule="evenodd" clip-rule="evenodd" d="M16.3725 21.6544H14.9883C16.0459 21.1621 16.7808 20.0896 16.7808 18.8486C16.7808 17.6075 16.0459 16.5345 14.9883 16.0428H16.3725C17.1119 16.7503 17.5733 17.7468 17.5733 18.8486C17.5733 19.9504 17.1119 20.9463 16.3725 21.6544Z" fill="white"/>
    <path fill-rule="evenodd" clip-rule="evenodd" d="M5.09291 21.6544C3.54557 21.6544 2.28711 20.3954 2.28711 18.8486C2.28711 17.3012 3.54557 16.0428 5.09291 16.0428C6.64025 16.0428 7.89871 17.3012 7.89871 18.8486C7.89871 20.3954 6.64025 21.6544 5.09291 21.6544Z" fill="white"/>
    <path fill-rule="evenodd" clip-rule="evenodd" d="M5.09373 20.1787C4.36033 20.1787 3.76367 19.582 3.76367 18.8486C3.76367 18.1152 4.36033 17.5181 5.09373 17.5181C5.82713 17.5181 6.42428 18.1152 6.42428 18.8486C6.42428 19.582 5.82713 20.1787 5.09373 20.1787Z" fill="#E6B98E"/>
  </g>
  <defs>
    <clipPath id="clip0_3702_3140">
      <rect width="24" height="24" fill="white"/>
    </clipPath>
  </defs>
</svg>