<svg xmlns="http://www.w3.org/2000/svg" width="28" height="28" viewBox="0 0 28 28" fill="none">
  <g clip-path="url(#clip0_3702_3104)">
    <path fill-rule="evenodd" clip-rule="evenodd" d="M6.89939 0.000183105H21.1007C24.7685 0.000183105 27.7697 2.99985 27.7697 6.66916V21.3309C27.7697 24.9987 24.7685 27.9999 21.1007 27.9999H6.89939C3.23161 27.9999 0.230469 24.9987 0.230469 21.3309V6.66916C0.230469 2.99985 3.23161 0.000183105 6.89939 0.000183105Z" fill="#4CD3AA"/>
    <path d="M8.63373 20.8255H19.3658C19.3981 20.8255 19.4302 20.8318 19.4601 20.8442C19.4901 20.8565 19.5173 20.8747 19.5402 20.8976C19.5631 20.9205 19.5812 20.9477 19.5936 20.9776C19.606 21.0075 19.6123 21.0396 19.6122 21.072V22.4424C19.6123 22.4747 19.606 22.5068 19.5936 22.5367C19.5812 22.5667 19.5631 22.5939 19.5402 22.6168C19.5173 22.6396 19.4901 22.6578 19.4601 22.6702C19.4302 22.6825 19.3981 22.6889 19.3658 22.6888H8.63373C8.60134 22.6889 8.56927 22.6825 8.53934 22.6702C8.50942 22.6578 8.48223 22.6396 8.45933 22.6168C8.43643 22.5939 8.41828 22.5667 8.40591 22.5367C8.39354 22.5068 8.3872 22.4747 8.38725 22.4424V21.072C8.3872 21.0396 8.39354 21.0075 8.40591 20.9776C8.41828 20.9477 8.43643 20.9205 8.45933 20.8976C8.48223 20.8747 8.50942 20.8565 8.53934 20.8442C8.56927 20.8318 8.60134 20.8255 8.63373 20.8255ZM13.8253 19.2568L8.54688 13.9768C8.45483 13.8863 8.39217 13.7701 8.36707 13.6435C8.34305 13.5179 8.35651 13.3879 8.40579 13.2699C8.45698 13.1474 8.54065 13.0467 8.6445 12.9769C8.75156 12.9059 8.87724 12.8682 9.00571 12.8684H11.4953V5.55617C11.4953 5.52379 11.5016 5.49171 11.514 5.46179C11.5263 5.43186 11.5445 5.40467 11.5674 5.38177C11.5903 5.35887 11.6175 5.34072 11.6474 5.32835C11.6773 5.31598 11.7094 5.30964 11.7418 5.30969H16.2575C16.3924 5.30969 16.504 5.41978 16.504 5.55617V12.8684H18.9936C19.1253 12.8684 19.2493 12.9072 19.3547 12.9769C19.4586 13.0467 19.5423 13.1474 19.5934 13.2699C19.6427 13.3879 19.6562 13.5179 19.6322 13.6435C19.6071 13.7702 19.5445 13.8863 19.4524 13.9768L14.174 19.2568C14.1277 19.3029 14.065 19.3288 13.9996 19.3288C13.9343 19.3288 13.8716 19.3029 13.8253 19.2568Z" fill="white"/>
  </g>
  <defs>
    <clipPath id="clip0_3702_3104">
      <rect width="28" height="28" fill="white"/>
    </clipPath>
  </defs>
</svg>