<svg xmlns="http://www.w3.org/2000/svg" width="22" height="22" viewBox="0 0 22 22" fill="none">
  <g clip-path="url(#clip0_3702_548)">
    <path d="M6.89127 2.02319H5.12584C4.70615 1.96852 4.27951 2.01082 3.87872 2.14685C3.47793 2.28288 3.11367 2.50901 2.81394 2.80787C2.51422 3.10672 2.28701 3.47033 2.14979 3.87074C2.01257 4.27116 1.969 4.69771 2.02241 5.1176V6.88318C1.96873 7.30231 2.0118 7.72816 2.14831 8.12805C2.28482 8.52794 2.51115 8.89123 2.80991 9.19002C3.10868 9.48881 3.47193 9.71515 3.87179 9.85168C4.27164 9.9882 4.69746 10.0313 5.11655 9.97759H6.88198C7.30107 10.0313 7.72689 9.9882 8.12674 9.85168C8.5266 9.71515 8.88985 9.48881 9.18862 9.19002C9.48738 8.89123 9.71371 8.52794 9.85022 8.12805C9.98673 7.72816 10.0298 7.30231 9.97612 6.88318V5.1176C10.0316 4.69894 9.9901 4.27313 9.85484 3.87306C9.71957 3.473 9.49416 3.10938 9.19601 2.81031C8.89786 2.51123 8.53495 2.28471 8.13533 2.14823C7.7357 2.01175 7.31006 1.96897 6.89127 2.02319Z" fill="#a0b46f"/>
    <path opacity="0.4" d="M17.8829 2.02242H16.1171C15.698 1.96872 15.2721 2.0118 14.8721 2.14834C14.4722 2.28487 14.1089 2.51124 13.8101 2.81006C13.5112 3.10888 13.2849 3.4722 13.1483 3.87213C13.0118 4.27206 12.9687 4.69796 13.0224 5.11712V6.88287C12.9687 7.30204 13.0118 7.72794 13.1483 8.12787C13.2849 8.5278 13.5112 8.89112 13.8101 9.18994C14.1089 9.48876 14.4722 9.71513 14.8721 9.85166C15.2721 9.9882 15.698 10.0313 16.1171 9.97759H17.8829C18.302 10.0313 18.7279 9.9882 19.1279 9.85166C19.5278 9.71513 19.8911 9.48876 20.1899 9.18994C20.4888 8.89112 20.7151 8.5278 20.8517 8.12787C20.9882 7.72794 21.0313 7.30204 20.9776 6.88287V5.11712C21.0313 4.69796 20.9882 4.27206 20.8517 3.87213C20.7151 3.4722 20.4888 3.10888 20.1899 2.81006C19.8911 2.51124 19.5278 2.28487 19.1279 2.14834C18.7279 2.0118 18.302 1.96872 17.8829 2.02242Z" fill="#a0b46f"/>
    <path d="M17.8829 12.0224H16.1171C15.698 11.9687 15.2721 12.0118 14.8721 12.1483C14.4722 12.2849 14.1089 12.5112 13.8101 12.8101C13.5112 13.1089 13.2849 13.4722 13.1483 13.8721C13.0118 14.2721 12.9687 14.698 13.0224 15.1171V16.8829C12.9687 17.302 13.0118 17.7279 13.1483 18.1279C13.2849 18.5278 13.5112 18.8911 13.8101 19.1899C14.1089 19.4888 14.4722 19.7151 14.8721 19.8517C15.2721 19.9882 15.698 20.0313 16.1171 19.9776H17.8829C18.302 20.0313 18.7279 19.9882 19.1279 19.8517C19.5278 19.7151 19.8911 19.4888 20.1899 19.1899C20.4888 18.8911 20.7151 18.5278 20.8517 18.1279C20.9882 17.7279 21.0313 17.302 20.9776 16.8829V15.1171C21.0313 14.698 20.9882 14.2721 20.8517 13.8721C20.7151 13.4722 20.4888 13.1089 20.1899 12.8101C19.8911 12.5112 19.5278 12.2849 19.1279 12.1483C18.7279 12.0118 18.302 11.9687 17.8829 12.0224Z" fill="#a0b46f"/>
    <path opacity="0.4" d="M6.89108 12.0232H5.126C4.70639 11.9686 4.27984 12.0108 3.87913 12.1467C3.47842 12.2826 3.11423 12.5084 2.81456 12.8069C2.5149 13.1054 2.28774 13.4686 2.15055 13.8686C2.01335 14.2685 1.96978 14.6946 2.02319 15.114V16.8775C1.96853 17.2968 2.01082 17.7229 2.14681 18.1233C2.2828 18.5237 2.50887 18.8875 2.80764 19.1869C3.1064 19.4863 3.46991 19.7133 3.87021 19.8504C4.27051 19.9874 4.69694 20.031 5.11671 19.9776H6.88179C7.3008 20.0312 7.72653 19.9882 8.12631 19.8519C8.52608 19.7155 8.88927 19.4894 9.18797 19.191C9.48668 18.8925 9.71296 18.5297 9.84944 18.1302C9.98593 17.7308 10.029 17.3054 9.97532 16.8868V15.1233C10.0318 14.7045 9.99107 14.2784 9.85632 13.8778C9.72158 13.4773 9.49643 13.1131 9.19827 12.8134C8.90012 12.5137 8.53696 12.2866 8.13688 12.1495C7.73681 12.0125 7.31055 11.9693 6.89108 12.0232Z" fill="#a0b46f"/>
  </g>
  <defs>
    <clipPath id="clip0_3702_548">
      <rect width="22" height="21.4634" fill="white"/>
    </clipPath>
  </defs>
</svg>