<svg xmlns="http://www.w3.org/2000/svg" width="22" height="22" viewBox="0 0 22 22" fill="none">
  <path d="M19.0681 8.50659H3.94518C3.42533 8.50659 3 8.93192 3 9.45177V15.2741C3 18.1096 4.41777 20 7.7259 20H15.2873C18.5955 20 20.0132 18.1096 20.0132 15.2741V9.45177C20.0132 8.93192 19.5879 8.50659 19.0681 8.50659ZM8.86957 16.4177C8.82231 16.4556 8.77505 16.5028 8.72779 16.5312C8.67108 16.569 8.61437 16.5973 8.55766 16.6162C8.50095 16.6446 8.44423 16.6635 8.38752 16.6729C8.32136 16.6824 8.26465 16.6918 8.19849 16.6918C8.07561 16.6918 7.95274 16.6635 7.83932 16.6162C7.71645 16.569 7.62193 16.5028 7.52741 16.4177C7.35728 16.2382 7.25331 15.9924 7.25331 15.7467C7.25331 15.5009 7.35728 15.2552 7.52741 15.0756C7.62193 14.9905 7.71645 14.9244 7.83932 14.8771C8.00945 14.8015 8.19849 14.7826 8.38752 14.8204C8.44423 14.8298 8.50095 14.8487 8.55766 14.8771C8.61437 14.896 8.67108 14.9244 8.72779 14.9622L8.86957 15.0756C9.0397 15.2552 9.14367 15.5009 9.14367 15.7467C9.14367 15.9924 9.0397 16.2382 8.86957 16.4177ZM8.86957 13.1096C8.68998 13.2797 8.44423 13.3837 8.19849 13.3837C7.95274 13.3837 7.707 13.2797 7.52741 13.1096C7.35728 12.93 7.25331 12.6843 7.25331 12.4385C7.25331 12.1928 7.35728 11.947 7.52741 11.7675C7.79206 11.5028 8.20794 11.4177 8.55766 11.569C8.68053 11.6162 8.7845 11.6824 8.86957 11.7675C9.0397 11.947 9.14367 12.1928 9.14367 12.4385C9.14367 12.6843 9.0397 12.93 8.86957 13.1096ZM12.1777 16.4177C11.9981 16.5879 11.7524 16.6918 11.5066 16.6918C11.2609 16.6918 11.0151 16.5879 10.8355 16.4177C10.6654 16.2382 10.5614 15.9924 10.5614 15.7467C10.5614 15.5009 10.6654 15.2552 10.8355 15.0756C11.1853 14.7259 11.828 14.7259 12.1777 15.0756C12.3478 15.2552 12.4518 15.5009 12.4518 15.7467C12.4518 15.9924 12.3478 16.2382 12.1777 16.4177ZM12.1777 13.1096L12.0359 13.223C11.9792 13.2608 11.9225 13.2892 11.8658 13.3081C11.8091 13.3365 11.7524 13.3554 11.6957 13.3648C11.6295 13.3743 11.5728 13.3837 11.5066 13.3837C11.2609 13.3837 11.0151 13.2797 10.8355 13.1096C10.6654 12.93 10.5614 12.6843 10.5614 12.4385C10.5614 12.1928 10.6654 11.947 10.8355 11.7675C10.9206 11.6824 11.0246 11.6162 11.1474 11.569C11.4972 11.4177 11.913 11.5028 12.1777 11.7675C12.3478 11.947 12.4518 12.1928 12.4518 12.4385C12.4518 12.6843 12.3478 12.93 12.1777 13.1096ZM15.4858 16.4177C15.3062 16.5879 15.0605 16.6918 14.8147 16.6918C14.569 16.6918 14.3233 16.5879 14.1437 16.4177C13.9735 16.2382 13.8696 15.9924 13.8696 15.7467C13.8696 15.5009 13.9735 15.2552 14.1437 15.0756C14.4934 14.7259 15.1361 14.7259 15.4858 15.0756C15.656 15.2552 15.7599 15.5009 15.7599 15.7467C15.7599 15.9924 15.656 16.2382 15.4858 16.4177ZM15.4858 13.1096L15.344 13.223C15.2873 13.2608 15.2306 13.2892 15.1739 13.3081C15.1172 13.3365 15.0605 13.3554 15.0038 13.3648C14.9376 13.3743 14.8715 13.3837 14.8147 13.3837C14.569 13.3837 14.3233 13.2797 14.1437 13.1096C13.9735 12.93 13.8696 12.6843 13.8696 12.4385C13.8696 12.1928 13.9735 11.947 14.1437 11.7675C14.2382 11.6824 14.3327 11.6162 14.4556 11.569C14.6257 11.4934 14.8147 11.4745 15.0038 11.5123C15.0605 11.5217 15.1172 11.5406 15.1739 11.569C15.2306 11.5879 15.2873 11.6162 15.344 11.654L15.4858 11.7675C15.656 11.947 15.7599 12.1928 15.7599 12.4385C15.7599 12.6843 15.656 12.93 15.4858 13.1096Z" fill="white"/>
  <path d="M16.277 2.28068V0.74048C16.277 0.335684 15.9545 0 15.5657 0C15.1768 0 14.8543 0.335684 14.8543 0.74048V2.22144H8.6893V0.74048C8.6893 0.335684 8.36682 0 7.97795 0C7.58908 0 7.2666 0.335684 7.2666 0.74048V2.28068C4.70575 2.5275 3.46326 4.11707 3.27357 6.47673C3.2546 6.76305 3.48223 7 3.7478 7H19.7958C20.0709 7 20.2985 6.75317 20.2701 6.47673C20.0804 4.11707 18.8379 2.5275 16.277 2.28068Z" fill="#C3EEF5"/>
</svg>