<svg xmlns="http://www.w3.org/2000/svg" width="21" height="21" viewBox="0 0 21 21" fill="none">
  <g clip-path="url(#clip0_3702_697)">
    <path d="M8.46409 17.8499C9.29298 17.8499 9.96474 17.1776 9.96409 16.3488L9.96204 13.6975C9.96204 11.6921 8.93481 10.5164 7.57422 10.0735C7.19449 9.95857 6.85427 9.65663 6.53784 9.34006C5.96295 8.74134 5.34835 7.92247 4.55221 7.93264L4.55148 7.92961C4.29177 7.93301 4.03211 8.02686 3.80696 8.25202C3.27894 8.78003 3.49228 9.58675 3.94764 10.0421L5.42684 11.5212C5.56487 11.6592 5.64241 11.8464 5.64241 12.0417C5.64241 12.2369 5.56487 12.4241 5.42684 12.5622L3.42718 10.5626C3.07965 10.2151 2.8435 9.74533 2.77913 9.27386C2.69899 8.6865 2.87906 8.1388 3.28626 7.7316C3.59123 7.42662 3.9654 7.25446 4.37352 7.21094L4.07485 6.00461C4.05222 1.52784 1.86835 2.07476 1.86835 3.12789L1.86816 10.9871C1.86816 11.4752 2.05725 11.9353 2.40082 12.2824C5.25535 15.1634 5.57147 15.0709 5.57279 16.35C5.57364 17.1785 6.22023 17.8499 7.04866 17.8499H8.46409ZM21.0001 3.12794C21.0001 2.07485 18.8162 1.52789 18.7936 6.00471L18.4949 7.21103C18.903 7.25456 19.2772 7.42667 19.5822 7.73169C19.9894 8.13889 20.1695 8.68659 20.0893 9.27395C20.025 9.74543 19.7888 10.2152 19.4412 10.5627L17.4416 12.5622C17.3036 12.4241 17.226 12.237 17.226 12.0417C17.226 11.8466 17.3036 11.6593 17.4416 11.5213L18.9208 10.0422C19.3762 9.58684 19.5895 8.78008 19.0615 8.25211C18.8363 8.02695 18.5766 7.9331 18.3169 7.9297L18.3162 7.93273C17.5201 7.92257 16.9055 8.74143 16.3306 9.34016C16.0141 9.65672 15.6739 9.95862 15.2942 10.0736C13.9336 10.5164 12.9064 11.6922 12.9064 13.6975L12.9043 16.3488C12.9037 17.1777 13.5755 17.85 14.4043 17.85H15.8198C16.6482 17.85 17.2948 17.1785 17.2956 16.3501C17.297 15.071 17.6131 15.1635 20.4676 12.2825C20.8112 11.9353 21.0003 11.4752 21.0003 10.9871L21.0001 3.12794Z" fill="white"/>
    <path d="M15.8936 2.77998C15.3542 2.32061 14.6634 2.09998 13.9673 2.09998C13.1838 2.09998 12.393 2.37954 11.8032 2.91311L11.5498 3.14228L11.2964 2.91303C10.7065 2.37967 9.91577 2.09998 9.13222 2.09998C8.436 2.09998 7.74559 2.32061 7.20598 2.77998C6.01931 3.79034 5.99812 5.47984 7.14246 6.51461L10.8791 9.89349C11.26 10.2379 11.8397 10.2379 12.2205 9.89349L15.9572 6.51461C17.1015 5.47979 17.0803 3.7903 15.8936 2.77998Z" fill="#C3EEF5"/>
  </g>
  <defs>
    <clipPath id="clip0_3702_697">
      <rect width="21" height="21" fill="white"/>
    </clipPath>
  </defs>
</svg>