<svg xmlns="http://www.w3.org/2000/svg" width="23" height="22" viewBox="0 0 23 22" fill="none">
  <g clip-path="url(#clip0_3702_1039)">
    <path d="M5.89127 2.02029H4.12584C3.70615 1.97245 3.27951 2.00947 2.87872 2.12849C2.47793 2.24752 2.11367 2.44539 1.81394 2.70688C1.51422 2.96838 1.28701 3.28654 1.14979 3.6369C1.01257 3.98726 0.968997 4.3605 1.02241 4.7279V6.27278C0.968728 6.63952 1.0118 7.01214 1.14831 7.36205C1.28482 7.71195 1.51115 8.02982 1.80991 8.29127C2.10868 8.55271 2.47193 8.75076 2.87179 8.87022C3.27164 8.98968 3.69746 9.02737 4.11655 8.98039H5.88198C6.30107 9.02737 6.72689 8.98968 7.12674 8.87022C7.5266 8.75076 7.88985 8.55271 8.18862 8.29127C8.48738 8.02982 8.71371 7.71195 8.85022 7.36205C8.98673 7.01214 9.0298 6.63952 8.97612 6.27278V4.7279C9.0316 4.36157 8.9901 3.98899 8.85484 3.63893C8.71957 3.28887 8.49416 2.97071 8.19601 2.70902C7.89786 2.44733 7.53495 2.24912 7.13533 2.1297C6.7357 2.01028 6.31006 1.97285 5.89127 2.02029Z" fill="white"/>
    <path opacity="0.4" d="M15.8829 2.01961H14.1171C13.698 1.97263 13.2721 2.01032 12.8721 2.12979C12.4722 2.24927 12.1089 2.44734 11.8101 2.7088C11.5112 2.97027 11.2849 3.28818 11.1483 3.63811C11.0118 3.98805 10.9687 4.36071 11.0224 4.72748V6.27252C10.9687 6.63929 11.0118 7.01195 11.1483 7.36189C11.2849 7.71182 11.5112 8.02973 11.8101 8.2912C12.1089 8.55266 12.4722 8.75073 12.8721 8.87021C13.2721 8.98968 13.698 9.02737 14.1171 8.98039H15.8829C16.302 9.02737 16.7279 8.98968 17.1279 8.87021C17.5278 8.75073 17.8911 8.55266 18.1899 8.2912C18.4888 8.02973 18.7151 7.71182 18.8517 7.36189C18.9882 7.01195 19.0313 6.63929 18.9776 6.27252V4.72748C19.0313 4.36071 18.9882 3.98805 18.8517 3.63811C18.7151 3.28818 18.4888 2.97027 18.1899 2.7088C17.8911 2.44734 17.5278 2.24927 17.1279 2.12979C16.7279 2.01032 16.302 1.97263 15.8829 2.01961Z" fill="white"/>
    <path d="M15.8829 12.0196H14.1171C13.698 11.9726 13.2721 12.0103 12.8721 12.1298C12.4722 12.2493 12.1089 12.4473 11.8101 12.7088C11.5112 12.9703 11.2849 13.2882 11.1483 13.6381C11.0118 13.9881 10.9687 14.3607 11.0224 14.7275V16.2725C10.9687 16.6393 11.0118 17.0119 11.1483 17.3619C11.2849 17.7118 11.5112 18.0297 11.8101 18.2912C12.1089 18.5527 12.4722 18.7507 12.8721 18.8702C13.2721 18.9897 13.698 19.0274 14.1171 18.9804H15.8829C16.302 19.0274 16.7279 18.9897 17.1279 18.8702C17.5278 18.7507 17.8911 18.5527 18.1899 18.2912C18.4888 18.0297 18.7151 17.7118 18.8517 17.3619C18.9882 17.0119 19.0313 16.6393 18.9776 16.2725V14.7275C19.0313 14.3607 18.9882 13.9881 18.8517 13.6381C18.7151 13.2882 18.4888 12.9703 18.1899 12.7088C17.8911 12.4473 17.5278 12.2493 17.1279 12.1298C16.7279 12.0103 16.302 11.9726 15.8829 12.0196Z" fill="white"/>
    <path opacity="0.4" d="M5.89108 12.0203H4.126C3.70639 11.9725 3.27984 12.0095 2.87913 12.1283C2.47842 12.2472 2.11423 12.4449 1.81456 12.7061C1.5149 12.9673 1.28774 13.285 1.15055 13.635C1.01335 13.985 0.969784 14.3578 1.02319 14.7247V16.2678C0.968525 16.6347 1.01082 17.0076 1.14681 17.3579C1.2828 17.7082 1.50887 18.0266 1.80764 18.2886C2.1064 18.5505 2.46991 18.7491 2.87021 18.8691C3.27051 18.989 3.69694 19.0271 4.11671 18.9804H5.88179C6.3008 19.0273 6.72653 18.9897 7.12631 18.8704C7.52608 18.751 7.88927 18.5532 8.18797 18.2921C8.48668 18.031 8.71296 17.7134 8.84944 17.3639C8.98593 17.0145 9.02899 16.6423 8.97532 16.2759V14.7329C9.03178 14.3664 8.99107 13.9936 8.85632 13.6431C8.72158 13.2926 8.49643 12.9739 8.19827 12.7117C7.90012 12.4495 7.53696 12.2507 7.13688 12.1308C6.73681 12.0109 6.31055 11.9731 5.89108 12.0203Z" fill="white"/>
  </g>
  <defs>
    <clipPath id="clip0_3702_1039">
      <rect width="22.55" height="22" fill="white"/>
    </clipPath>
  </defs>
</svg>