<svg xmlns="http://www.w3.org/2000/svg" width="22" height="22" viewBox="0 0 22 22" fill="none">
  <path fill-rule="evenodd" clip-rule="evenodd" d="M14.018 14.8966C14.018 14.0736 13.5289 13.2831 12.6237 12.6661C11.4852 11.8896 9.65329 11.3673 7.58223 11.3673C5.51117 11.3673 3.67926 11.8896 2.54076 12.6661C1.6356 13.2831 1.14648 14.0736 1.14648 14.8966V15.7835C1.1467 16.1028 1.27364 16.4089 1.4994 16.6347C1.72517 16.8604 2.03131 16.9874 2.35059 16.9876H12.8139C12.9721 16.9878 13.1287 16.9568 13.2749 16.8964C13.4211 16.8359 13.5539 16.7473 13.6658 16.6354C13.7776 16.5235 13.8663 16.3907 13.9268 16.2445C13.9872 16.0983 14.0182 15.9417 14.018 15.7835V14.8966Z" fill="#a0b46f"/>
  <path fill-rule="evenodd" clip-rule="evenodd" d="M11.9893 11.3806C12.4011 11.56 12.7715 11.7609 13.0921 11.9802C14.2629 12.7782 14.8484 13.8312 14.8484 14.8966V15.7835C14.8484 16.2194 14.7089 16.6405 14.4539 16.9876H17.7964C17.9546 16.9878 18.1112 16.9568 18.2574 16.8964C18.4036 16.8359 18.5364 16.7473 18.6483 16.6354C18.7602 16.5235 18.8488 16.3907 18.9093 16.2445C18.9697 16.0983 19.0007 15.9417 19.0005 15.7835V14.8966C19.0005 14.0736 18.5114 13.2831 17.6062 12.6661C16.4677 11.8896 14.6358 11.3673 12.5647 11.3673C12.3704 11.3673 12.1786 11.3715 11.9893 11.3806Z" fill="#ACE3EB"/>
  <path d="M7.58201 10.6831C9.53118 10.6831 11.1113 9.10296 11.1113 7.15379C11.1113 5.20462 9.53118 3.62451 7.58201 3.62451C5.63285 3.62451 4.05273 5.20462 4.05273 7.15379C4.05273 9.10296 5.63285 10.6831 7.58201 10.6831Z" fill="#a0b46f"/>
  <path fill-rule="evenodd" clip-rule="evenodd" d="M10.7305 4.1385C11.4803 4.92159 11.942 5.98452 11.942 7.15375C11.942 8.32298 11.4803 9.38509 10.7305 10.1682C11.2656 10.4932 11.8776 10.67 12.5037 10.6806C13.1297 10.6911 13.7473 10.535 14.2931 10.2283C14.839 9.92149 15.2934 9.4751 15.6099 8.93484C15.9264 8.39458 16.0935 7.77988 16.0941 7.15375C16.0936 6.52755 15.9266 5.91275 15.6102 5.37237C15.2938 4.83199 14.8394 4.38549 14.2935 4.07862C13.7476 3.77176 13.13 3.61559 12.5039 3.62611C11.8778 3.63663 11.2657 3.81347 10.7305 4.1385Z" fill="#ACE3EB"/>
</svg>