<svg xmlns="http://www.w3.org/2000/svg" width="22" height="22" viewBox="0 0 22 22" fill="none">
  <path fill-rule="evenodd" clip-rule="evenodd" d="M15.5927 15.5282C15.5927 14.6591 15.0761 13.8243 14.1203 13.1727C12.918 12.3527 10.9834 11.8011 8.79633 11.8011C6.60923 11.8011 4.67468 12.3527 3.47239 13.1727C2.51652 13.8243 2 14.6591 2 15.5282V16.4647C2.00023 16.8019 2.13428 17.1252 2.37269 17.3636C2.61111 17.602 2.9344 17.7361 3.27157 17.7363H14.3211C14.4881 17.7365 14.6536 17.7038 14.808 17.64C14.9623 17.5762 15.1026 17.4825 15.2207 17.3644C15.3389 17.2463 15.4325 17.106 15.4963 16.9516C15.5602 16.7972 15.5929 16.6318 15.5927 16.4647V15.5282Z" fill="white"/>
  <path fill-rule="evenodd" clip-rule="evenodd" d="M13.4502 11.8152C13.8852 12.0046 14.2763 12.2168 14.6148 12.4483C15.8513 13.2911 16.4695 14.403 16.4695 15.5282V16.4647C16.4695 16.9251 16.3222 17.3698 16.053 17.7363H19.5827C19.7497 17.7365 19.9152 17.7038 20.0696 17.64C20.2239 17.5762 20.3642 17.4825 20.4823 17.3644C20.6004 17.2463 20.6941 17.106 20.7579 16.9516C20.8217 16.7972 20.8545 16.6318 20.8542 16.4647V15.5282C20.8542 14.6591 20.3377 13.8243 19.3819 13.1727C18.1796 12.3527 16.245 11.8011 14.0579 11.8011C13.8527 11.8011 13.6501 11.8055 13.4502 11.8152Z" fill="#C3EEF5"/>
  <path d="M8.79636 11.0785C10.8547 11.0785 12.5234 9.40991 12.5234 7.35153C12.5234 5.29316 10.8547 3.62451 8.79636 3.62451C6.73798 3.62451 5.06934 5.29316 5.06934 7.35153C5.06934 9.40991 6.73798 11.0785 8.79636 11.0785Z" fill="white"/>
  <path fill-rule="evenodd" clip-rule="evenodd" d="M12.1211 4.16736C12.913 4.99432 13.4006 6.11681 13.4006 7.35155C13.4006 8.58629 12.913 9.7079 12.1211 10.5349C12.6863 10.8781 13.3325 11.0648 13.9936 11.076C14.6548 11.0871 15.307 10.9223 15.8834 10.5983C16.4598 10.2744 16.9397 9.80296 17.2739 9.23243C17.6081 8.6619 17.7846 8.01276 17.7853 7.35155C17.7848 6.69026 17.6084 6.04101 17.2742 5.47036C16.9401 4.89971 16.4602 4.42818 15.8837 4.10413C15.3073 3.78007 14.6551 3.61515 13.9939 3.62626C13.3327 3.63737 12.6863 3.82412 12.1211 4.16736Z" fill="#C3EEF5"/>
</svg>