<svg xmlns="http://www.w3.org/2000/svg" width="24" height="24" viewBox="0 0 24 24" fill="none">
  <path d="M10.599 19.3059C15.3481 19.3059 19.198 15.4319 19.198 10.6529C19.198 5.87402 15.3481 1.99994 10.599 1.99994C5.8499 1.99994 2 5.87402 2 10.6529C2 15.4319 5.8499 19.3059 10.599 19.3059Z" fill="#BED2D5"/>
  <path opacity="0.4" d="M20.675 21.956C20.3406 21.9448 20.0229 21.8072 19.786 21.571L17.749 19.191C17.539 18.9983 17.4129 18.7309 17.398 18.4463C17.383 18.1617 17.4803 17.8826 17.669 17.669C17.7596 17.5769 17.8677 17.5038 17.9868 17.4539C18.106 17.404 18.2338 17.3784 18.363 17.3784C18.4922 17.3784 18.6201 17.404 18.7392 17.4539C18.8583 17.5038 18.9664 17.5769 19.057 17.669L21.618 19.718C21.7988 19.9033 21.9225 20.1369 21.9741 20.3906C22.0257 20.6444 22.0031 20.9077 21.909 21.149C21.8157 21.3897 21.6546 21.5983 21.4451 21.7493C21.2357 21.9004 20.9869 21.9874 20.729 22L20.675 21.956Z" fill="#9AC5CB"/>
  <circle cx="10.5" cy="10.5001" r="6.5" fill="white"/>
</svg>