<svg width="46" height="46" viewBox="0 0 46 46" fill="none" xmlns="http://www.w3.org/2000/svg">
	<circle cx="23" cy="23" r="23" fill="#E8FBFE"/>
	<g clip-path="url(#clip0_3702_2450)">
		<path opacity="0.3" d="M22.9095 34.7179C31.9841 34.7179 39.3405 32.9391 39.3405 30.745C39.3405 28.5508 31.9841 26.772 22.9095 26.772C13.8349 26.772 6.47852 28.5508 6.47852 30.745C6.47852 32.9391 13.8349 34.7179 22.9095 34.7179Z" fill="#47CCE2"/>
		<path opacity="0.3" d="M23.0533 32.8662C30.3607 32.8662 36.2844 31.7555 36.2844 30.3854C36.2844 29.0153 30.3607 27.9046 23.0533 27.9046C15.746 27.9046 9.82227 29.0153 9.82227 30.3854C9.82227 31.7555 15.746 32.8662 23.0533 32.8662Z" fill="#47CCE2"/>
		<path d="M12.8585 13.541C12.8585 13.523 12.8764 13.487 12.8944 13.487H12.9843L12.7146 13.1994C12.6967 13.1814 12.6967 13.1455 12.7146 13.1275C12.7326 13.1095 12.7506 13.1095 12.7686 13.1275L13.1101 13.487C13.1281 13.505 13.1281 13.523 13.1101 13.541C13.1101 13.559 13.0922 13.5769 13.0742 13.5769H12.8764C12.8764 13.5769 12.8585 13.559 12.8585 13.541ZM11.7978 13.5769C11.7798 13.5769 11.7619 13.559 11.7619 13.541C11.7619 13.523 11.7798 13.487 11.7978 13.487H12.4809C12.4989 13.487 12.5169 13.505 12.5169 13.541C12.5169 13.559 12.4989 13.5769 12.4809 13.5769H11.7978ZM10.7012 13.5769C10.6832 13.5769 10.6653 13.559 10.6653 13.541C10.6653 13.523 10.6832 13.487 10.7012 13.487H11.3843C11.4023 13.487 11.4203 13.505 11.4203 13.541C11.4203 13.559 11.4023 13.5769 11.3843 13.5769H10.7012ZM9.60462 13.5769C9.58664 13.5769 9.56867 13.559 9.56867 13.541C9.56867 13.523 9.58664 13.487 9.60462 13.487H10.2877C10.3057 13.487 10.3237 13.505 10.3237 13.541C10.3237 13.559 10.3057 13.5769 10.2877 13.5769H9.60462ZM8.50802 13.5769C8.49005 13.5769 8.47207 13.559 8.47207 13.541C8.47207 13.523 8.49005 13.487 8.50802 13.487H9.19115C9.20913 13.487 9.2271 13.505 9.2271 13.541C9.2271 13.559 9.20913 13.5769 9.19115 13.5769H8.50802ZM7.39345 13.5769C7.37547 13.5769 7.35749 13.559 7.35749 13.541C7.35749 13.523 7.37547 13.487 7.39345 13.487H8.07657C8.09455 13.487 8.11253 13.505 8.11253 13.541C8.11253 13.559 8.09455 13.5769 8.07657 13.5769H7.39345ZM6.29685 13.5769C6.27887 13.5769 6.2609 13.559 6.2609 13.541C6.2609 13.523 6.27887 13.487 6.29685 13.487H6.97998C6.99795 13.487 7.01593 13.505 7.01593 13.541C7.01593 13.559 6.99795 13.5769 6.97998 13.5769H6.29685ZM5.20025 13.5769C5.18228 13.5769 5.1643 13.559 5.1643 13.541C5.1643 13.523 5.18228 13.487 5.20025 13.487H5.88338C5.90136 13.487 5.91933 13.505 5.91933 13.541C5.91933 13.559 5.90136 13.5769 5.88338 13.5769H5.20025ZM4.10365 13.5769C4.08568 13.5769 4.0677 13.559 4.0677 13.541C4.0677 13.523 4.08568 13.487 4.10365 13.487H4.78678C4.80476 13.487 4.82273 13.505 4.82273 13.541C4.82273 13.559 4.80476 13.5769 4.78678 13.5769H4.10365ZM2.98908 13.5769C2.9711 13.5769 2.95312 13.559 2.95312 13.541C2.95312 13.523 2.9711 13.487 2.98908 13.487H3.67221C3.69018 13.487 3.70816 13.505 3.70816 13.541C3.70816 13.559 3.69018 13.5769 3.67221 13.5769H2.98908ZM12.445 12.8758L11.9596 12.3725C11.9416 12.3545 11.9416 12.3185 11.9596 12.3006C11.9776 12.2826 11.9956 12.2826 12.0135 12.3006L12.4809 12.8219C12.4989 12.8399 12.4989 12.8758 12.4809 12.8938C12.4809 12.8938 12.463 12.9118 12.445 12.9118C12.463 12.8938 12.445 12.8938 12.445 12.8758ZM11.672 12.0489L11.1866 11.5275C11.1686 11.5096 11.1686 11.4736 11.1866 11.4556C11.2046 11.4377 11.2226 11.4377 11.2405 11.4556L11.7079 11.977C11.7259 11.995 11.7259 12.0309 11.7079 12.0489C11.7079 12.0489 11.69 12.0669 11.672 12.0669C11.69 12.0669 11.672 12.0489 11.672 12.0489ZM10.899 11.2219L10.4316 10.7006C10.4136 10.6826 10.4136 10.6467 10.4316 10.6287C10.4495 10.6107 10.4675 10.6107 10.4855 10.6287L10.9529 11.1321C10.9709 11.15 10.9709 11.186 10.9529 11.204C10.9529 11.204 10.9349 11.2219 10.9169 11.2219H10.899ZM10.108 10.377L9.64057 9.85569C9.6226 9.83771 9.6226 9.80175 9.64057 9.78378C9.65855 9.7658 9.67653 9.7658 9.69451 9.78378L10.1619 10.3051C10.1799 10.3231 10.1799 10.359 10.1619 10.377C10.1619 10.377 10.1439 10.395 10.126 10.395C10.1439 10.395 10.126 10.395 10.108 10.377ZM9.33497 9.55008L8.86756 9.02874C8.84959 9.01077 8.84959 8.97481 8.86756 8.95684C8.88554 8.93886 8.90352 8.93886 8.92149 8.95684L9.3889 9.47817C9.40687 9.49615 9.40687 9.5321 9.3889 9.55008C9.3889 9.55008 9.37092 9.56805 9.35294 9.56805C9.37092 9.56805 9.35294 9.55008 9.33497 9.55008ZM34.1073 8.79504C34.1073 8.77707 34.1253 8.75909 34.1432 8.75909H34.4309L34.3769 8.72313C34.359 8.70516 34.341 8.68718 34.359 8.6692C34.3769 8.65123 34.3949 8.63325 34.4129 8.65123L34.6107 8.75909C34.6286 8.77707 34.6286 8.79504 34.6286 8.81302C34.6286 8.831 34.6106 8.84897 34.5927 8.84897H34.1432C34.1253 8.831 34.1073 8.81302 34.1073 8.79504ZM33.0466 8.831C33.0287 8.831 33.0107 8.81302 33.0107 8.77707C33.0107 8.75909 33.0287 8.74111 33.0466 8.74111H33.7298C33.7478 8.74111 33.7657 8.75909 33.7657 8.77707C33.7657 8.79504 33.7478 8.831 33.7298 8.831H33.0466ZM31.9501 8.831C31.9321 8.831 31.9141 8.81302 31.9141 8.77707C31.9141 8.75909 31.9321 8.74111 31.9501 8.74111H32.6332C32.6512 8.74111 32.6691 8.75909 32.6691 8.77707C32.6691 8.79504 32.6512 8.831 32.6332 8.831H31.9501ZM30.8535 8.831C30.8355 8.831 30.8175 8.81302 30.8175 8.77707C30.8175 8.75909 30.8355 8.74111 30.8535 8.74111H31.5366C31.5546 8.74111 31.5725 8.75909 31.5725 8.77707C31.5725 8.79504 31.5546 8.831 31.5366 8.831H30.8535ZM29.7569 8.831C29.7389 8.831 29.7209 8.81302 29.7209 8.77707C29.7209 8.75909 29.7389 8.74111 29.7569 8.74111H30.44C30.458 8.74111 30.4759 8.75909 30.4759 8.77707C30.4759 8.79504 30.458 8.831 30.44 8.831H29.7569ZM28.6603 8.831C28.6423 8.831 28.6243 8.81302 28.6243 8.77707C28.6243 8.75909 28.6423 8.74111 28.6603 8.74111H29.3434C29.3614 8.74111 29.3793 8.75909 29.3793 8.77707C29.3793 8.79504 29.3614 8.831 29.3434 8.831H28.6603ZM27.5457 8.831C27.5277 8.831 27.5097 8.81302 27.5097 8.77707C27.5097 8.75909 27.5277 8.74111 27.5457 8.74111H28.2288C28.2468 8.74111 28.2648 8.75909 28.2648 8.77707C28.2648 8.79504 28.2468 8.831 28.2288 8.831H27.5457ZM26.4491 8.831C26.4311 8.831 26.4131 8.81302 26.4131 8.77707C26.4131 8.75909 26.4311 8.74111 26.4491 8.74111H27.1322C27.1502 8.74111 27.1682 8.75909 27.1682 8.77707C27.1682 8.79504 27.1502 8.831 27.1322 8.831H26.4491ZM25.3525 8.831C25.3345 8.831 25.3165 8.81302 25.3165 8.77707C25.3165 8.75909 25.3345 8.74111 25.3525 8.74111H26.0356C26.0536 8.74111 26.0716 8.75909 26.0716 8.77707C26.0716 8.79504 26.0536 8.831 26.0356 8.831H25.3525ZM24.2559 8.831C24.2379 8.831 24.2199 8.81302 24.2199 8.77707C24.2199 8.75909 24.2379 8.74111 24.2559 8.74111H24.939C24.957 8.74111 24.975 8.75909 24.975 8.77707C24.975 8.79504 24.957 8.831 24.939 8.831H24.2559ZM23.1413 8.831C23.1233 8.831 23.1054 8.81302 23.1054 8.77707C23.1054 8.75909 23.1233 8.74111 23.1413 8.74111H23.8244C23.8424 8.74111 23.8604 8.75909 23.8604 8.77707C23.8604 8.79504 23.8424 8.831 23.8244 8.831H23.1413ZM22.0447 8.831C22.0267 8.831 22.0088 8.81302 22.0088 8.77707C22.0088 8.75909 22.0267 8.74111 22.0447 8.74111H22.7278C22.7458 8.74111 22.7638 8.75909 22.7638 8.77707C22.7638 8.79504 22.7458 8.831 22.7278 8.831H22.0447ZM20.9481 8.831C20.9301 8.831 20.9122 8.81302 20.9122 8.77707C20.9122 8.75909 20.9301 8.74111 20.9481 8.74111H21.6312C21.6492 8.74111 21.6672 8.75909 21.6672 8.77707C21.6672 8.79504 21.6492 8.831 21.6312 8.831H20.9481ZM19.8515 8.831C19.8335 8.831 19.8156 8.81302 19.8156 8.77707C19.8156 8.75909 19.8335 8.74111 19.8515 8.74111H20.5346C20.5526 8.74111 20.5706 8.75909 20.5706 8.77707C20.5706 8.79504 20.5526 8.831 20.5346 8.831H19.8515ZM18.7369 8.831C18.719 8.831 18.701 8.81302 18.701 8.77707C18.701 8.75909 18.719 8.74111 18.7369 8.74111H19.4201C19.438 8.74111 19.456 8.75909 19.456 8.77707C19.456 8.79504 19.438 8.831 19.4201 8.831H18.7369ZM17.6403 8.831C17.6224 8.831 17.6044 8.81302 17.6044 8.77707C17.6044 8.75909 17.6224 8.74111 17.6403 8.74111H18.3235C18.3415 8.74111 18.3594 8.75909 18.3594 8.77707C18.3594 8.79504 18.3415 8.831 18.3235 8.831H17.6403ZM16.5437 8.831C16.5258 8.831 16.5078 8.81302 16.5078 8.77707C16.5078 8.75909 16.5258 8.74111 16.5437 8.74111H17.2269C17.2449 8.74111 17.2628 8.75909 17.2628 8.77707C17.2628 8.79504 17.2449 8.831 17.2269 8.831H16.5437ZM15.4472 8.831C15.4292 8.831 15.4112 8.81302 15.4112 8.77707C15.4112 8.75909 15.4292 8.74111 15.4472 8.74111H16.1303C16.1483 8.74111 16.1662 8.75909 16.1662 8.77707C16.1662 8.79504 16.1483 8.831 16.1303 8.831H15.4472ZM14.3506 8.831C14.3326 8.831 14.3146 8.81302 14.3146 8.77707C14.3146 8.75909 14.3326 8.74111 14.3506 8.74111H15.0337C15.0517 8.74111 15.0696 8.75909 15.0696 8.77707C15.0696 8.79504 15.0517 8.831 15.0337 8.831H14.3506ZM13.236 8.831C13.218 8.831 13.2 8.81302 13.2 8.77707C13.2 8.75909 13.218 8.74111 13.236 8.74111H13.9191C13.9371 8.74111 13.9551 8.75909 13.9551 8.77707C13.9551 8.79504 13.9371 8.831 13.9191 8.831H13.236ZM12.1394 8.831C12.1214 8.831 12.1034 8.81302 12.1034 8.77707C12.1034 8.75909 12.1214 8.74111 12.1394 8.74111H12.8225C12.8405 8.74111 12.8585 8.75909 12.8585 8.77707C12.8585 8.79504 12.8405 8.831 12.8225 8.831H12.1394ZM11.0428 8.831C11.0248 8.831 11.0068 8.81302 11.0068 8.77707C11.0068 8.75909 11.0248 8.74111 11.0428 8.74111H11.7259C11.7439 8.74111 11.7619 8.75909 11.7619 8.77707C11.7619 8.79504 11.7439 8.831 11.7259 8.831H11.0428ZM9.94618 8.831C9.92821 8.831 9.91023 8.81302 9.91023 8.77707C9.91023 8.75909 9.92821 8.74111 9.94618 8.74111H10.6293C10.6473 8.74111 10.6653 8.75909 10.6653 8.77707C10.6653 8.79504 10.6473 8.831 10.6293 8.831H9.94618ZM8.83161 8.831C8.81363 8.831 8.79566 8.81302 8.79566 8.77707C8.79566 8.75909 8.81363 8.74111 8.83161 8.74111H9.51474C9.53271 8.74111 9.55069 8.75909 9.55069 8.77707C9.55069 8.79504 9.53271 8.831 9.51474 8.831H8.83161ZM34.0174 8.48943L33.4242 8.14787C33.4062 8.12989 33.3882 8.11192 33.4062 8.09394C33.4242 8.07596 33.4421 8.05798 33.4601 8.07596L34.0534 8.41753C34.0713 8.4355 34.0893 8.45348 34.0713 8.47146C34.0713 8.48943 34.0534 8.48943 34.0354 8.48943C34.0354 8.50741 34.0174 8.50741 34.0174 8.48943ZM33.0466 7.93215L32.4534 7.59058C32.4354 7.57261 32.4175 7.55463 32.4354 7.53665C32.4534 7.51867 32.4714 7.5007 32.4894 7.51867L33.0826 7.86024C33.1006 7.87822 33.1186 7.89619 33.1006 7.91417C33.1006 7.93215 33.0826 7.93215 33.0646 7.93215C33.0646 7.93215 33.0646 7.93215 33.0466 7.93215ZM32.0939 7.37486L31.5006 7.0333C31.4826 7.01532 31.4647 6.99734 31.4826 6.97936C31.5006 6.96139 31.5186 6.94341 31.5366 6.96139L32.1298 7.30295C32.1478 7.32093 32.1658 7.3389 32.1478 7.35688C32.1478 7.37486 32.1298 7.37486 32.1118 7.37486H32.0939ZM31.1231 6.79959L30.5299 6.45803C30.5119 6.44005 30.4939 6.42208 30.5119 6.4041C30.5299 6.38612 30.5478 6.36815 30.5658 6.38612L31.1591 6.72769C31.177 6.74566 31.195 6.76364 31.177 6.78162C31.177 6.79959 31.1591 6.79959 31.1411 6.79959C31.1411 6.79959 31.1411 6.79959 31.1231 6.79959ZM30.1703 6.24231L29.5771 5.90074C29.5591 5.88277 29.5411 5.86479 29.5591 5.84681C29.5771 5.82884 29.5951 5.81086 29.613 5.82884L30.2063 6.1704C30.2243 6.18838 30.2422 6.20635 30.2243 6.22433C30.2243 6.24231 30.2063 6.24231 30.1883 6.24231C30.1703 6.24231 30.1703 6.24231 30.1703 6.24231ZM29.1996 5.66704L29.0558 5.57716C29.0378 5.55918 29.0198 5.5412 29.0378 5.52323C29.0558 5.50525 29.0737 5.48727 29.0917 5.50525L29.2355 5.59513C29.2535 5.61311 29.2715 5.63109 29.2535 5.64907C29.2535 5.66704 29.2355 5.66704 29.2175 5.66704C29.2175 5.68502 29.1996 5.66704 29.1996 5.66704Z" fill="white"/>
		<path opacity="0.56" d="M2.73797 12.4444C2.64808 12.4444 2.57617 12.3725 2.57617 12.2646C2.57617 12.1567 2.64808 12.0848 2.73797 12.0848H9.94675L6.1536 7.82427C6.09967 7.77034 6.09967 7.69843 6.11764 7.62652C6.13562 7.55461 6.20753 7.51866 6.27944 7.51866H29.8113L26.0002 5.30749C25.9103 5.25356 26.4496 5.28951 26.4496 5.28951L30.5664 7.53664C30.6383 7.57259 30.6742 7.66248 30.6563 7.73438C30.6383 7.80629 30.5664 7.8782 30.4945 7.8782H6.67493L10.4681 12.1388C10.522 12.1927 10.522 12.2646 10.504 12.3365C10.4861 12.4084 10.4142 12.4444 10.3422 12.4444H2.73797Z" fill="white"/>
		<path d="M41.2992 5.2356C41.2992 5.21762 41.3171 5.19965 41.3531 5.19965H41.4609L41.1733 4.96594C41.1553 4.94797 41.1553 4.92999 41.1733 4.91201C41.1913 4.89404 41.2272 4.89404 41.2452 4.91201L41.6048 5.19965C41.6227 5.21762 41.6227 5.21762 41.6227 5.2356C41.6227 5.25358 41.6048 5.25358 41.5868 5.25358H41.3711C41.3171 5.27155 41.2992 5.25358 41.2992 5.2356ZM40.1666 5.27155C40.1486 5.27155 40.1127 5.25358 40.1127 5.2356C40.1127 5.21762 40.1306 5.19965 40.1666 5.19965H40.8857C40.9037 5.19965 40.9216 5.21762 40.9216 5.2356C40.9216 5.25358 40.9037 5.27155 40.8857 5.27155H40.1666ZM38.9981 5.27155C38.9801 5.27155 38.9621 5.25358 38.9621 5.2356C38.9621 5.21762 38.9801 5.19965 38.9981 5.19965H39.7172C39.7352 5.19965 39.7711 5.21762 39.7711 5.2356C39.7711 5.25358 39.7531 5.27155 39.7172 5.27155H38.9981ZM37.8476 5.27155C37.8296 5.27155 37.7936 5.25358 37.7936 5.2356C37.7936 5.21762 37.8116 5.19965 37.8476 5.19965H38.5666C38.5846 5.19965 38.6206 5.21762 38.6206 5.2356C38.6206 5.25358 38.6026 5.27155 38.5666 5.27155H37.8476ZM36.6791 5.27155C36.6611 5.27155 36.6251 5.25358 36.6251 5.2356C36.6251 5.21762 36.6431 5.19965 36.6791 5.19965H37.3981C37.4161 5.19965 37.4341 5.21762 37.4341 5.2356C37.4341 5.25358 37.4161 5.27155 37.3981 5.27155H36.6791ZM35.5106 5.27155C35.4926 5.27155 35.4566 5.25358 35.4566 5.2356C35.4566 5.21762 35.4746 5.19965 35.5106 5.19965H36.2296C36.2476 5.19965 36.2656 5.21762 36.2656 5.2356C36.2656 5.25358 36.2476 5.27155 36.2296 5.27155H35.5106ZM34.3421 5.27155C34.3241 5.27155 34.2881 5.25358 34.2881 5.2356C34.2881 5.21762 34.3061 5.19965 34.3421 5.19965H35.0611C35.0791 5.19965 35.1151 5.21762 35.1151 5.2356C35.1151 5.25358 35.0971 5.27155 35.0611 5.27155H34.3421ZM33.1735 5.27155C33.1556 5.27155 33.1196 5.25358 33.1196 5.2356C33.1196 5.21762 33.1376 5.19965 33.1735 5.19965H33.8926C33.9106 5.19965 33.9286 5.21762 33.9286 5.2356C33.9286 5.25358 33.9106 5.27155 33.8926 5.27155H33.1735ZM32.005 5.27155C31.9871 5.27155 31.9691 5.25358 31.9691 5.2356C31.9691 5.21762 31.9871 5.19965 32.005 5.19965H32.7241C32.7421 5.19965 32.7781 5.21762 32.7781 5.2356C32.7781 5.25358 32.7601 5.27155 32.7241 5.27155H32.005ZM30.8365 5.27155C30.8186 5.27155 30.7826 5.25358 30.7826 5.2356C30.7826 5.21762 30.8006 5.19965 30.8365 5.19965H31.5556C31.5736 5.19965 31.5916 5.21762 31.5916 5.2356C31.5916 5.25358 31.5736 5.27155 31.5556 5.27155H30.8365ZM29.686 5.27155C29.668 5.27155 29.65 5.25358 29.65 5.2356C29.65 5.21762 29.668 5.19965 29.686 5.19965H30.4051C30.4231 5.19965 30.441 5.21762 30.441 5.2356C30.441 5.25358 30.4231 5.27155 30.4051 5.27155H29.686ZM28.5175 5.27155C28.4995 5.27155 28.4636 5.25358 28.4636 5.2356C28.4636 5.21762 28.4815 5.19965 28.5175 5.19965H29.2366C29.2546 5.19965 29.2905 5.21762 29.2905 5.2356C29.2905 5.25358 29.2725 5.27155 29.2366 5.27155H28.5175ZM27.349 5.27155C27.331 5.27155 27.2951 5.25358 27.2951 5.2356C27.2951 5.21762 27.313 5.19965 27.349 5.19965H28.0681C28.086 5.19965 28.104 5.21762 28.104 5.2356C28.104 5.25358 28.086 5.27155 28.0681 5.27155H27.349ZM26.1805 5.27155C26.1625 5.27155 26.1445 5.25358 26.1445 5.2356C26.1445 5.21762 26.1625 5.19965 26.1805 5.19965H26.8996C26.9175 5.19965 26.9535 5.21762 26.9535 5.2356C26.9535 5.25358 26.9355 5.27155 26.8996 5.27155H26.1805ZM40.8317 4.69629L40.3284 4.28282C40.3104 4.26484 40.3104 4.24686 40.3284 4.22889C40.3464 4.21091 40.3823 4.21091 40.4003 4.22889L40.9037 4.64236C40.9216 4.66033 40.9216 4.67831 40.9037 4.69629C40.9037 4.69629 40.8857 4.71427 40.8677 4.71427C40.8677 4.71427 40.8497 4.69629 40.8317 4.69629ZM40.0228 4.01316L39.5194 3.59969C39.5015 3.58171 39.5015 3.56374 39.5194 3.54576C39.5374 3.52778 39.5734 3.52778 39.5913 3.54576L40.0947 3.95923C40.1127 3.97721 40.1127 3.99518 40.0947 4.01316C40.0947 4.01316 40.0767 4.03114 40.0587 4.03114C40.0408 4.03114 40.0228 4.03114 40.0228 4.01316ZM39.1958 3.33004L38.6925 2.91656C38.6745 2.89859 38.6745 2.88061 38.6925 2.86263C38.7105 2.84466 38.7464 2.84466 38.7644 2.86263L39.2678 3.2761C39.2857 3.29408 39.2857 3.31206 39.2678 3.33004C39.2678 3.33004 39.2498 3.34801 39.2318 3.34801C39.2318 3.34801 39.2138 3.34801 39.1958 3.33004ZM38.3869 2.66489L37.8835 2.25141C37.8655 2.23344 37.8655 2.21546 37.8835 2.19748C37.9015 2.17951 37.9375 2.17951 37.9554 2.19748L38.4588 2.61095C38.4768 2.62893 38.4768 2.64691 38.4588 2.66489C38.4588 2.66489 38.4408 2.68286 38.4228 2.68286C38.4049 2.66489 38.3869 2.66489 38.3869 2.66489ZM37.5599 1.98176L37.1465 1.65817C37.1285 1.6402 37.1285 1.62222 37.1465 1.60424C37.1644 1.58627 37.2004 1.58627 37.2184 1.60424L37.6318 1.92783C37.6498 1.94581 37.6498 1.96378 37.6318 1.98176C37.6318 1.98176 37.6139 1.99974 37.5959 1.99974C37.5779 1.98176 37.5779 1.98176 37.5599 1.98176Z" fill="white"/>
		<path d="M25.0489 5.28953C25.0309 5.28953 25.0129 5.27155 25.0129 5.25357C25.0129 5.2356 25.0309 5.21762 25.0489 5.21762H25.768C25.7859 5.21762 25.8039 5.2356 25.8039 5.25357C25.8039 5.27155 25.7859 5.28953 25.768 5.28953H25.0489ZM23.8804 5.28953C23.8624 5.28953 23.8444 5.27155 23.8444 5.25357C23.8444 5.2356 23.8624 5.21762 23.8804 5.21762H24.5994C24.6174 5.21762 24.6354 5.2356 24.6354 5.25357C24.6354 5.27155 24.6174 5.28953 24.5994 5.28953H23.8804ZM22.7298 5.28953C22.7119 5.28953 22.6939 5.27155 22.6939 5.25357C22.6939 5.2356 22.7119 5.21762 22.7298 5.21762H23.4489C23.4669 5.21762 23.5028 5.2356 23.5028 5.25357C23.5028 5.27155 23.4849 5.28953 23.4489 5.28953H22.7298ZM21.5613 5.28953C21.5434 5.28953 21.5074 5.27155 21.5074 5.25357C21.5074 5.2356 21.5254 5.21762 21.5613 5.21762H22.2804C22.2984 5.21762 22.3164 5.2356 22.3164 5.25357C22.3164 5.27155 22.2984 5.28953 22.2804 5.28953H21.5613ZM20.3928 5.28953C20.3748 5.28953 20.3569 5.27155 20.3569 5.25357C20.3569 5.2356 20.3748 5.21762 20.3928 5.21762H21.1119C21.1299 5.21762 21.1658 5.2356 21.1658 5.25357C21.1658 5.27155 21.1479 5.28953 21.1119 5.28953H20.3928ZM19.2243 5.28953C19.2063 5.28953 19.1704 5.27155 19.1704 5.25357C19.1704 5.2356 19.1884 5.21762 19.2243 5.21762H19.9434C19.9614 5.21762 19.9973 5.2356 19.9973 5.25357C19.9973 5.27155 19.9794 5.28953 19.9434 5.28953H19.2243ZM18.0558 5.28953C18.0378 5.28953 18.0199 5.27155 18.0199 5.25357C18.0199 5.2356 18.0378 5.21762 18.0558 5.21762H18.7749C18.7929 5.21762 18.8108 5.2356 18.8108 5.25357C18.8108 5.27155 18.7929 5.28953 18.7749 5.28953H18.0558ZM16.8873 5.28953C16.8693 5.28953 16.8514 5.27155 16.8514 5.25357C16.8514 5.2356 16.8693 5.21762 16.8873 5.21762H17.6064C17.6244 5.21762 17.6603 5.2356 17.6603 5.25357C17.6603 5.27155 17.6423 5.28953 17.6064 5.28953H16.8873ZM15.7368 5.28953C15.7188 5.28953 15.7008 5.27155 15.7008 5.25357C15.7008 5.2356 15.7188 5.21762 15.7368 5.21762H16.4559C16.4738 5.21762 16.5098 5.2356 16.5098 5.25357C16.5098 5.27155 16.4918 5.28953 16.4559 5.28953H15.7368ZM14.5683 5.28953C14.5503 5.28953 14.5143 5.27155 14.5143 5.25357C14.5143 5.2356 14.5323 5.21762 14.5683 5.21762H15.2874C15.3053 5.21762 15.3233 5.2356 15.3233 5.25357C15.3233 5.27155 15.3053 5.28953 15.2874 5.28953H14.5683ZM13.3998 5.28953C13.3818 5.28953 13.3638 5.27155 13.3638 5.25357C13.3638 5.2356 13.3818 5.21762 13.3998 5.21762H14.1188C14.1368 5.21762 14.1728 5.2356 14.1728 5.25357C14.1728 5.27155 14.1548 5.28953 14.1188 5.28953H13.3998ZM12.2313 5.28953C12.2133 5.28953 12.1953 5.27155 12.1953 5.25357C12.1953 5.2356 12.2133 5.21762 12.2313 5.21762H12.9503C12.9683 5.21762 12.9863 5.2356 12.9863 5.25357C12.9863 5.27155 12.9683 5.28953 12.9503 5.28953H12.2313ZM11.0628 5.28953C11.0448 5.28953 11.0088 5.27155 11.0088 5.25357C11.0088 5.2356 11.0268 5.21762 11.0628 5.21762H11.7818C11.7998 5.21762 11.8358 5.2356 11.8358 5.25357C11.8358 5.27155 11.8178 5.28953 11.7818 5.28953H11.0628ZM9.89425 5.28953C9.87627 5.28953 9.85829 5.27155 9.85829 5.25357C9.85829 5.2356 9.87627 5.21762 9.89425 5.21762H10.6133C10.6313 5.21762 10.6673 5.2356 10.6673 5.25357C10.6673 5.27155 10.6493 5.28953 10.6133 5.28953H9.89425ZM8.74372 5.28953C8.72574 5.28953 8.68979 5.27155 8.68979 5.25357C8.68979 5.2356 8.70776 5.21762 8.74372 5.21762H9.4628C9.48078 5.21762 9.49875 5.2356 9.49875 5.25357C9.49875 5.27155 9.48078 5.28953 9.4628 5.28953H8.74372ZM7.57521 5.28953C7.55723 5.28953 7.52128 5.27155 7.52128 5.25357C7.52128 5.2356 7.53926 5.21762 7.57521 5.21762H8.29429C8.31227 5.21762 8.34822 5.2356 8.34822 5.25357C8.34822 5.27155 8.33025 5.28953 8.29429 5.28953H7.57521ZM6.40671 5.28953C6.38873 5.28953 6.37075 5.27155 6.37075 5.25357C6.37075 5.2356 6.38873 5.21762 6.40671 5.21762H7.12579C7.14376 5.21762 7.17972 5.2356 7.17972 5.25357C7.17972 5.27155 7.16174 5.28953 7.12579 5.28953H6.40671ZM5.2382 5.28953C5.22022 5.28953 5.18427 5.27155 5.18427 5.25357C5.18427 5.2356 5.20225 5.21762 5.2382 5.21762H5.95728C5.97526 5.21762 5.99323 5.2356 5.99323 5.25357C5.99323 5.27155 5.97526 5.28953 5.95728 5.28953H5.2382ZM4.06969 5.28953C4.05172 5.28953 4.03374 5.27155 4.03374 5.25357C4.03374 5.2356 4.05172 5.21762 4.06969 5.21762H4.78877C4.80675 5.21762 4.84271 5.2356 4.84271 5.25357C4.84271 5.27155 4.82473 5.28953 4.78877 5.28953H4.06969ZM2.90119 5.28953C2.88321 5.28953 2.86523 5.27155 2.86523 5.25357C2.86523 5.2356 2.88321 5.21762 2.90119 5.21762H3.62027C3.63825 5.21762 3.6742 5.2356 3.6742 5.25357C3.6742 5.27155 3.65622 5.28953 3.62027 5.28953H2.90119Z" fill="white"/>
		<path opacity="0.56" d="M35.6903 1.60422L39.1059 4.10302C39.1599 4.13898 39.1599 4.21088 39.1419 4.26482C39.1059 4.31875 39.052 4.3547 38.9801 4.3547H2.55868C2.45081 4.3547 2.37891 4.28279 2.37891 4.21088C2.37891 4.121 2.45081 4.06707 2.55868 4.06707H38.5666L35.2589 1.60422H35.6903Z" fill="white"/>
		<path d="M14.0276 19.1318C11.2412 19.761 9.15587 20.2644 8.76038 21.4329C8.59859 21.9183 9.44351 24.8845 10.1446 24.9923C10.8637 25.1002 14.4052 23.0688 14.6389 21.8823C14.9085 20.5161 14.0276 19.1318 14.0276 19.1318Z" fill="#CCE9F2"/>
		<path d="M8.72461 21.7205C8.77854 21.4689 9.13808 20.3363 10.2167 21.0734C10.4324 21.4329 10.9717 23.6441 10.8819 24.0935C10.8099 24.525 10.9358 25.1002 10.1448 24.9924C9.35381 24.8845 8.76056 22.4935 8.72461 21.7205Z" fill="#CCE9F2"/>
		<path d="M10.7916 21.2352C11.6365 20.2105 13.6679 19.761 14.0094 19.6532C14.333 19.5453 13.7937 19.3296 13.3802 19.3296C12.9848 19.3296 9.24553 20.1026 8.86802 21.1992C8.4905 22.2958 10.7916 21.2352 10.7916 21.2352Z" fill="white"/>
		<path d="M31.7719 19.024C34.5583 19.6532 36.6437 20.1565 37.0392 21.325C37.201 21.8104 36.356 24.7766 35.6549 24.8845C34.9359 24.9924 31.3944 22.9789 31.1607 21.7745C30.891 20.4082 31.7719 19.024 31.7719 19.024Z" fill="#CCE9F2"/>
		<path d="M37.0399 21.343C36.986 21.0913 36.6444 20.2284 35.5658 20.9835C35.3501 21.343 34.8107 23.5542 34.9006 24.0036C34.9725 24.4351 34.8467 25.0103 35.6377 24.9025C36.4467 24.7766 37.2556 22.2239 37.0399 21.343Z" fill="#CCE9F2"/>
		<path d="M35.6006 21.1812C34.7557 20.1565 32.149 19.6532 31.8254 19.5453C31.5019 19.4375 32.0412 19.2217 32.4546 19.2217C32.8501 19.2217 36.5893 19.9948 36.9669 21.0914C37.3084 22.17 35.6006 21.1812 35.6006 21.1812Z" fill="white"/>
		<path d="M10.7193 25.8193C10.4137 25.9631 10.3418 26.7721 10.3418 27.3653C10.3418 27.9585 10.3418 28.8574 10.6474 28.8574C10.953 28.8574 35.5995 28.7675 35.5995 28.7675C35.5995 28.7675 35.9411 27.8507 35.5456 25.8732C35.2939 24.6688 10.7193 25.8193 10.7193 25.8193Z" fill="#CCE9F2"/>
		<path d="M36.0848 24.0575C36.0129 24.3991 36.3005 26.2148 35.7432 26.2687C35.186 26.3226 22.9077 27.0417 22.8537 26.1608C22.7998 25.2799 22.5301 24.1294 23.0155 24.0216C23.5189 23.9137 36.0848 24.0575 36.0848 24.0575Z" fill="white"/>
		<path d="M10.0196 24.1115C10.0196 24.7047 9.6601 26.5204 10.6129 26.5204C11.5657 26.5204 22.4418 26.7541 22.5856 26.3766C22.7294 26.017 23.1249 24.2373 22.6035 23.8598C22.0822 23.5182 10.0196 24.1115 10.0196 24.1115Z" fill="white"/>
		<path d="M12.6782 22.5654C12.1389 22.3497 12.858 20.552 12.8041 20.0487C12.7502 19.5453 12.4445 18.0352 12.6243 17.4779C12.8041 16.9207 17.1006 17.6397 17.6938 17.7656C17.6938 17.7656 22.3858 17.1544 22.7454 17.1544C23.1049 17.1544 23.033 18.7363 22.7274 20.1385C22.6375 20.588 23.2847 22.2419 22.9791 22.4216C22.6735 22.5834 19.2578 22.4216 18.1792 22.4756C17.1725 22.5115 12.6782 22.5654 12.6782 22.5654Z" fill="white"/>
		<path d="M23.196 22.5654C22.6747 22.3497 22.9623 20.4621 22.9084 19.9588C22.8545 19.4554 22.9623 18.0352 23.1421 17.4779C23.3219 16.9207 28.5352 17.3161 29.1105 17.442C29.1105 17.442 32.7418 16.9566 33.0834 16.9566C33.425 16.9566 33.2812 18.6644 32.9935 20.0666C32.9036 20.5161 33.3351 22.1879 33.0475 22.3497C32.7598 22.5115 29.5959 22.4036 28.5532 22.4576C27.5824 22.5115 23.196 22.5654 23.196 22.5654Z" fill="white"/>
		<path d="M13.1475 22.3497C12.4105 22.2958 10.0195 23.8238 10.0195 24.1115C10.0195 24.3991 14.2441 24.3991 15.7182 24.2553C17.1924 24.1115 23.0169 24.6148 23.3765 24.3272C23.736 24.0396 23.8439 22.3857 22.945 22.4037C22.0462 22.4216 14.0464 22.4216 13.1475 22.3497Z" fill="#CCE9F2"/>
		<path d="M32.2203 22.3497C32.9574 22.2958 35.0068 23.8957 35.0068 24.1834C35.0068 24.471 32.1664 24.3452 30.0271 24.3272C28.553 24.3092 23.3217 24.6148 22.9622 24.3272C22.6026 24.0396 22.1532 22.3857 23.07 22.4037C23.9689 22.4216 31.3215 22.4216 32.2203 22.3497Z" fill="#CCE9F2"/>
		<path d="M11.7421 27.0776C11.796 28.1203 12.2634 28.8214 12.2634 28.8214C12.2634 28.8214 11.023 29.2888 10.9151 29.2888C10.8073 29.2888 10.9151 27.9226 10.9151 27.599C10.9151 27.2934 11.7421 27.0776 11.7421 27.0776Z" fill="#1E1E1E"/>
		<path d="M12.157 28.5877C12.2648 28.6776 12.4446 28.8574 12.4266 29.2888C12.4087 29.5764 12.3368 29.7203 12.3368 29.7203C12.3368 29.7203 11.8514 29.8461 11.7615 29.8461C11.7255 29.8461 11.8154 29.6843 11.6716 29.7203C11.5098 29.7562 11.0065 29.9719 10.7008 30.0079C10.3952 30.0438 9.62222 30.0079 9.56829 29.918C9.53234 29.8641 9.46043 29.6663 9.67615 29.6124C9.89188 29.5585 10.611 29.0012 10.7188 28.9113C10.8267 28.8034 10.7008 28.6956 10.8447 28.6416C10.9885 28.5877 11.5278 28.6776 11.4918 28.7675C11.4559 28.8574 11.4739 28.9113 11.4739 28.9113C11.4739 28.9113 11.9772 28.9472 12.0851 28.8034C12.1929 28.6596 12.157 28.5877 12.157 28.5877Z" fill="black"/>
		<path d="M14.6032 20.3183L13.7763 21.5767C13.7763 21.5767 11.2235 22.4755 10.7022 23.4642C10.4685 23.8957 10.9 28.5517 10.9 28.5517C10.9 28.5517 12.3561 28.6236 12.6797 28.5697C12.7336 28.5517 13.0212 25.4597 12.8774 24.2552C12.8595 24.1833 14.8189 23.3744 15.0706 23.3204C15.3223 23.2665 16.4549 20.7677 16.4549 20.7677L14.6032 20.3183Z" fill="black"/>
		<path d="M14.4205 27.2753C14.5104 28.318 14.9778 29.0011 14.9778 29.0011C14.9778 29.0011 13.7554 29.5045 13.6475 29.5045C13.5396 29.5045 13.5936 28.1382 13.5936 27.8146C13.5936 27.509 14.4205 27.2753 14.4205 27.2753Z" fill="#1E1E1E"/>
		<path d="M14.799 28.8034C14.9069 28.8933 15.1046 29.0551 15.0866 29.5045C15.0866 29.7921 15.0327 29.9899 15.0327 29.9899C15.0327 29.9899 14.6192 30.0618 14.5293 30.0618C14.4934 30.0618 14.4934 29.9 14.3316 29.9359C14.1878 29.9719 13.8462 30.1696 13.5406 30.2236C13.235 30.2595 12.3182 30.2955 12.2642 30.2056C12.2283 30.1517 12.0845 29.9359 12.3182 29.864C12.5339 29.8101 13.2889 29.2708 13.3968 29.1629C13.5046 29.0551 13.4327 29.0191 13.5766 28.9472C13.7204 28.8933 14.3496 28.8933 14.3136 28.9831C14.2777 29.073 14.3136 29.127 14.3136 29.127C14.3136 29.127 14.6911 29.127 14.781 28.9831C14.8529 28.8393 14.799 28.8034 14.799 28.8034Z" fill="black"/>
		<path d="M18.0342 20.9654C18.5735 21.4867 18.5016 22.9788 17.7826 23.3384C16.5781 23.9496 15.6073 24.2912 15.4815 24.4709C15.3017 24.7226 15.5174 27.0776 15.2118 28.6955C14.331 28.8573 13.7197 28.7315 13.2523 28.8034C13.2523 28.8034 12.9288 24.381 13.1265 23.3024C13.2164 22.817 14.7804 21.8822 15.0321 21.7744C15.2837 21.6665 15.7691 20.5879 15.7691 20.5879C15.7691 20.5879 17.7826 20.6958 18.0342 20.9654Z" fill="black"/>
		<path d="M15.8235 21.8283C15.5358 21.9541 13.3247 23.0687 13.2168 23.3743C13.3606 23.2844 14.1516 23.2125 14.3673 23.5181C15.1583 23.0148 16.4347 22.062 17.1538 22.1878C17.0819 22.0081 16.0392 21.7384 15.8235 21.8283Z" fill="#1E1E1E"/>
		<path d="M15.4102 16.2375C15.5 16.0757 16.7405 15.6802 17.064 15.8061C17.1719 15.86 17.2438 16.0218 17.2618 16.0398C17.2618 16.0577 16.7584 17.0285 16.0753 16.9925C15.4102 16.9925 15.4102 16.2375 15.4102 16.2375Z" fill="#a0b46f"/>
		<path d="M17.4243 16.0937C17.0288 15.9678 16.9928 15.842 16.9209 15.7521C16.9209 15.7521 16.9209 15.7521 16.9209 15.7341C16.7052 15.3746 16.5614 14.3499 16.5614 14.0802C16.5614 14.0802 15.0873 15.4645 15.303 15.6982C15.5187 15.9498 15.6086 16.0038 15.6086 16.2914C15.5187 16.4532 15.2491 16.4712 15.1592 16.5251C15.0513 16.579 15.9681 17.1903 16.1659 17.1723C16.3277 17.1543 17.8917 16.2375 17.4243 16.0937Z" fill="#DDA794"/>
		<path d="M14.5668 14.3499C14.6567 15.2847 14.7465 16.0398 15.142 16.0937C16.0409 16.1836 16.4544 15.5004 16.4723 14.6915C16.4903 13.9005 16.1308 13.0196 15.3757 13.1275C14.5308 13.2353 14.4769 13.5589 14.5668 14.3499Z" fill="#DDA794"/>
		<path d="M14.6366 13.1814C14.4568 13.523 14.313 13.8465 14.4928 13.8645C14.6725 13.9005 15.0501 13.7567 15.1759 13.8645C15.2838 13.9724 15.4995 14.0083 15.5894 14.0802C15.6793 14.1521 15.5354 13.7567 15.5354 13.7567L15.8051 14.0982V13.8106L15.859 13.9544L16.0568 14.1881L16.0747 14.4218L16.2186 14.3499L16.4343 14.296L16.5242 14.8712L16.9017 15.5004C16.9017 15.5004 17.0815 15.033 17.1354 14.7634C17.2073 14.4578 17.1893 14.3858 17.1893 14.2061C17.1893 13.9904 17.1893 13.9364 17.1893 13.7207C17.1713 13.487 16.9736 13.1275 16.8298 13.0735C16.686 13.0196 16.5421 12.9117 16.4702 12.9477C16.3983 12.9836 16.3624 12.8758 16.1467 12.8039C15.5894 12.6241 15.2119 12.8039 14.9602 12.9117C14.7804 13.0016 14.6366 13.1814 14.6366 13.1814Z" fill="black"/>
		<path d="M14.4582 14.8353C14.4402 14.8353 14.4402 14.8353 14.4582 14.8353C14.3503 14.8173 14.3683 14.5297 14.3683 14.5297C14.3683 14.5117 14.3683 14.5117 14.3683 14.4937C14.3683 14.4218 14.3863 14.3679 14.4222 14.3499L14.62 14.3139C14.6559 14.3319 14.6739 14.4038 14.6739 14.4757V14.6195C14.6739 14.6375 14.6739 14.6375 14.6739 14.6555C14.6739 14.7274 14.638 14.7993 14.602 14.7993L14.4582 14.8353ZM14.602 14.4398L14.4402 14.4577L14.4222 14.4757V14.6735L14.4402 14.7454H14.602C14.62 14.7454 14.638 14.4577 14.602 14.4398Z" fill="#a0b46f"/>
		<path d="M14.9973 15.2308C15.0872 15.2488 15.213 15.3207 15.2669 15.3566C15.3029 15.3926 15.5725 15.5723 15.6085 15.7881C15.6265 15.9319 15.3388 16.1296 15.1231 16.1476C15.0512 16.1476 14.7815 16.1836 14.7276 16.0038C14.7096 15.9319 14.6198 15.5364 14.7096 15.5364C14.7815 15.5364 14.9613 15.5364 14.9973 15.5184C15.0872 15.4645 15.0332 15.4825 14.9973 15.4825C14.9613 15.4825 14.9613 15.4825 14.9433 15.4825C14.9074 15.4825 14.6557 15.5544 14.6198 15.5184C14.5299 15.3746 14.6377 15.2488 14.6377 15.2488L14.9973 15.2308Z" fill="black"/>
		<path d="M14.6915 14.5117C14.6016 14.7993 14.5117 14.997 14.5297 15.0689C14.5476 15.1409 14.9431 15.1588 14.9431 15.1588L14.8532 14.5656L14.6915 14.5117Z" fill="#DDA794"/>
		<path d="M14.836 14.5117L14.6742 14.4937L14.6562 14.6375L14.836 14.6195V14.5117Z" fill="#a0b46f"/>
		<path d="M14.943 14.8532C14.8532 14.8532 14.7992 14.7813 14.7992 14.6914L14.7812 14.5296V14.5117C14.7812 14.4218 14.8352 14.3499 14.9071 14.3319L15.2127 14.3139H15.2307C15.3026 14.3139 15.3565 14.4038 15.3565 14.4937V14.5476V14.6555V14.6734C15.3565 14.7633 15.2846 14.8352 15.2127 14.8352L14.943 14.8532ZM15.2846 14.4937C15.2846 14.4577 15.2666 14.4218 15.2307 14.4218L14.9251 14.4397C14.8891 14.4397 14.8711 14.4757 14.8711 14.5117C14.8711 14.5117 14.8711 14.5117 14.8711 14.5296L14.8891 14.6734C14.8891 14.7094 14.9251 14.7454 14.943 14.7454C14.943 14.7454 14.943 14.7454 14.961 14.7454L15.2487 14.7274C15.2666 14.7274 15.3026 14.6914 15.3026 14.6555V14.5476L15.2846 14.4937Z" fill="#a0b46f"/>
		<path d="M15.3754 14.4398C15.3754 14.4398 16.6158 14.2061 16.6338 14.242C16.6697 14.2959 16.7057 14.3499 16.7057 14.3499L16.5799 14.3139L15.3574 14.6195L15.3754 14.4398Z" fill="#a0b46f"/>
		<path d="M16.22 14.2959C16.3098 14.1162 16.5256 14.1162 16.5975 14.26C16.6514 14.4038 16.6154 14.9251 16.3458 14.9971C16.0761 15.051 16.22 14.2959 16.22 14.2959Z" fill="#DDA794"/>
		<path d="M18.2881 18.2689C18.36 17.3521 18.7555 16.579 18.6116 16.5071C18.4678 16.4352 17.4072 16.1116 17.3173 16.0038C17.3173 16.0038 17.2274 16.7049 16.3825 16.9566C16.3286 16.9745 15.8252 17.1184 15.5735 16.8667C15.2859 16.615 15.5016 16.2015 15.5016 16.2015C15.3938 16.2914 14.6567 16.7229 14.5488 16.7408C14.5488 16.7408 14.0635 17.4419 14.2073 18.7003C14.405 20.534 13.5062 21.2171 13.9556 21.307C15.7533 20.5699 18.8453 22.5294 18.4499 22.2957C18.4499 22.2957 18.7195 22.0441 18.6656 21.3789C18.6116 20.7317 18.1982 19.1677 18.2881 18.2689Z" fill="#a0b46f"/>
		<path d="M15.9322 19.3116C15.8064 19.1857 15.6086 19.0779 15.5188 18.988C15.4289 18.9161 15.0334 18.7363 14.9435 18.7183C14.8536 18.7003 14.4941 18.6824 14.4222 18.7543C14.3503 18.8262 14.2064 18.8621 14.1885 18.952C14.1705 19.0419 14.4401 18.8981 14.4941 18.8801C14.548 18.8801 14.7458 18.8981 14.7458 18.8981C14.7458 18.8981 14.548 18.8981 14.4761 18.934C14.4042 18.97 14.1525 19.0779 14.1166 19.1677C14.0806 19.2576 14.3503 19.1138 14.4581 19.0958C14.548 19.0958 14.7817 19.0958 14.7817 19.0958C14.7817 19.0958 14.512 19.0958 14.4401 19.1318C14.3323 19.1857 14.1166 19.2576 14.1525 19.2936C14.1705 19.3116 14.2604 19.2936 14.3682 19.2936C14.512 19.2756 14.6918 19.2756 14.6918 19.2756L14.2783 19.3835C14.2783 19.3835 14.2244 19.4913 14.7458 19.4194C14.8536 19.4014 15.2671 19.5812 15.4109 19.5992C15.5547 19.6172 15.8603 19.9228 15.8603 19.9228L15.9322 19.3116Z" fill="#DDA794"/>
		<path d="M18.3579 16.561C18.6635 16.3993 18.9511 16.597 19.1848 17.388C19.4365 18.2509 19.2747 19.9407 18.7354 20.5699C18.5736 20.7677 16.0029 20.498 15.6613 20.534C15.6613 20.534 15.4995 19.2396 15.6074 18.952C16.2186 18.97 17.9084 19.4913 17.8905 19.3834C17.8725 19.2756 18.2141 18.6644 18.0882 17.8913C17.8905 16.7408 18.3579 16.561 18.3579 16.561Z" fill="#1A2A2D"/>
		<path d="M16.8855 19.2396C16.9754 19.1498 17.4068 18.7003 17.4967 18.6644C17.5866 18.6284 17.9461 18.5745 18.018 18.6464C18.0899 18.7003 18.2517 18.7363 18.2697 18.8262C18.2877 18.9161 18.018 18.8082 17.9641 18.8082C17.9102 18.8082 17.7304 18.8621 17.7304 18.8621C17.7304 18.8621 17.9281 18.8262 18.018 18.8621C18.1079 18.8981 18.3596 18.952 18.3955 19.0419C18.4315 19.1318 18.1439 19.0239 18.054 19.0239C17.9641 19.0239 17.7304 19.0779 17.7304 19.0779C17.7304 19.0779 18 19.0419 18.072 19.0779C18.1798 19.1138 18.4135 19.1498 18.3776 19.2037C18.3596 19.2217 18.2697 19.2217 18.1798 19.2217C18.036 19.2217 17.8562 19.2396 17.8562 19.2396L18.2697 19.2936C18.2697 19.2936 18.3416 19.4014 17.8203 19.4014C17.7124 19.4014 17.6585 19.4554 17.5147 19.4913C17.3529 19.4733 16.8136 19.3116 16.8855 19.2396Z" fill="#DDA794"/>
		<path d="M14.5481 16.7588C13.9729 16.9386 13.9549 17.7835 13.865 18.215C13.7931 18.5565 13.2358 19.7969 13.6852 20.2104C14.1167 20.6239 14.9616 20.516 16.0043 20.2643C17.0469 20.0127 15.9144 19.4194 15.9144 19.4194C15.9144 19.4194 14.3504 18.8442 14.3324 18.7003C14.2785 17.7835 14.5481 16.7588 14.5481 16.7588Z" fill="#1A2A2D"/>
		<path d="M17.1016 15.842C17.1016 15.842 17.3533 16.0038 17.0297 16.3993C16.6342 16.8667 15.9691 16.8667 15.9691 16.8667C15.4837 16.8127 15.5017 16.2734 15.5017 16.1656C15.5017 16.1656 15.3579 16.2015 15.25 16.3813C15.25 17.0824 15.9152 17.1723 15.9152 17.1723C17.3174 17.2262 17.4612 16.0577 17.4612 16.0577L17.1016 15.842Z" fill="#1A2A2D"/>
		<path d="M13.8662 21.5946C13.5966 21.6306 11.2955 22.4935 10.8281 23.3204C11.2416 23.1766 11.709 23.2485 11.7809 23.3384C12.9314 22.5114 14.873 21.7924 15.0168 21.7924C14.819 21.6126 14.028 21.5587 13.8662 21.5946Z" fill="#1E1E1E"/>
		<path d="M32.956 21.7745C34.1245 21.343 34.8616 20.9295 35.347 22.0082C35.4548 22.2419 36.2278 25.4418 36.6233 25.8373C36.9829 26.1968 37.3424 26.6282 37.8458 26.9518C37.6121 27.2754 37.2166 27.2934 36.7312 26.9339C36.4615 26.7361 36.12 26.844 35.9941 26.6822C35.6885 26.3226 36.0121 26.3586 35.7604 25.7474C35.5088 25.1362 34.4841 24.0216 34.502 22.889C34.52 22.1879 32.8122 23.1587 32.7942 22.925C32.7763 22.6913 32.956 21.7745 32.956 21.7745Z" fill="#DDA794"/>
		<path d="M35.8509 26.2148C35.761 26.3406 35.761 26.5563 35.9048 26.7721C36.0307 26.9878 36.3722 27.3114 36.3722 27.5091C36.4981 27.5091 36.4981 27.4732 36.4981 27.4732C36.4981 27.4732 36.2464 26.862 36.3722 26.8799C36.4981 26.8979 36.8037 27.2035 37.0733 27.3833C37.343 27.5631 38.0082 27.3473 38.0801 27.3114C38.2239 27.2395 38.1699 27.0417 37.9362 26.9878C37.7385 26.9339 37.6306 26.79 37.6306 26.79C37.6306 26.79 37.1812 27.0957 36.8756 26.862C36.57 26.6103 35.8509 26.2148 35.8509 26.2148Z" fill="#1E1E1E"/>
		<path d="M33.531 21.9183C34.8973 22.152 35.0052 22.2239 35.2389 22.4756C35.4007 22.6553 35.4186 23.4643 35.3287 24.0575C35.2928 24.3452 35.0411 27.1676 35.113 27.581C35.2029 28.1203 35.5984 28.8035 36.2456 29.0551C35.922 29.3068 35.131 29.0731 34.7535 28.5518C34.5557 28.2642 34.4299 28.2642 34.3041 28.0844C34.0883 27.7788 34.376 28.0305 34.322 27.3294C34.2681 26.6283 33.4412 25.244 33.9984 23.5362C34.0524 23.3924 30.9963 24.4171 30.1693 23.4283C30.0435 23.2486 33.531 21.9183 33.531 21.9183Z" fill="#EDC0B4"/>
		<path d="M34.3224 27.6889C34.1965 27.7788 34.1246 28.1204 34.1965 28.3541C34.2684 28.6057 34.4482 29.1271 34.3943 29.3248C34.5201 29.3608 34.5201 29.3248 34.5201 29.3248C34.5201 29.3248 34.4842 28.5158 34.61 28.5698C34.7358 28.6237 34.9336 29.0552 35.1493 29.3068C35.365 29.5585 36.2639 29.4327 36.3178 29.3608C36.3718 29.2889 36.3897 29.0911 36.192 29.0192C35.9942 28.9473 35.8145 28.8215 35.8145 28.8215C35.8145 28.8215 35.2931 29.0192 35.0774 28.7136C34.8617 28.39 34.3224 27.6889 34.3224 27.6889Z" fill="black"/>
		<path d="M29.0552 21.3071C28.6417 22.0441 28.7496 23.2486 29.2529 23.4823C30.2057 23.9137 31.8956 24.1654 33.3697 24.7047C33.8371 24.8845 34.1067 22.3677 34.664 21.4868C34.7539 21.361 31.1046 21.9542 30.8169 21.0554C30.5473 20.1925 29.4327 20.6419 29.0552 21.3071Z" fill="black"/>
		<path d="M31.7699 20.7138L32.0036 21.361C32.0036 21.361 33.6575 21.0914 34.8799 21.3251C34.7541 21.397 34.772 21.2352 34.5743 21.6127C34.4125 21.6666 31.7699 21.8823 30.4396 22.0441C30.2418 22.0621 30.1699 20.8936 30.1699 20.8936L31.7699 20.7138Z" fill="#1E1E1E"/>
		<path d="M31.213 16.5791C31.2849 16.615 31.5006 16.5611 31.5545 16.5431C31.5725 16.7049 31.6444 17.0285 31.6444 17.0285C31.6444 17.0285 31.4287 17.2083 31.3208 17.1903C31.177 17.1543 31.213 16.5791 31.213 16.5791Z" fill="#CE1111"/>
		<path d="M31.9685 17.1723C32.0584 17.2981 33.0651 19.3835 32.7056 20.4261C32.7056 20.4261 31.5191 20.7497 30.9258 20.516C30.3146 20.2643 30.8899 19.8868 30.8899 19.8868L31.9685 17.1723Z" fill="#990000"/>
		<path d="M30.548 13.6848C29.9547 12.9118 29.2357 13.6488 29.1098 14.3679C28.984 15.087 28.8402 18.2689 28.1211 18.6105C28.6604 19.5813 30.0446 19.0419 30.0446 19.0419C30.0446 19.0419 31.4109 18.7543 31.6266 18.5566C31.8244 18.3768 30.548 13.6848 30.548 13.6848Z" fill="black"/>
		<path d="M31.6622 17.3161C31.5723 17.2982 31.4824 17.1903 31.3206 16.9206C31.2847 16.4712 31.6442 16.0218 32.0038 15.878C32.0038 15.878 30.8173 13.9544 30.7274 14.5477C30.5117 16.1656 29.8286 16.5971 29.8106 16.5791C29.7027 16.651 29.8286 16.8128 29.6847 16.9566C29.4151 17.3521 31.6442 17.3701 31.6622 17.3161Z" fill="#EDC0B4"/>
		<path d="M31.6454 16.1656L30.1713 17.1543L29.7578 16.5611C29.7578 16.5611 29.9735 16.3993 30.1174 16.2195C30.405 15.86 30.5668 15.2128 30.5668 15.2128C30.5668 15.2128 31.178 15.878 31.6454 16.1656Z" fill="url(#paint0_linear_3702_2450)"/>
		<path d="M30.152 14.8353C30.0441 14.0084 30.3138 13.4691 30.9789 13.3792C31.6441 13.2893 32.0755 13.7567 32.2013 14.5837C32.2193 14.7095 32.3631 15.6803 31.8957 16.1656C31.7879 16.2915 31.6261 16.2555 31.4823 16.2375C30.7991 16.2375 30.2598 15.6623 30.152 14.8353Z" fill="#EDC0B4"/>
		<path d="M31.321 13.9005C31.7345 13.7747 31.9682 13.9005 32.0761 14.1522C32.166 13.8286 31.7884 13.4151 31.3929 13.3253C30.9975 13.2354 30.584 13.3073 30.584 13.4331C30.584 13.559 31.321 13.9005 31.321 13.9005Z" fill="#232121"/>
		<path d="M31.7174 13.8466C31.3758 13.9724 30.6747 14.1522 30.6927 14.9252C30.6927 14.9252 30.495 14.7634 30.3871 14.9432C30.2613 15.1769 30.5848 15.4825 30.5848 15.4825L30.441 15.6982C30.441 15.6982 29.5781 15.5904 29.5781 14.7275C29.5781 13.8646 30.2253 13.1994 31.0163 13.2713C31.3758 13.3073 31.7174 13.8466 31.7174 13.8466Z" fill="black"/>
		<path d="M30.1519 16.3094C30.2059 16.3993 31.2845 17.2083 31.2845 16.7589C31.2845 16.6151 31.9496 17.1184 31.9676 17.1723C31.9856 17.2263 31.9856 17.7836 32.3811 18.4847C32.5249 18.7363 32.3811 19.2037 32.2193 19.3296C32.1294 19.4195 32.3451 20.9295 31.9496 21.2531C31.644 21.5048 28.7497 22.116 28.8216 21.8284C29.3789 19.7071 28.8756 17.0645 28.8756 17.0645L30.1519 16.3094Z" fill="#CE1111"/>
		<path d="M31.4292 16.5791C30.8 16.615 30.1708 16.1117 30.1529 16.0218C30.063 16.1476 29.8652 16.4712 29.8652 16.4712C29.8652 16.4712 30.3866 17.3161 31.4472 17.1543C31.4832 16.7588 31.4292 16.5791 31.4292 16.5791Z" fill="#990000"/>
		<path d="M31.9863 19.3835C32.1122 19.3116 32.3279 19.1678 32.3998 19.2037C32.4717 19.2397 32.5616 19.5813 32.4897 19.7251C32.4178 19.8689 32.1661 19.9048 32.0762 19.9048C31.9863 19.9228 31.9863 19.3835 31.9863 19.3835Z" fill="#EDC0B4"/>
		<path d="M28.9654 17.0285C28.6778 17.1544 28.3362 17.424 28.6059 18.4847C28.8756 19.5453 29.7564 21.0913 30.2598 20.8576C30.7811 20.6419 32.0934 20.5161 32.2013 20.3363C32.3092 20.1565 32.2552 19.3655 32.0755 19.2577C31.8957 19.1498 30.5474 19.5273 30.5474 19.5273C30.5474 19.5273 29.9722 18.1611 29.7564 17.7117C29.5587 17.3162 29.1991 16.9386 28.9654 17.0285Z" fill="#990000"/>
		<path d="M30.9612 19.4554C30.8713 19.4015 30.4759 18.8981 30.332 18.8802C30.2961 18.8802 30.1882 18.8802 30.0804 18.8981C29.9545 18.9161 29.8107 18.97 29.8107 18.988C29.7927 19.042 29.9365 19.006 30.0624 19.006C30.1882 19.006 30.2961 19.024 30.2961 19.024C30.2961 19.024 29.8107 19.042 29.7927 19.1139C29.7748 19.1678 29.9006 19.1678 30.0624 19.1678C30.2422 19.1678 30.2961 19.2037 30.2961 19.2037C30.2961 19.2037 30.1702 19.1858 30.0624 19.1858C29.9365 19.1858 29.8287 19.2037 29.8467 19.2397C29.8646 19.2757 29.9725 19.2577 30.0804 19.2757C30.2062 19.2936 30.2961 19.2936 30.2961 19.2936C30.2961 19.2936 29.9186 19.2577 29.9186 19.3296C29.9186 19.3835 30.1163 19.4015 30.2961 19.4374C30.368 19.4554 30.6197 19.5633 30.6556 19.5633C30.7275 19.5453 30.9612 19.4554 30.9612 19.4554Z" fill="#EDC0B4"/>
		<path d="M23.666 27.8866C23.9536 27.581 24.8525 25.4597 25.0323 24.7766C26.2367 20.4441 26.6322 24.6327 26.1828 25.1541C25.1401 26.3945 24.9064 28.2281 24.7446 28.5697C24.439 29.2888 23.666 27.8866 23.666 27.8866Z" fill="#DDA794"/>
		<path d="M23.8273 27.4911C24.2228 27.527 24.7441 27.6709 24.8879 27.9944C25.0317 28.318 24.6542 29.109 24.2048 29.0012C23.7554 28.8933 23.234 28.6776 23.4318 28.0843C23.5576 27.7068 23.8273 27.4911 23.8273 27.4911Z" fill="black"/>
		<path d="M24.4921 28.7854C24.1325 28.9652 23.5752 29.6663 23.5213 30.0258C23.2696 29.9899 23.3415 29.9899 23.3415 29.9899C23.3415 29.9899 23.773 28.9832 23.5393 28.3C23.4494 28.0663 24.4921 28.7854 24.4921 28.7854Z" fill="black"/>
		<path d="M26.4169 26.0709L25.8056 28.0304L23.7383 27.0776L24.0798 25.9091L26.4169 26.0709Z" fill="#001C49"/>
		<path d="M27.7623 30.2955C27.6904 30.4214 27.9241 31.8955 28.0859 32.1472C28.2477 32.3989 26.4141 30.5472 26.4141 30.5472L26.6657 29.3787L27.7623 30.2955Z" fill="#EDC0B4"/>
		<path d="M27.6523 31.9495C27.7422 31.9674 28.3175 31.6259 28.4613 31.7697C28.5512 31.8596 28.6411 32.6506 28.2636 32.6326C27.94 32.6326 27.6523 31.9495 27.6523 31.9495Z" fill="#1E1E1E"/>
		<path d="M26.2148 31.3922C26.6103 31.9854 26.6103 32.6146 26.6103 32.7584C26.7182 32.7764 26.7542 32.7764 26.7542 32.7764C26.7542 32.7764 26.7901 31.8056 26.898 31.4281L26.2148 31.3922Z" fill="black"/>
		<path d="M26.3588 30.3495C25.9454 30.6191 26.0532 31.482 26.3049 31.5C26.7184 31.536 27.2038 31.5 27.3476 31.3382C27.4734 31.1764 27.4375 30.8528 27.2397 30.6371C26.9521 30.3315 26.4667 30.2956 26.3588 30.3495Z" fill="black"/>
		<path d="M27.2392 30.6551C27.6167 31.2304 28.0661 32.0573 28.3897 32.2371C28.6414 32.3809 28.4257 32.6865 28.4257 32.6865C28.4257 32.6865 27.6527 32.8483 27.3291 32.7224C27.1133 32.6326 27.0414 31.8955 26.7538 31.4641C26.4482 31.0146 27.2392 30.6551 27.2392 30.6551Z" fill="black"/>
		<path d="M26.7198 22.7632C27.6187 22.2418 29.74 22.098 29.0568 24.453C28.8231 25.2799 28.14 30.6191 28.14 30.6191L26.0547 30.0438C26.0547 30.0438 26.0727 24.0036 26.4861 23.3025C26.8816 22.5834 26.7198 22.7632 26.7198 22.7632Z" fill="#0D3B7F"/>
		<path d="M29.7758 33.028L29.9915 33.064L29.1286 25.6574C29.1466 25.6395 29.1466 25.6395 29.1466 25.6395V24.417L25.1377 24.9923L24.6164 24.9204C24.0411 24.8485 23.2501 24.9024 22.7467 25.0462L20.212 25.0642L20.176 26.1967L19.6367 33.4595L19.9423 33.4774L21.0389 26.5563C21.776 26.6641 23.6815 26.8979 24.6343 26.9877L25.5871 34.1606L25.9107 34.1785L25.4792 26.9518L28.3376 25.981L29.7758 33.028Z" fill="#6A7B9B"/>
		<path d="M24.9048 13.8106C24.5992 14.2241 24.9587 16.5251 24.7969 16.633C24.6351 16.7409 21.0218 15.6443 21.0218 15.6443C21.0218 15.6443 20.7881 13.9724 21.4892 12.6241C22.1004 11.4197 23.934 11.7432 24.5992 12.5163C25.2643 13.2893 24.9048 13.8106 24.9048 13.8106Z" fill="black"/>
		<path d="M25.3528 25.6215C24.8674 25.7833 20.6967 25.3159 20.6967 25.3159C20.1215 25.2619 19.9956 25.0642 20.4091 24.9024C20.4091 24.9024 24.0944 24.0395 24.7415 24.1114L28.5706 24.2193C29.2538 24.2912 29.3257 24.5069 28.7504 24.6867L25.3528 25.6215Z" fill="#97A8C1"/>
		<path d="M23.8066 24.2373C24.6875 24.8125 25.5504 25.2979 26.8627 24.6328C28.1751 23.9856 29.5593 21.9182 29.5593 21.5227C29.5593 21.1273 28.966 19.8329 27.7256 20.9655C26.7908 21.8284 25.91 21.7564 25.7122 21.5587C25.4785 21.361 23.8066 24.2373 23.8066 24.2373Z" fill="#001C49"/>
		<path d="M27.7269 21.8643L24.5449 21.5767L27.3314 18.9341L30.711 19.0599L27.7269 21.8643Z" fill="black"/>
		<path d="M27.5108 21.379L25.1738 21.1632L27.2951 19.1858L29.9018 19.2936L27.5108 21.379Z" fill="white"/>
		<path d="M21.3448 15.842C21.201 16.2914 20.5718 16.615 20.2302 16.7588C19.8886 16.9027 19.5651 16.9206 19.7089 17.6038C19.8527 18.2869 23.1784 24.1654 23.502 24.2013C23.8076 24.2373 26.3064 22.7811 26.3604 22.4216C26.4143 22.08 26.2165 20.9475 26.2165 20.9475C26.2165 20.9475 24.8683 16.8128 24.7424 16.7948C23.5919 16.7229 23.6818 15.9139 23.6818 15.9139L21.3448 15.842Z" fill="#001C49"/>
		<path d="M28.6431 19.2396C28.6431 19.2396 28.4454 18.97 28.4274 18.97C28.4094 18.97 28.2656 19.1677 28.2656 19.2037C28.2656 19.2216 28.3016 19.3475 28.3735 19.3295C28.4454 19.3115 28.6431 19.2396 28.6431 19.2396Z" fill="#DDA794"/>
		<path d="M27.4924 19.9947C27.4924 19.9947 27.4744 20.0486 27.4924 20.0486L27.5463 20.0306L27.4924 19.9947Z" fill="black"/>
		<path d="M27.4922 19.9947C27.5102 19.9408 27.5821 19.8149 27.6001 19.779L27.7079 19.8688C27.672 19.9048 27.5641 20.0127 27.5281 20.0306C27.5102 20.0127 27.4922 19.9947 27.4922 19.9947Z" fill="#7AA7D6"/>
		<path d="M27.6016 19.779C27.6375 19.7071 28.2667 18.8801 28.2667 18.8801L28.4465 19.0239C28.4465 19.0239 27.7634 19.8149 27.7094 19.8509C27.6555 19.8149 27.6195 19.797 27.6016 19.779Z" fill="#6A7B9B"/>
		<path d="M28.877 18.3228L28.7871 18.2509C28.7871 18.2509 28.877 18.1251 28.9669 18.197C29.0568 18.2689 28.9669 18.3768 28.9669 18.3947L28.877 18.3228Z" fill="#8FA4BC"/>
		<path d="M28.2656 19.0239C28.2656 19.0239 28.769 18.2329 28.8049 18.215C28.8409 18.2509 28.8768 18.2689 28.8948 18.2869C28.9128 18.3049 28.9488 18.3228 28.9847 18.3588C28.9667 18.3947 28.4274 19.0419 28.4274 19.0599L28.2656 19.0239Z" fill="#6A7B9B"/>
		<path d="M28.2667 18.8981L28.3566 18.97L27.6555 19.8329C27.6195 19.8149 27.6016 19.797 27.6016 19.797C27.6375 19.725 28.2667 18.8981 28.2667 18.8981Z" fill="#97A8C1"/>
		<path d="M28.3024 18.97L28.2305 18.934C28.2305 18.934 28.7698 18.2509 28.8057 18.215C28.8417 18.2509 28.8597 18.2689 28.8956 18.2869L28.3204 19.006H28.3024V18.97Z" fill="#97A8C1"/>
		<path d="M28.9841 18.179L28.9122 18.2869L28.8223 18.215C28.8223 18.197 28.8942 18.1251 28.9841 18.179Z" fill="#8FA4BC"/>
		<path d="M27.9964 20.3003C28.1942 20.2104 28.5178 20.1205 28.6076 19.9048C28.6975 19.6891 28.7515 19.3475 28.6076 19.1857C28.4818 19.0239 28.4459 19.1498 28.32 19.2037C28.1402 19.2756 28.0144 19.2397 28.0144 19.2397C28.0144 19.2397 28.2841 18.97 28.1942 18.934C28.1043 18.9161 28.0863 18.988 27.9605 19.0779C27.8706 19.1498 27.7807 19.2397 27.6009 19.4014C27.4391 19.5632 27.2773 19.9408 27.2773 19.9408L27.9964 20.3003Z" fill="#EDC0B4"/>
		<path d="M27.9423 19.6352C27.8164 19.5633 27.7086 19.5992 27.6187 19.6531L27.3311 19.6891C27.3311 19.6891 27.0255 19.5992 26.9715 19.5093C26.8097 19.2397 25.6592 17.9453 25.3895 17.4599C25.1019 16.9206 24.8323 16.8128 24.8323 16.8128C24.1851 16.7409 23.6817 17.1723 23.8795 18.161C24.221 19.761 26.1985 21.0913 26.4682 21.1992C27.0794 21.4688 28.2659 20.4441 28.2659 20.4441C28.2299 20.2644 28.2119 19.779 27.9423 19.6352Z" fill="#001C49"/>
		<path d="M26.8998 19.4194C26.6302 18.97 25.5156 17.6397 25.246 17.1363C24.7066 16.5072 24.5628 17.0285 24.5628 17.0285C24.401 18.6105 26.7021 19.9587 26.8459 20.1565C26.9358 20.2823 27.6369 19.9408 28.0144 19.725C28.0683 19.6891 27.8526 19.4913 27.6189 19.4374C27.3672 19.4015 27.3493 19.4913 27.0437 19.5453C27.0437 19.5273 26.9358 19.4913 26.8998 19.4194Z" fill="#0D3B7F"/>
		<path d="M25.4435 24.9204C25.4975 25.3519 24.9761 25.5496 24.2211 25.4597L21.0751 25.1541C20.3201 25.0642 20.1942 24.8305 20.0504 24.3811L18.5044 18.3228C18.2707 17.6217 18.6482 17.0465 19.6549 17.1364L23.1245 17.2442C24.1312 17.3341 24.4728 18.161 24.5447 18.8622L25.4435 24.9204Z" fill="#97A8C1"/>
	</g>
	<defs>
		<linearGradient id="paint0_linear_3702_2450" x1="29.9606" y1="17.1043" x2="31.2659" y2="15.5072" gradientUnits="userSpaceOnUse">
			<stop stop-color="white"/>
			<stop offset="0.1275" stop-color="#FBFAFA"/>
			<stop offset="0.2889" stop-color="#EEEBEA"/>
			<stop offset="0.4687" stop-color="#D9D2D0"/>
			<stop offset="0.6604" stop-color="#BCB0AC"/>
			<stop offset="0.7125" stop-color="#B3A6A1"/>
		</linearGradient>
		<clipPath id="clip0_3702_2450">
			<rect width="40.4483" height="40.4483" fill="white" transform="translate(2.37891 1.58624)"/>
		</clipPath>
	</defs>
</svg>