<svg xmlns="http://www.w3.org/2000/svg" width="15" height="15" viewBox="0 0 15 15" fill="none">
  <g clip-path="url(#clip0_3702_1872)">
    <path d="M14.9631 5.31629C14.9164 5.17158 14.8281 5.04382 14.7093 4.94892C14.5905 4.85403 14.4464 4.7962 14.295 4.78265L10.0802 4.39991L8.4136 0.499002C8.29067 0.213129 8.01082 0.0281372 7.69987 0.0281372C7.38893 0.0281372 7.10905 0.213157 6.98617 0.499715L5.31954 4.39994L1.10411 4.78265C0.95284 4.7965 0.808959 4.85445 0.69031 4.94932C0.571661 5.04418 0.483463 5.17177 0.43665 5.31629C0.340503 5.612 0.429291 5.93632 0.663597 6.14077L3.84947 8.93475L2.91002 13.073C2.84129 13.3772 2.95937 13.6918 3.21184 13.8743C3.34752 13.9723 3.5063 14.0222 3.66639 14.0222C3.80444 14.0222 3.94134 13.985 4.06427 13.9115L7.69987 11.7386L11.3342 13.9115C11.6001 14.0715 11.9353 14.0568 12.1872 13.8743C12.3106 13.785 12.4049 13.6614 12.4586 13.519C12.5123 13.3765 12.5229 13.2214 12.4891 13.073L11.5496 8.93475L14.7355 6.14134C14.8501 6.04124 14.9328 5.90968 14.9732 5.763C15.0137 5.61632 15.0102 5.46098 14.9631 5.31629Z" fill="#DDDDDD"/>
  </g>
  <defs>
    <clipPath id="clip0_3702_1872">
      <rect width="14.6027" height="14.6027" fill="white" transform="translate(0.398438)"/>
    </clipPath>
  </defs>
</svg>