<svg xmlns="http://www.w3.org/2000/svg" width="15" height="15" viewBox="0 0 15 15" fill="none">
  <g clip-path="url(#clip0_3702_1856)">
    <path d="M14.5647 5.31629C14.518 5.17158 14.4297 5.04382 14.3109 4.94892C14.1921 4.85403 14.048 4.7962 13.8965 4.78265L9.68177 4.39991L8.01516 0.499002C7.89223 0.213129 7.61238 0.0281372 7.30143 0.0281372C6.99049 0.0281372 6.71061 0.213157 6.58774 0.499715L4.9211 4.39994L0.705677 4.78265C0.554403 4.7965 0.410521 4.85445 0.291873 4.94932C0.173224 5.04418 0.0850253 5.17177 0.0382125 5.31629C-0.0579342 5.612 0.0308539 5.93632 0.26516 6.14077L3.45103 8.93475L2.51159 13.073C2.44285 13.3772 2.56093 13.6918 2.8134 13.8743C2.94908 13.9723 3.10786 14.0222 3.26795 14.0222C3.406 14.0222 3.5429 13.985 3.66583 13.9115L7.30143 11.7386L10.9357 13.9115C11.2017 14.0715 11.5369 14.0568 11.7888 13.8743C11.9121 13.785 12.0065 13.6614 12.0602 13.519C12.1138 13.3765 12.1244 13.2214 12.0906 13.073L11.1512 8.93475L14.3371 6.14134C14.4517 6.04124 14.5343 5.90968 14.5748 5.763C14.6153 5.61632 14.6117 5.46098 14.5647 5.31629Z" fill="#FFC107"/>
  </g>
  <defs>
    <clipPath id="clip0_3702_1856">
      <rect width="14.6027" height="14.6027" fill="white"/>
    </clipPath>
  </defs>
</svg>