<svg xmlns="http://www.w3.org/2000/svg" width="20" height="20" viewBox="0 0 20 20" fill="none">
  <path d="M18.3334 9.68333C18.3334 9.51757 18.2676 9.3586 18.1504 9.24139C18.0331 9.12418 17.8742 9.05833 17.7084 9.05833H9.16675V7.29583C9.16675 5.39416 6.98342 4.32 5.47758 5.47916L2.37508 7.86833C2.09705 8.08239 1.87189 8.35743 1.71696 8.67226C1.56202 8.98708 1.48145 9.33328 1.48145 9.68417C1.48145 10.035 1.56202 10.3812 1.71696 10.6961C1.87189 11.0109 2.09705 11.2859 2.37508 11.5L5.47675 13.8875C6.98342 15.0458 9.16675 13.9708 9.16675 12.0692V10.3083H17.7084C17.8742 10.3083 18.0331 10.2425 18.1504 10.1253C18.2676 10.0081 18.3334 9.84909 18.3334 9.68333Z" fill="#CECECE"/>
</svg>