<svg xmlns="http://www.w3.org/2000/svg" width="21" height="21" viewBox="0 0 21 21" fill="none">
  <path d="M8.53125 10.5C8.53125 11.5854 9.41456 12.4688 10.5 12.4688C11.5854 12.4688 12.4688 11.5854 12.4688 10.5C12.4688 9.41456 11.5854 8.53125 10.5 8.53125C9.41456 8.53125 8.53125 9.41456 8.53125 10.5ZM8.53125 17.0625C8.53125 18.1479 9.41456 19.0312 10.5 19.0312C11.5854 19.0312 12.4688 18.1479 12.4688 17.0625C12.4688 15.9771 11.5854 15.0938 10.5 15.0938C9.41456 15.0938 8.53125 15.9771 8.53125 17.0625ZM8.53125 3.9375C8.53125 5.02294 9.41456 5.90625 10.5 5.90625C11.5854 5.90625 12.4688 5.02294 12.4688 3.9375C12.4688 2.85206 11.5854 1.96875 10.5 1.96875C9.41456 1.96875 8.53125 2.85206 8.53125 3.9375Z" fill="#3E3E3E"/>
</svg>