<svg xmlns="http://www.w3.org/2000/svg" width="96" height="95" viewBox="0 0 96 95" fill="none">
  <path d="M94.5 47.5342C94.5 72.4559 73.7205 92.729 48 92.729C22.2795 92.729 1.5 72.4559 1.5 47.5342C1.5 22.6126 22.2795 2.33948 48 2.33948C73.7205 2.33948 94.5 22.6126 94.5 47.5342Z" fill="#DAFBFF" stroke="white" stroke-width="3"/>
  <mask id="mask0_3702_1737" style="mask-type:luminance" maskUnits="userSpaceOnUse" x="4" y="6" width="88" height="86">
    <path d="M47.7837 91.4614C71.6757 91.4614 91.044 72.4945 91.044 49.0975C91.044 25.7006 71.6757 6.7337 47.7837 6.7337C23.8917 6.7337 4.52344 25.7006 4.52344 49.0975C4.52344 72.4945 23.8917 91.4614 47.7837 91.4614Z" fill="white"/>
  </mask>
  <g mask="url(#mask0_3702_1737)">
    <path d="M-6.85547 119.023H102.859C102.859 103.031 85.7458 97.331 78.2752 95.2894C75.2348 94.4387 71.4995 92.7374 68.0247 91.036C62.9864 88.484 58.643 85.8469 58.643 85.8469H37.3603C37.3603 85.8469 33.0169 88.484 27.9786 91.036C24.5039 92.8224 20.7686 94.5238 17.7282 95.2894C10.2575 97.331 -6.85547 102.946 -6.85547 119.023Z" fill="#EBB941"/>
    <path d="M31.2795 89.2496C35.0148 91.6315 40.4006 93.588 47.9582 93.588C55.5157 93.588 60.9015 91.6315 64.6368 89.2496C65.6792 89.845 66.8085 90.4405 68.0247 91.036C64.3762 94.4387 58.2086 97.9265 47.9582 97.9265C37.7077 97.9265 31.5401 94.4387 27.9785 91.036C29.1078 90.3555 30.2371 89.76 31.2795 89.2496Z" fill="white"/>
    <path d="M31.2793 89.2496C34.754 87.3781 37.2732 85.8469 37.2732 85.8469H58.6427C58.6427 85.8469 61.1619 87.3781 64.6366 89.2496C60.9013 91.6315 55.6023 93.503 47.9579 93.503C40.4004 93.503 35.0146 91.6315 31.2793 89.2496Z" fill="#FCBDA9"/>
    <path d="M37.3594 88.6541V63.3038H58.5552V88.6541C53.0825 95.1193 42.9189 95.1193 37.3594 88.6541Z" fill="#FCBDA9"/>
    <path d="M37.3594 63.2188V79.8921C42.9189 84.5709 48.131 83.9754 48.131 83.9754C48.131 83.9754 53.1694 84.4858 58.5552 80.0623V63.2188H37.3594Z" fill="#F8A196"/>
    <path d="M77.147 58.5401C74.3672 64.4097 67.0703 62.9636 67.0703 62.9636L67.5915 60.2414L67.8521 58.9654L69.242 52.245L69.5895 50.4586L70.1976 47.6514C77.2339 46.3753 79.9268 52.6704 77.147 58.5401Z" fill="#FCBDAA"/>
    <path d="M74.3674 53.521C73.6725 51.7346 71.5008 51.1391 69.8503 51.9898C69.6765 52.0749 69.4159 52.245 69.2422 52.3301L69.5897 50.5437C70.7189 50.0333 71.9351 49.9482 73.0644 50.3735C74.3674 50.8839 75.4098 51.8197 75.7573 53.0957C76.1048 54.0315 74.7149 54.3717 74.3674 53.521Z" fill="#F8A196"/>
    <path d="M73.4988 58.54C72.6301 59.5609 71.3271 60.3265 70.0241 60.4966C69.3292 60.5817 68.3736 60.5817 67.5918 60.2414L67.8524 58.9654C68.113 59.1355 68.4605 59.3057 68.808 59.3057C69.5029 59.3057 70.111 59.2206 70.7191 58.9654C71.3271 58.7102 71.9352 58.3699 72.4564 57.9446C72.9776 57.6043 73.2382 57.0088 73.5857 56.5835C73.7594 56.4133 74.02 56.4133 74.1069 56.6685C74.3675 57.3491 73.9332 58.0296 73.4988 58.54Z" fill="#F8A196"/>
    <path d="M18.7704 58.5401C21.5502 64.4097 28.8471 62.9636 28.8471 62.9636L28.3259 60.3265L28.0653 59.0505L26.6754 52.3301L26.3279 50.5437L25.7198 47.7364C18.7704 46.3753 16.0775 52.6704 18.7704 58.5401Z" fill="#FCBDAA"/>
    <path d="M21.6371 53.521C22.332 51.7346 24.5037 51.1391 26.1542 51.9898C26.328 52.0749 26.5886 52.245 26.7623 52.3301L26.4148 50.5437C25.2856 50.0333 24.0694 49.9482 22.9401 50.3735C21.6371 50.8839 20.5947 51.8197 20.2472 53.0957C19.8129 54.0315 21.2896 54.3717 21.6371 53.521Z" fill="#F8A196"/>
    <path d="M22.4191 58.54C23.2878 59.5609 24.5908 60.3265 25.8938 60.4966C26.5888 60.5817 27.5443 60.5817 28.3261 60.2414L28.0655 58.9654C27.8049 59.1355 27.4575 59.3057 27.11 59.3057C26.415 59.3057 25.807 59.2206 25.1989 58.9654C24.5908 58.7102 23.9827 58.3699 23.4615 57.9446C22.9403 57.6043 22.6797 57.0088 22.3322 56.5835C22.1585 56.4133 21.8979 56.4133 21.811 56.6685C21.6373 57.3491 22.0716 58.0296 22.4191 58.54Z" fill="#F8A196"/>
    <path d="M70.2836 50.884C70.1968 51.4795 70.1099 52.0749 69.9362 52.6704C69.9362 52.6704 69.9362 52.6704 69.9362 52.7555C69.9362 52.7555 69.9362 52.7555 69.9362 52.8405C69.7624 54.2867 66.2877 70.875 64.8109 72.236C63.9423 73.0017 61.1625 75.4686 56.8191 77.4252C53.5181 78.9564 50.1302 80.1474 47.9585 80.1474C45.7868 80.1474 42.399 78.9564 39.098 77.4252C34.7546 75.4686 31.9748 73.0017 31.1062 72.236C29.6294 70.875 26.1547 53.8614 25.9809 52.8405C25.9809 52.8405 25.9809 52.8405 25.9809 52.7555C25.8941 52.16 25.8072 51.5645 25.6335 50.969C25.1991 47.9917 25.0254 45.3546 25.0254 42.9727C25.1123 39.5699 25.7203 36.6776 26.6759 34.2957C31.888 20.7699 47.9585 21.7907 47.9585 21.7907C47.9585 21.7907 63.5079 20.6849 68.9806 33.445C70.1099 35.9971 70.8048 39.0595 70.8917 42.8025C70.9786 45.2695 70.718 47.9066 70.2836 50.884Z" fill="#FFAD97"/>
    <path d="M70.8917 42.8876C70.8048 44.7591 70.6311 46.7156 70.2836 48.9274C70.1968 49.5229 70.1099 50.1183 69.9361 50.7138C69.9361 50.7138 69.9361 50.7138 69.9361 50.7989C69.9361 50.7989 69.9361 50.7989 69.9361 50.884C69.7624 52.3301 66.2877 68.9184 64.8109 70.2795C63.9423 71.0451 61.1625 73.512 56.8191 75.4686C53.5181 76.9998 50.1302 78.1908 47.9585 78.1908C45.7868 78.1908 42.399 76.9998 39.098 75.4686C34.7546 73.512 31.9748 71.0451 31.1062 70.2795C29.7163 68.8333 26.1547 51.8197 25.9809 50.7138C25.9809 50.7138 25.9809 50.7138 25.9809 50.6288C25.8941 50.0333 25.8072 49.4378 25.6335 48.8423C25.286 46.7156 25.1123 44.674 25.0254 42.8876C25.1123 39.4848 25.7203 36.5925 26.6759 34.2106C27.0234 33.36 27.3708 32.5093 27.8052 31.7437C33.9728 20.6848 47.9585 21.1952 47.9585 21.1952C47.9585 21.1952 62.3786 20.6848 68.2857 32.169C68.5463 32.5943 68.72 33.0197 68.8937 33.445C70.1099 35.9971 70.8048 39.0595 70.8917 42.8876Z" fill="#FCBDAA"/>
    <path d="M68.3711 32.169C67.9368 32.4242 67.5893 32.5943 67.155 32.8495C59.5974 36.6776 50.9975 38.8043 42.5713 37.6984C37.2724 37.0179 32.0603 34.9762 27.8906 31.7437C33.9714 20.6848 47.9571 21.1952 47.9571 21.1952C47.9571 21.1952 62.3772 20.6848 68.3711 32.169Z" fill="#F8A196"/>
    <path d="M44.3965 73.0867C44.3965 73.0867 47.7843 69.0885 51.6065 73.0867H44.3965Z" fill="#F8A196"/>
    <path d="M42.0508 64.9202H53.9517C53.9517 64.9202 51.6063 68.408 48.0447 68.408C44.4831 68.408 42.0508 64.9202 42.0508 64.9202Z" fill="white"/>
    <path d="M52.9961 43.0578C57.687 42.9727 62.291 43.1428 66.9818 43.6532C64.4627 42.0369 62.0304 40.5908 59.0769 39.8252C58.1213 39.57 56.992 39.3148 56.0365 39.655C54.6466 40.1654 53.691 41.7817 52.9961 43.0578Z" fill="#3E3E3E"/>
    <path d="M42.9193 43.0578C38.2285 42.9727 33.6245 43.1428 28.9336 43.6532C31.4528 42.0369 33.8851 40.5908 36.8386 39.8252C37.7941 39.57 38.9234 39.3148 39.879 39.655C41.3557 40.1654 42.3113 41.7817 42.9193 43.0578Z" fill="#3E3E3E"/>
    <path d="M38.1416 52.7554C39.197 52.7554 40.0527 51.3082 40.0527 49.5229C40.0527 47.7376 39.197 46.2903 38.1416 46.2903C37.0861 46.2903 36.2305 47.7376 36.2305 49.5229C36.2305 51.3082 37.0861 52.7554 38.1416 52.7554Z" fill="#2F373B"/>
    <path d="M57.8603 52.5003C58.9158 52.5003 59.7714 51.053 59.7714 49.2677C59.7714 47.4824 58.9158 46.0351 57.8603 46.0351C56.8048 46.0351 55.9492 47.4824 55.9492 49.2677C55.9492 51.053 56.8048 52.5003 57.8603 52.5003Z" fill="#2F373B"/>
    <path d="M48.7399 56.5835C48.653 53.7762 48.3924 45.1844 47.8712 45.4396C47.2631 45.6948 47.2631 53.8613 47.2631 56.5835C44.6571 57.0088 44.3965 59.3057 44.3965 59.3057H47.9581H51.5197C51.6065 59.3057 51.3459 56.9238 48.7399 56.5835Z" fill="#F8A196"/>
    <path d="M57.0798 59.9863C56.9061 59.9863 56.8192 59.9012 56.6455 59.8161C56.3848 59.5609 56.3848 59.2206 56.5586 58.9654L58.5566 56.6686C58.8172 56.4134 59.1646 56.4134 59.4252 56.5835C59.6858 56.8387 59.6858 57.179 59.5121 57.4342L57.5141 59.7311C57.4273 59.9012 57.2535 59.9863 57.0798 59.9863Z" fill="#F8A196"/>
    <path d="M60.2946 59.9863C60.1209 59.9863 60.034 59.9012 59.8603 59.8161C59.5997 59.5609 59.5997 59.2206 59.7734 58.9654L61.7714 56.6686C62.032 56.4134 62.3795 56.4134 62.6401 56.5835C62.9007 56.8387 62.9007 57.179 62.7269 57.4342L60.729 59.7311C60.6421 59.9012 60.4684 59.9863 60.2946 59.9863Z" fill="#F8A196"/>
    <path d="M63.5075 59.9863C63.3338 59.9863 63.2469 59.9012 63.0732 59.8161C62.8126 59.5609 62.8126 59.2206 62.9863 58.9654L64.9843 56.6686C65.2449 56.4134 65.5924 56.4134 65.853 56.5835C66.1136 56.8387 66.1136 57.179 65.9398 57.4342L63.9419 59.7311C63.855 59.9012 63.6813 59.9863 63.5075 59.9863Z" fill="#F8A196"/>
    <path d="M38.9246 59.9863C38.7508 59.9863 38.5771 59.9012 38.4034 59.731L36.4054 57.4342C36.1448 57.179 36.2317 56.7537 36.4923 56.5835C36.7529 56.3283 37.1872 56.4134 37.3609 56.6686L39.3589 58.9654C39.6195 59.2206 39.5326 59.646 39.272 59.8161C39.1852 59.9012 39.0983 59.9863 38.9246 59.9863Z" fill="#F8A196"/>
    <path d="M35.7117 59.9863C35.5379 59.9863 35.3642 59.9012 35.1905 59.731L33.1925 57.4342C32.9319 57.179 33.0188 56.7537 33.2794 56.5835C33.54 56.3283 33.9743 56.4134 34.1481 56.6686L36.146 58.9654C36.4066 59.2206 36.3198 59.646 36.0592 59.8161C35.9723 59.9012 35.8854 59.9863 35.7117 59.9863Z" fill="#F8A196"/>
    <path d="M32.4968 59.9863C32.3231 59.9863 32.1494 59.9012 31.9756 59.731L29.9777 57.4342C29.7171 57.179 29.8039 56.7537 30.0645 56.5835C30.3251 56.3283 30.7595 56.4134 30.9332 56.6686L32.9312 58.9654C33.1918 59.2206 33.1049 59.646 32.8443 59.8161C32.8443 59.9012 32.6706 59.9863 32.4968 59.9863Z" fill="#F8A196"/>
    <path d="M74.1912 25.1084C74.1912 25.1084 67.3287 34.2106 51.5187 34.2106C41.1814 34.2106 33.7107 31.6586 29.8017 29.8722C27.7168 28.9364 26.6744 28.2559 26.6744 28.2559C26.5876 28.1708 26.5876 28.0857 26.5007 28.0007C26.0664 27.15 25.7189 26.3844 25.5451 25.5337C23.1128 16.5165 36.3168 12.7735 36.3168 12.7735L33.1027 18.6432C33.2764 18.4731 39.8784 13.5391 52.9954 13.5391C62.2903 13.5391 68.8923 19.1536 72.1064 22.5563C73.4963 24.0875 74.1912 25.1084 74.1912 25.1084Z" fill="#3E3E3E"/>
    <path d="M29.8894 29.9572C29.6288 37.188 26.0672 50.6287 26.0672 50.6287C26.0672 50.6287 20.6814 43.9934 20.1602 37.2731C20.1602 37.0179 20.1602 36.6776 20.1602 36.4224C20.247 31.7437 23.8086 27.4903 25.6328 25.6188C26.3278 24.9382 26.7621 24.5129 26.7621 24.5129L28.4126 26.2993L29.8894 27.9156C29.8894 28.5111 29.8894 29.1916 29.8894 29.9572Z" fill="#3E3E3E"/>
    <path d="M69.241 24.5129C69.241 24.5129 76.3642 30.4676 75.8429 37.2731C75.3217 43.9934 69.9359 50.6287 69.9359 50.6287C69.9359 50.6287 65.5925 34.2957 66.1137 28.0007L69.241 24.5129Z" fill="#3E3E3E"/>
    <path d="M72.1072 22.5563C66.2002 19.8341 59.8588 17.9626 53.4306 17.6224C45.265 17.197 36.7519 19.4088 30.4106 24.5979C30.2368 22.8115 30.0631 21.0251 29.8894 19.2387C28.152 21.1102 27.6308 23.9174 28.4126 26.2993C28.4995 26.4694 28.5864 26.7246 28.6732 26.8948C27.9783 27.2351 27.2833 27.5753 26.6753 28.0007C23.6349 29.9572 21.2894 32.9346 20.1602 36.3373C20.247 31.6586 23.8086 27.4052 25.6328 25.5337C23.2005 16.5165 36.4045 12.7735 36.4045 12.7735L33.1904 18.6432C33.3641 18.4731 39.9661 13.5391 53.0831 13.5391C62.2911 13.6242 68.98 19.2387 72.1072 22.5563Z" fill="#4F4F4F"/>
  </g>
</svg>