<svg id="try" xmlns="http://www.w3.org/2000/svg" width="1417" height="1890" viewBox="0 0 1417 1890">
  <defs>
    <style>
      .cls-1, .cls-5 {
        fill: #1c1e2d;
      }

      .cls-1, .cls-2, .cls-3 {
        fill-rule: evenodd;
      }

      .cls-2 {
        fill: red;
      }

      .cls-3 {
        fill: #ff0707;
      }

      .cls-4 {
        font-size: 150px;
        fill: #ff0606;
        font-family: ArialNarrow, Arial;
      }

      .cls-5 {
        font-family: ArialNarrow-Bold, Arial;
        font-weight: 700;
      }
    </style>
  </defs>
  <g id="Group_1_copy" data-name="Group 1 copy">
    <path class="cls-1" d="M978.673,617.841c5.714,0,10.345,47.858,10.345,106.894s-4.631,106.893-10.345,106.893-10.344-47.858-10.344-106.893S972.96,617.841,978.673,617.841Z"/>
    <path id="Ellipse_1_copy_2" data-name="Ellipse 1 copy 2" class="cls-1" d="M895.917,404.055c5.713,0,10.345,72.558,10.345,162.064s-4.632,162.064-10.345,162.064-10.344-72.559-10.344-162.064S890.2,404.055,895.917,404.055Z"/>
    <path id="Ellipse_1_copy_3" data-name="Ellipse 1 copy 3" class="cls-1" d="M857.987,369.573c7.618,0,13.793,80.277,13.793,179.305s-6.175,179.3-13.793,179.3S844.2,647.905,844.2,548.878,850.37,369.573,857.987,369.573Z"/>
    <path id="Ellipse_1_copy_4" data-name="Ellipse 1 copy 4" class="cls-1" d="M816.609,348.884c7.618,0,13.793,91.084,13.793,203.442s-6.175,203.442-13.793,203.442-13.792-91.084-13.792-203.442S808.992,348.884,816.609,348.884Z"/>
    <path id="Ellipse_1_copy_5" data-name="Ellipse 1 copy 5" class="cls-1" d="M775.231,307.506c7.618,0,13.793,103.434,13.793,231.027s-6.175,231.028-13.793,231.028-13.792-103.435-13.792-231.028S767.614,307.506,775.231,307.506Z"/>
    <path id="Ellipse_1_copy_6" data-name="Ellipse 1 copy 6" class="cls-1" d="M733.853,204.061c7.618,0,13.793,140.485,13.793,313.783s-6.175,313.784-13.793,313.784-13.792-140.486-13.792-313.784S726.236,204.061,733.853,204.061Z"/>
    <path id="Ellipse_1_copy_7" data-name="Ellipse 1 copy 7" class="cls-2" d="M692.475,135.1c7.618,0,13.793,203.782,13.793,455.159s-6.175,455.154-13.793,455.154-13.793-203.777-13.793-455.154S684.858,135.1,692.475,135.1Z"/>
    <path id="Ellipse_1_copy_8" data-name="Ellipse 1 copy 8" class="cls-1" d="M651.1,224.75c7.618,0,13.793,132.766,13.793,296.543S658.715,817.835,651.1,817.835,637.3,685.069,637.3,521.293,643.48,224.75,651.1,224.75Z"/>
    <path id="Ellipse_1_copy_9" data-name="Ellipse 1 copy 9" class="cls-1" d="M609.719,307.506c7.617,0,13.793,106.522,13.793,237.924s-6.176,237.924-13.793,237.924S595.926,676.831,595.926,545.43,602.1,307.506,609.719,307.506Z"/>
    <path id="Ellipse_1_copy_10" data-name="Ellipse 1 copy 10" class="cls-1" d="M568.341,348.884c7.617,0,13.793,91.084,13.793,203.442s-6.176,203.442-13.793,203.442-13.793-91.084-13.793-203.442S560.723,348.884,568.341,348.884Z"/>
    <path id="Ellipse_1_copy_11" data-name="Ellipse 1 copy 11" class="cls-1" d="M489.033,404.055c5.713,0,10.344,72.558,10.344,162.064s-4.631,162.064-10.344,162.064-10.345-72.559-10.345-162.064S483.32,404.055,489.033,404.055Z"/>
    <path id="Ellipse_1_copy_12" data-name="Ellipse 1 copy 12" class="cls-1" d="M530.411,369.573c5.713,0,10.345,80.277,10.345,179.305s-4.632,179.3-10.345,179.3-10.344-80.278-10.344-179.3S524.7,369.573,530.411,369.573Z"/>
    <path id="Ellipse_1_copy_13" data-name="Ellipse 1 copy 13" class="cls-1" d="M447.655,466.122C453.368,466.122,458,595.8,458,755.768s-4.631,289.642-10.344,289.642S437.31,915.736,437.31,755.768,441.942,466.122,447.655,466.122Z"/>
    <path id="Ellipse_1_copy_14" data-name="Ellipse 1 copy 14" class="cls-1" d="M406.277,617.841c5.713,0,10.344,50.946,10.344,113.79s-4.631,113.79-10.344,113.79-10.345-50.946-10.345-113.79S400.564,617.841,406.277,617.841Z"/>
    <path id="Ellipse_1_copy_21" data-name="Ellipse 1 copy 21" class="cls-2" d="M651.1,886.8c3.809,0,6.9,21.613,6.9,48.274s-3.087,48.275-6.9,48.275-6.9-21.614-6.9-48.275S647.288,886.8,651.1,886.8Z"/>
    <path id="Ellipse_1_copy_22" data-name="Ellipse 1 copy 22" class="cls-2" d="M733.853,893.7c3.809,0,6.9,21.613,6.9,48.275s-3.088,48.274-6.9,48.274-6.9-21.613-6.9-48.274S730.045,893.7,733.853,893.7Z"/>
    <path id="Ellipse_1_copy_15" data-name="Ellipse 1 copy 15" class="cls-3" d="M489.033,783.354c5.713,0,10.344,92.628,10.344,206.89s-4.631,206.886-10.344,206.886-10.345-92.62-10.345-206.886S483.32,783.354,489.033,783.354Z"/>
    <path id="Ellipse_1_copy_20" data-name="Ellipse 1 copy 20" class="cls-3" d="M895.917,783.354c5.713,0,10.345,92.628,10.345,206.89s-4.632,206.886-10.345,206.886-10.344-92.62-10.344-206.886S890.2,783.354,895.917,783.354Z"/>
    <path id="Ellipse_1_copy_16" data-name="Ellipse 1 copy 16" class="cls-3" d="M530.411,817.835c5.713,0,10.345,97.26,10.345,217.235s-4.632,217.24-10.345,217.24-10.344-97.26-10.344-217.24S524.7,817.835,530.411,817.835Z"/>
    <path id="Ellipse_1_copy_19" data-name="Ellipse 1 copy 19" class="cls-3" d="M854.539,817.835c5.713,0,10.345,97.26,10.345,217.235s-4.632,217.24-10.345,217.24S844.2,1155.05,844.2,1035.07,848.826,817.835,854.539,817.835Z"/>
    <path id="Ellipse_1_copy_17" data-name="Ellipse 1 copy 17" class="cls-3" d="M571.789,831.628c5.713,0,10.345,108.066,10.345,241.372s-4.632,241.37-10.345,241.37S561.445,1206.31,561.445,1073,566.076,831.628,571.789,831.628Z"/>
    <path id="Ellipse_1_copy_18" data-name="Ellipse 1 copy 18" class="cls-3" d="M813.161,845.421c5.713,0,10.345,108.066,10.345,241.369s-4.632,241.37-10.345,241.37-10.344-108.06-10.344-241.37S807.448,845.421,813.161,845.421Z"/>
    <path id="Ellipse_1_copy" data-name="Ellipse 1 copy" class="cls-1" d="M937.3,479.914c5.714,0,10.345,129.68,10.345,289.647S943.009,1059.21,937.3,1059.21s-10.344-129.682-10.344-289.649S931.582,479.914,937.3,479.914Z"/>
  </g>
  <text id="CYNERV" class="cls-4" x="210.361" y="1581.31">CY<tspan class="cls-5">NERV</tspan></text>
</svg>
